<?xml version="1.0" encoding="UTF-8"?>
<svg xmlns="http://www.w3.org/2000/svg" xmlns:xlink="http://www.w3.org/1999/xlink" width="973px" height="378px" viewBox="0 0 731 284" version="1.1">
<g id="surface1">
<path style=" stroke:none;fill-rule:nonzero;fill:rgb(1.176471%,18.82353%,31.764707%);fill-opacity:1;" d="M 391.664062 106.3125 L 350.664062 89.789062 C 346.15625 73.949219 343.324219 54.644531 344.222656 44.328125 C 347.785156 4.167969 386.09375 1.933594 409.378906 7.507812 L 383.898438 37.988281 C 381.335938 60.660156 399.816406 64.898438 409.378906 64.179688 L 437.652344 31.558594 C 458.882812 84.796875 417.355469 103.457031 391.664062 106.3125 Z M 391.664062 106.3125 "/>
<path style=" stroke:none;fill-rule:nonzero;fill:rgb(1.176471%,18.82353%,31.764707%);fill-opacity:1;" d="M 248.195312 106.3125 L 205.332031 106.3125 L 260.859375 191.957031 L 203.101562 283.246094 L 248.195312 284 L 298.503906 210.746094 L 350.300781 284 L 396.515625 284 L 332.785156 191.957031 L 391.664062 106.3125 L 350.664062 89.789062 L 298.503906 173.9375 Z M 248.195312 106.3125 "/>
<path style=" stroke:none;fill-rule:nonzero;fill:rgb(1.176471%,18.82353%,31.764707%);fill-opacity:1;" d="M 333.53125 282.878906 L 266.074219 282.878906 L 300.355469 232.910156 Z M 295.519531 259.960938 L 295.519531 271.230469 L 305.195312 271.230469 L 305.195312 259.960938 Z M 295.519531 259.960938 "/>
<path style=" stroke:none;fill-rule:nonzero;fill:rgb(1.176471%,18.82353%,31.764707%);fill-opacity:1;" d="M 448.722656 284 L 448.722656 111.953125 L 414.652344 111.953125 C 414.488281 169.296875 414.238281 284 414.652344 284 Z M 448.722656 284 "/>
<path style=" stroke:none;fill-rule:nonzero;fill:rgb(1.568628%,18.82353%,32.156864%);fill-opacity:1;" d="M 538.601562 284 L 479.039062 284 L 479.039062 114.550781 L 539.050781 114.550781 C 555.984375 114.550781 570.535156 117.960938 582.703125 124.78125 C 594.894531 131.53125 604.261719 141.234375 610.800781 153.894531 C 617.421875 166.488281 620.738281 181.570312 620.738281 199.15625 C 620.738281 216.824219 617.421875 231.988281 610.800781 244.652344 C 604.261719 257.316406 594.859375 267.050781 582.597656 273.875 C 570.347656 280.625 555.675781 284 538.601562 284 Z M 514.46875 253.292969 L 537.019531 253.292969 C 552.890625 253.292969 564.917969 249.007812 573.132812 240.4375 C 581.320312 231.871094 585.429688 218.109375 585.429688 199.15625 C 585.429688 180.355469 581.320312 166.675781 573.132812 158.109375 C 564.917969 149.542969 552.890625 145.257812 537.019531 145.257812 L 514.46875 145.257812 Z M 514.46875 253.292969 "/>
<path style=" stroke:none;fill-rule:nonzero;fill:rgb(1.176471%,18.82353%,31.764707%);fill-opacity:1;" d="M 682.753906 284 L 682.753906 111.953125 L 648.695312 111.953125 C 648.519531 169.296875 648.269531 284 648.695312 284 Z M 682.753906 284 "/>
<path style=" stroke:none;fill-rule:nonzero;fill:rgb(1.176471%,18.82353%,31.764707%);fill-opacity:1;" d="M 177.304688 284 L 177.304688 111.953125 L 143.246094 111.953125 C 143.082031 169.296875 142.832031 284 143.246094 284 Z M 177.304688 284 "/>
<path style=" stroke:none;fill-rule:nonzero;fill:rgb(1.176471%,18.82353%,31.764707%);fill-opacity:1;" d="M 116.5625 80.394531 L 116.5625 130.351562 L 37.933594 130.351562 C 30.933594 125.890625 40.140625 99.773438 45.636719 86.660156 C 22.519531 108.730469 17.113281 128.015625 17.269531 133.714844 L 18.105469 150.769531 C 18.152344 151.855469 18.777344 152.808594 19.710938 153.339844 C 34.722656 161.957031 26.980469 173.960938 19.296875 177.890625 C 19.378906 180.804688 19.652344 186.019531 19.535156 186.28125 C 19.523438 186.28125 19.511719 186.28125 19.511719 186.28125 C 19.523438 186.292969 19.523438 186.292969 19.535156 186.28125 C 20.171875 186.1875 39.171875 187.261719 48.847656 187.035156 L 48.636719 178.644531 C 31.476562 163.125 40.042969 154.511719 52.09375 155.5 L 52.09375 155.523438 L 112.847656 155.523438 L 112.847656 197.222656 L 56.566406 197.222656 L 56.566406 282.878906 L 4.394531 282.878906 L 2.90625 80.394531 Z M 116.5625 80.394531 "/>
</g>
</svg>
