<svg width="973" height="378" viewBox="0 0 973 378" fill="none" xmlns="http://www.w3.org/2000/svg">
<path d="M521.601 141.5L466.602 119.5C460.542 98.4331 456.733 72.7307 457.958 59.0018C462.73 5.54932 514.136 2.5691 545.378 9.99537L511.188 50.5682C507.74 80.7407 532.545 86.379 545.378 85.4266L583.304 41.9965C611.805 112.856 556.079 137.69 521.601 141.5Z" fill="#033051"/>
<path d="M329.102 141.5H271.602L346.102 255.5L268.602 377L329.102 378L396.602 280.5L466.102 378H493.602H528.102L442.602 255.5L521.602 141.5L466.602 119.5L396.602 231.5L329.102 141.5Z" fill="#033051"/>
<path d="M443.602 376.5H353.102L399.102 310L443.602 376.5ZM392.602 346V361H405.602V346H392.602Z" fill="#033051"/>
<path d="M598.152 378V149H552.46C552.228 225.333 551.902 378 552.46 378H598.152Z" fill="#033051"/>
<path d="M718.752 378H638.83V152.463H719.357C742.062 152.463 761.589 157.004 777.937 166.086C794.284 175.067 806.848 187.984 815.627 204.836C824.507 221.587 828.947 241.669 828.947 265.08C828.947 288.592 824.507 308.775 815.627 325.627C806.848 342.479 794.234 355.446 777.785 364.528C761.337 373.509 741.659 378 718.752 378ZM686.359 337.131H716.633C737.925 337.131 754.071 331.429 765.07 320.026C776.07 308.623 781.569 290.308 781.569 265.08C781.569 240.054 776.07 221.84 765.07 210.437C754.071 199.034 737.925 193.332 716.633 193.332H686.359V337.131Z" fill="#043052"/>
<path d="M912.152 378V149H866.46C866.228 225.333 865.902 378 866.46 378H912.152Z" fill="#033051"/>
<path d="M234 378V149H188.308C188.076 225.333 187.75 378 188.308 378H234Z" fill="#033051"/>
<path d="M152.5 107V173.5H47C37.606 167.559 49.9552 132.791 57.3486 115.338C26.3273 144.721 19.0643 170.392 19.2695 177.968L20.3857 200.673C20.4564 202.111 21.3028 203.387 22.5537 204.1C42.6852 215.568 32.2947 231.537 22.002 236.766C22.1123 240.65 22.469 247.589 22.3105 247.932C22.293 247.934 22.2862 247.937 22.29 247.94C22.2977 247.947 22.3045 247.945 22.3105 247.932C23.1637 247.813 48.6628 249.248 61.6504 248.95L61.3623 237.775C38.3368 217.116 49.842 205.657 66 206.974V207H147.5V262.5H72V376.5H2L0 107H152.5Z" fill="#033051"/>
</svg>
