<svg width="585" height="562" viewBox="0 0 585 562" fill="none" xmlns="http://www.w3.org/2000/svg">
<path d="M368.75 146.25V212.75H263.25C253.856 206.809 266.205 172.041 273.599 154.588C242.577 183.971 235.314 209.642 235.52 217.218L236.636 239.923C236.706 241.361 237.553 242.637 238.804 243.35C258.935 254.818 248.545 270.787 238.252 276.016C238.362 279.9 238.719 286.839 238.561 287.182C238.543 287.184 238.536 287.187 238.54 287.19C238.548 287.197 238.554 287.195 238.561 287.182C239.414 287.063 264.913 288.498 277.9 288.2L277.612 277.025C254.587 256.366 266.092 244.907 282.25 246.224V246.25H363.75V301.75H288.25V415.75H218.25L216.25 146.25H368.75Z" fill="#033051"/>
</svg>
