<svg width="200" height="200" viewBox="0 0 200 200" fill="none" xmlns="http://www.w3.org/2000/svg">
<path d="M34.0059 0.223844C32.4998 0.53508 31.7071 1.0953 30.8351 2.46474C30.016 3.77193 19.8169 27.4881 19.8169 28.0794C19.8169 28.4841 21.138 28.5463 29.1969 28.5463H38.577L38.6298 38.1012L38.7091 47.6873L40.5587 47.7807C41.5627 47.8429 42.6725 47.7807 42.9896 47.6873L43.5973 47.5317L43.6501 38.1012L43.7294 28.7019L53.0566 28.6085C61.3269 28.5463 62.3573 28.4841 62.3573 28.0483C62.3573 27.7682 61.4326 25.4339 60.27 22.8507C59.1338 20.2363 56.6765 14.6029 54.8269 10.339C52.9773 6.04395 51.2598 2.30912 51.022 1.96676C50.7842 1.65553 50.1237 1.0953 49.5424 0.721821C48.5383 0.0993495 48.0891 0.0682259 41.8798 0.00597873C38.2599 -0.0251448 34.6928 0.0682259 34.0059 0.223844Z" fill="black"/>
<path d="M80.9326 10.1833C78.5017 10.7747 76.5993 12.5798 75.5159 15.3187C74.9611 16.7504 74.9082 17.3729 74.829 23.4731L74.7497 30.1024H75.833C76.705 30.1024 77.1013 30.2892 77.709 31.005C78.6602 32.1254 78.6867 33.277 77.8147 34.3041C77.207 35.0511 77.0485 35.0822 73.6135 35.0822C69.518 35.0822 68.1704 35.4868 66.4266 37.1363C64.9733 38.568 64.0485 41.0268 63.8107 44.2325C63.705 45.5708 63.705 49.8036 63.8107 53.6318L64.0221 60.6035H75.0668H86.1378V54.5344V48.4653H77.1806H68.1969L67.6684 47.6561C67.3513 47.1893 67.1135 46.4423 67.1135 45.9754C67.1135 45.5086 67.3513 44.7616 67.6684 44.2948L68.1969 43.4855H77.1541H86.1114L86.27 41.6804C86.6135 37.5409 87.9082 34.5842 90.2334 32.53C92.2679 30.7249 93.4305 30.3514 97.5788 30.1958L101.199 30.0402V22.197C101.199 15.2565 101.119 14.2294 100.697 13.1401C100.115 11.6461 99.2699 10.7124 98.0545 10.2144C96.9975 9.80984 82.7029 9.77871 80.9326 10.1833Z" fill="black"/>
<path d="M105.506 11.8951C105.611 12.7043 105.691 24.0022 105.691 36.9807V60.6035H107.672H109.681L109.601 38.2568L109.522 15.9412L108.756 14.2916C108.307 13.3579 107.54 12.2375 107.038 11.7706C105.347 10.2144 105.321 10.2144 105.506 11.8951Z" fill="black"/>
<path d="M95.7819 35.3001C93.2453 35.9537 91.6864 37.4476 91.0258 39.7507C90.788 40.5911 90.6295 41.7427 90.6823 42.3029L90.7616 43.33H95.914H101.066L101.146 39.4706C101.199 36.5761 101.119 35.5491 100.881 35.3312C100.538 35.0822 96.7331 35.0511 95.7819 35.3001Z" fill="black"/>
<path d="M90.6296 54.5344V60.6035H95.9142H101.199V54.5344V48.4653H95.9142H90.6296V54.5344Z" fill="black"/>
<path d="M34.1118 52.8848C32.1037 53.5384 29.8578 56.0283 28.9594 58.5493C28.1667 60.7591 27.2155 60.6035 41.0874 60.6035C49.3577 60.6035 53.6381 60.5101 53.6381 60.2922C53.6381 59.3896 52.317 56.8375 51.128 55.4369C48.8821 52.7914 47.9044 52.5113 40.876 52.5425C37.6524 52.5425 34.6138 52.6981 34.1118 52.8848Z" fill="black"/>
<path d="M16.2502 66.4859C14.9819 67.1706 14.427 67.8553 13.8722 69.4115C13.5287 70.3763 13.4758 73.3642 13.4758 91.7271C13.4758 114.696 13.423 113.731 14.9026 115.63C15.8803 116.937 16.4352 117.093 20.2136 117.248L23.9128 117.404L24.3091 121.512C24.5469 123.784 24.8376 125.776 24.9961 125.963C25.1811 126.181 26.4758 126.274 28.431 126.212L31.5753 126.119L32.5001 121.761L33.4249 117.404L48.5387 117.311L63.6524 117.248L63.6788 91.5715V65.8945H40.5062C18.549 65.8945 17.2543 65.9257 16.2502 66.4859ZM47.1118 73.0218C48.6179 73.0841 49.1992 76.1964 47.9309 77.3791C47.244 78.0016 46.9533 78.0327 36.2257 78.0327H25.2339V91.5092V104.955L36.4107 105.11L47.5875 105.266L48.0895 106.044C48.75 107.04 48.75 108.565 48.1159 109.499L47.6139 110.246H35.0103H22.4067L21.6404 109.219L20.8477 108.191L20.927 91.4159L21.0063 74.6403L21.614 73.9244C22.0368 73.3953 22.6181 73.1775 23.7278 73.053C24.864 72.9285 44.2582 72.9285 47.1118 73.0218ZM51.3659 86.7162C52.2907 87.7433 52.2907 89.2995 51.3923 90.3265L50.7582 91.1046H42.6728H34.5875L33.9534 90.3265C32.8172 89.0194 33.2664 86.654 34.7196 86.156C35.1688 85.9692 38.9472 85.8759 43.122 85.907L50.6789 85.9692L51.3659 86.7162Z" fill="black"/>
<path d="M68.1704 91.5715V117.248L82.3594 117.311L96.5747 117.404L97.2089 120.205C97.5524 121.73 98.0016 123.753 98.1865 124.625L98.5829 126.274H101.991H105.4L105.532 125.247C105.611 124.718 105.77 122.695 105.876 120.828L106.087 117.404L109.918 117.248C113.855 117.093 114.357 116.937 115.388 115.63C116.814 113.856 116.788 114.261 116.788 91.8205C116.788 78.4685 116.682 70.6253 116.524 69.8784C116.154 68.3844 115.071 66.8594 113.961 66.3303C113.274 65.9568 109.02 65.8945 90.6297 65.8945H68.1704V91.5715ZM108.254 73.7688L108.993 74.6092L109.073 91.1046C109.152 109.841 109.178 109.499 107.302 110.09C106.589 110.308 102.388 110.401 94.6195 110.339C83.152 110.246 82.9671 110.246 82.4122 109.592C81.5667 108.565 81.6195 106.791 82.5443 105.857L83.2577 105.11H93.9589H104.634V91.5715V78.0327H93.8004H82.9407L82.3065 77.2547C81.5403 76.3832 81.4346 74.7959 82.0687 73.8311C82.4386 73.2397 82.8614 73.2086 90.3126 73.0218C94.6195 72.9285 100.274 72.8662 102.837 72.8662L107.54 72.8974L108.254 73.7688ZM96.0991 86.8718C96.6276 87.6188 96.7333 87.9923 96.6012 88.8949C96.3105 91.0424 96.1784 91.1046 87.6967 91.1046C80.4305 91.1046 80.1134 91.0735 79.4265 90.4511C78.898 89.9531 78.7395 89.5485 78.7395 88.6459C78.7395 87.2142 79.1622 86.4984 80.1927 86.1249C80.6419 85.9693 84.2354 85.8759 88.1988 85.907L95.4386 85.9693L96.0991 86.8718Z" fill="black"/>
<path d="M132.51 66.0813C130.898 66.2992 128.784 66.9216 128.044 67.3574C126.512 68.2911 124.503 70.8743 123.869 72.7106L123.262 74.4535L123.13 111.802L122.997 149.15L65.7924 149.306C13.2113 149.461 8.50809 149.492 7.50403 149.99C2.85365 152.169 0 157.18 0 163.125C0 167.326 1.21544 170.688 3.72559 173.395C6.73777 176.694 8.21744 177.037 18.3109 177.006C22.4064 176.975 26.0263 176.975 26.3169 176.975C26.7926 177.006 26.8982 177.255 27.0568 178.718C27.6645 184.942 31.1787 191.416 35.8555 194.964C39.1055 197.423 44.39 199.072 47.6929 198.637C53.6908 197.89 58.7904 194.559 62.1461 189.206C63.7314 186.716 65.1582 182.826 65.6867 179.713L66.1359 177.006H102.15H138.164L138.323 178.157C139.274 185.378 142.762 191.665 147.755 195.244C151.375 197.827 156.369 199.135 160.121 198.512C166.41 197.423 171.087 193.999 174.337 188.117C175.922 185.253 176.688 183.044 177.243 179.62L177.666 177.068L184.8 176.943C191.406 176.819 192.066 176.757 193.44 176.103C196.532 174.703 198.566 172.182 199.491 168.571C200.019 166.61 200.046 165.926 199.967 145.073L199.887 123.629L199.174 120.983C197.271 113.825 194.603 109.125 184.562 95.1507C182.528 92.3185 178.353 86.4361 175.288 82.0788C172.223 77.7215 168.867 73.2086 167.863 72.0882C164.507 68.3533 161.178 66.7038 155.973 66.2058C153.119 65.9257 134.386 65.8323 132.51 66.0813ZM157.611 79.2777C158.087 79.6201 161.205 83.6661 164.56 88.2413C167.889 92.8165 172.249 98.7299 174.231 101.375C179.436 108.285 180.202 109.53 180.202 111.179C180.202 112.051 180.017 112.767 179.648 113.327C178.432 115.132 179.383 115.07 157.426 115.07C137.9 115.07 137.239 115.039 136.42 114.447C134.597 113.171 134.623 113.358 134.544 97.7029C134.465 83.1993 134.544 81.9543 135.548 80.4604C136.711 78.7175 136.975 78.6552 147.28 78.6552C156.343 78.6552 156.792 78.6864 157.611 79.2777ZM148.786 128.951C149.658 130.071 149.658 132.001 148.759 132.841C148.152 133.37 147.597 133.433 142.524 133.433C137.292 133.433 136.922 133.402 136.394 132.81C135.522 131.845 135.575 129.636 136.499 128.795C137.16 128.173 137.53 128.142 142.682 128.142H148.152L148.786 128.951ZM190.164 133.744C191.723 134.553 193.308 136.576 193.836 138.475C194.365 140.373 194.233 143.672 193.572 145.166C191.247 150.488 184.906 151.36 181.444 146.816C177.798 142.023 179.991 134.553 185.487 133.09C186.755 132.748 188.816 133.059 190.164 133.744ZM50.9164 154.13C57.5749 155.966 63.4143 162.627 64.894 170.034C65.6074 173.644 64.894 175.45 62.7273 175.45C61.9082 175.45 61.4591 175.263 60.9306 174.64L60.2436 173.8V175.823C60.2436 184.942 53.2152 192.63 45.5791 191.821C38.2864 191.042 33.0811 184.849 32.5791 176.321C32.4206 174.049 32.3942 173.956 31.9978 174.578C31.7072 174.983 31.1259 175.263 30.3332 175.356C29.2763 175.512 29.0121 175.418 28.4308 174.734C26.7133 172.711 28.193 166.393 31.4429 161.755C33.9795 158.176 37.573 155.499 41.3779 154.286C43.703 153.57 48.5912 153.476 50.9164 154.13ZM164.772 154.877C169.211 156.9 172.91 160.666 174.839 165.054C177.587 171.31 177.402 175.45 174.389 175.45C173.623 175.45 173.148 175.263 172.698 174.734L172.091 174.018L171.932 176.352C171.087 190.669 156.792 197.08 148.205 186.996C145.562 183.884 144.32 180.554 144.188 176.197L144.136 174.298L143.501 174.858C142.629 175.667 140.753 175.667 140.066 174.858C138.851 173.427 139.115 170.034 140.753 166.175C143.264 160.168 147.544 156.028 153.066 154.254C154.652 153.756 155.629 153.663 158.8 153.756C162.367 153.881 162.79 153.943 164.772 154.877Z" fill="black"/>
<path d="M141.414 84.3197C141.229 84.5375 141.097 84.9421 141.097 85.2222C141.097 85.6891 147.121 93.7501 150.635 98.014C151.719 99.3212 152.406 99.4768 153.119 98.5742C153.568 98.014 153.568 97.9518 153.093 97.0492C152.802 96.5512 150.424 93.4077 147.755 90.0464C142.867 83.915 142.26 83.3237 141.414 84.3197Z" fill="black"/>
<path d="M139.142 94.0925C139.062 94.3726 138.983 94.7772 138.983 95.0262C138.983 95.6798 143.264 101.064 143.951 101.251C144.638 101.469 145.325 100.909 145.325 100.162C145.325 99.6636 142.233 95.3063 141.044 94.1236C140.384 93.47 139.353 93.4389 139.142 94.0925Z" fill="black"/>
<path d="M44.5484 162.129C40.2415 162.782 36.4103 166.797 35.3005 171.87C33.583 179.527 38.022 187.588 44.6013 188.802C48.8553 189.58 53.5585 187.183 55.9102 183.013C59.5036 176.663 58.0504 168.167 52.6602 163.965C50.6521 162.378 47.5342 161.693 44.5484 162.129ZM48.0891 171.341C50.1764 172.555 50.9163 175.948 49.5159 177.939C47.6663 180.523 44.6805 180.367 43.1216 177.628C41.9326 175.574 42.6988 172.524 44.6805 171.341C45.1826 171.03 45.9488 170.781 46.3716 170.781C46.8208 170.781 47.587 171.03 48.0891 171.341Z" fill="black"/>
<path d="M156.158 162.097C150.53 163.249 146.593 168.82 146.619 175.574C146.646 178.873 147.359 181.363 148.971 183.697C151.375 187.183 154.308 188.895 157.981 188.926C165.142 188.988 170.505 181.674 169.422 173.426C168.418 165.832 162.526 160.821 156.158 162.097ZM159.434 171.217C161.39 172.182 162.314 174.391 161.733 176.694C160.597 181.207 154.757 180.492 154.361 175.823C154.097 172.306 156.739 169.878 159.434 171.217Z" fill="black"/>
<path d="M58.2883 131.503C17.0426 131.534 1.66461 131.659 1.40038 131.908C1.13615 132.188 1.05688 133.339 1.05688 136.545C1.05688 140.28 1.10973 140.871 1.53249 141.307C1.98168 141.805 6.34141 141.836 58.8696 141.836C110.182 141.836 115.731 141.774 116.101 141.338C116.445 140.965 116.524 140.062 116.524 136.576C116.524 132.094 116.445 131.783 115.335 131.534C115.044 131.472 89.3613 131.441 58.2883 131.503Z" fill="black"/>
<path d="M5.41636 195.213C4.49157 196.271 4.51799 198.107 5.44279 199.135L6.12978 199.881H15.959C24.7577 199.881 25.8675 199.819 26.4752 199.352C27.3207 198.699 27.6114 197.423 27.1886 196.24C26.5809 194.466 26.3167 194.435 15.7212 194.435H6.05051L5.41636 195.213Z" fill="black"/>
<path d="M67.008 195.4C66.1889 196.52 66.136 197.361 66.823 198.699C67.2458 199.477 67.5893 199.726 68.4876 199.882C69.1218 199.975 84.7111 200.037 103.128 199.975L136.658 199.882L137.451 198.823C138.085 197.983 138.217 197.61 138.085 196.8C138.006 196.271 137.636 195.524 137.239 195.12L136.579 194.435H102.124H67.6949L67.008 195.4Z" fill="black"/>
<path d="M177.957 195.213C177.085 196.209 177.085 197.827 177.93 199.01L178.564 199.881H187.284H196.003L196.664 199.166C197.034 198.761 197.404 198.076 197.483 197.672C197.694 196.769 197.06 195.213 196.347 194.746C196.003 194.559 192.621 194.435 187.205 194.435H178.591L177.957 195.213Z" fill="black"/>
</svg>
