<svg width="300" height="300" viewBox="0 0 300 300" fill="none" xmlns="http://www.w3.org/2000/svg">
<path d="M69.6782 2.76474C61.2934 8.15829 56.5317 17.9181 56.4282 30.2462C56.2211 61.7086 91.313 71.8536 102.803 43.7301C109.014 28.5767 103.735 9.31405 91.4165 1.99423C86.3442 -0.959385 74.7505 -0.574131 69.6782 2.76474Z" fill="black"/>
<path d="M165.017 28.9621C164.706 30.2463 166.362 32.301 170.192 35.5114C176.714 40.905 178.267 43.3449 180.544 51.8205C182.097 57.5993 182.097 58.113 180.337 59.654C178.681 61.3234 178.681 61.8371 181.062 70.1843C183.235 77.8894 183.857 79.0451 186.341 79.4304C189.964 79.9441 190.896 81.4851 192.655 89.9607C194.208 97.6657 194.519 97.7942 201.144 94.3269L204.767 92.529L202.075 85.9797C200.005 80.843 199.591 78.403 200.109 74.5505C200.626 70.8264 200.109 67.6159 197.831 60.9382C194.312 50.0227 184.581 37.4377 175.161 31.1452C168.122 26.6506 165.948 26.1369 165.017 28.9621Z" fill="black"/>
<path d="M171.124 66.8455C169.985 67.4875 163.774 70.698 157.459 74.0369C151.042 77.2473 145.762 80.2009 145.762 80.4578C145.762 80.7146 146.59 82.8977 147.625 85.3376L149.489 89.5754L159.219 84.824C177.542 75.9631 178.68 74.8074 175.782 68.0012C174.54 65.3044 174.126 65.176 171.124 66.8455Z" fill="black"/>
<path d="M44.8345 71.8536C35.9321 74.5504 30.5493 81.4849 26.5122 95.4825C3.63518 174.331 2.70354 177.927 2.49651 185.632C2.39299 194.621 3.94573 200.272 8.70746 207.591C12.5375 213.627 13.6762 214.269 42.2466 226.597L61.397 234.816L61.9146 261.013C62.4322 285.284 62.6392 287.467 64.8131 291.705C69.1607 300.566 80.3404 302.749 87.276 296.2C89.3463 294.274 91.4166 291.191 92.0377 289.394C92.5553 287.724 92.9694 270.131 92.9694 250.355C92.9694 211.444 92.6588 208.362 87.3795 203.225C85.8268 201.813 77.9596 197.832 69.8853 194.493C61.8111 191.282 54.772 188.072 54.2544 187.43C53.6333 186.788 54.565 181.908 56.4283 175.102C68.7467 131.825 69.0572 130.541 68.022 128.871C67.4009 127.972 66.0552 126.945 64.9166 126.56C62.5357 125.661 62.4322 123.478 64.399 120.139C65.7447 117.827 66.2623 117.956 77.649 125.019C93.1764 134.778 94.5221 134.907 105.391 129.128C110.257 126.56 118.124 122.45 122.989 119.882C139.551 111.535 142.657 108.067 142.657 98.3077C142.657 88.9332 135.928 81.3565 128.786 82.6407C127.026 82.8975 119.159 86.8785 111.292 91.3731C100.215 97.5372 96.4889 99.0782 95.2467 98.0509C94.2116 97.4088 84.8951 91.2447 74.3365 84.567C54.979 72.1104 50.4243 70.1842 44.8345 71.8536Z" fill="black"/>
<path d="M123.298 134.393L114.706 139.016V152.372V165.727L197.829 165.47L280.849 165.085L281.16 148.005L281.47 131.054H207.974C167.603 131.054 133.96 130.797 133.132 130.412C132.407 130.155 127.956 131.953 123.298 134.393Z" fill="black"/>
<path d="M289.648 170.864V210.673H294.824H300V170.864V131.054H294.824H289.648V170.864Z" fill="black"/>
<path d="M114.706 193.337V210.673L197.829 210.417L280.849 210.031V193.337V176.643L197.829 176.257L114.706 176V193.337Z" fill="black"/>
<path d="M114.706 238.283V255.62L197.829 255.363L280.849 254.978L281.16 237.898L281.47 220.947H198.036H114.706V238.283Z" fill="black"/>
<path d="M289.648 260.371V299.924L294.824 299.539L300 299.025V259.986V220.947H294.824H289.648V260.371Z" fill="black"/>
<path d="M43.7987 246.759C40.3827 248.171 31.0663 252.024 23.0955 255.234C15.1248 258.445 7.36112 262.169 5.80838 263.582C2.18533 266.664 -0.609598 275.91 0.115013 282.459C1.15017 292.09 7.77519 299.41 15.5389 299.282C17.4022 299.153 26.408 296.071 35.5174 292.476L52.08 285.669L52.3905 264.866C52.5975 248.685 52.3905 244.062 51.3554 244.19C50.6307 244.19 47.2147 245.475 43.7987 246.759Z" fill="black"/>
<path d="M114.706 282.587V299.282H120.917H127.128V282.587V265.893H120.917H114.706V282.587Z" fill="black"/>
</svg>
