<svg width="200" height="200" viewBox="0 0 200 200" fill="none" xmlns="http://www.w3.org/2000/svg">
<path d="M46.4519 1.84318C40.862 5.43888 37.6875 11.9454 37.6185 20.1641C37.4805 41.1391 60.8751 47.9024 68.5352 29.1534C72.6758 19.0512 69.1563 6.20939 60.9441 1.3295C57.5626 -0.639572 49.8334 -0.382736 46.4519 1.84318Z" fill="black"/>
<path d="M110.011 19.3081C109.804 20.1642 110.908 21.534 113.461 23.6743C117.809 27.27 118.844 28.8966 120.362 34.547C121.397 38.3996 121.397 38.742 120.224 39.7693C119.12 40.8823 119.12 41.2247 120.707 46.7895C122.156 51.9262 122.57 52.6968 124.227 52.9536C126.642 53.296 127.263 54.3234 128.436 59.9738C129.471 65.1105 129.679 65.1961 134.095 62.8846L136.511 61.686L134.716 57.3198C133.336 53.8953 133.06 52.2687 133.405 49.7003C133.75 47.2176 133.405 45.0773 131.887 40.6255C129.54 33.3484 123.054 24.9585 116.774 20.7635C112.081 17.7671 110.632 17.4246 110.011 19.3081Z" fill="black"/>
<path d="M114.082 44.5636C113.323 44.9917 109.182 47.132 104.973 49.3579C100.694 51.4982 97.1746 53.4672 97.1746 53.6385C97.1746 53.8097 97.7266 55.2651 98.4167 56.8917L99.6589 59.7169L106.146 56.5493C118.361 50.642 119.12 49.8715 117.188 45.3341C116.359 43.5363 116.083 43.4506 114.082 44.5636Z" fill="black"/>
<path d="M29.8894 47.9024C23.9545 49.7002 20.3659 54.3233 17.6745 63.655C2.42321 116.221 1.80211 118.618 1.66409 123.755C1.59508 129.747 2.63024 133.514 5.80472 138.394C8.35811 142.418 9.11722 142.846 28.1641 151.065L40.931 156.544L41.2761 174.009C41.6211 190.19 41.7592 191.645 43.2084 194.47C46.1068 200.377 53.56 201.833 58.1837 197.467C59.5639 196.182 60.9441 194.128 61.3581 192.929C61.7032 191.816 61.9792 180.087 61.9792 166.903C61.9792 140.963 61.7722 138.908 58.2527 135.483C57.2175 134.542 51.9727 131.888 46.5899 129.662C41.2071 127.522 36.5144 125.381 36.1693 124.953C35.7553 124.525 36.3764 121.272 37.6185 116.734C45.8308 87.8832 46.0378 87.0271 45.3477 85.9141C44.9337 85.3148 44.0365 84.6299 43.2774 84.3731C41.6902 83.7738 41.6211 82.3184 42.9323 80.0925C43.8295 78.5515 44.1745 78.6371 51.7657 83.3458C62.1173 89.8523 63.0144 89.9379 70.2605 86.0853C73.504 84.3731 78.7488 81.6335 81.9923 79.9213C93.0339 74.3565 95.1043 72.045 95.1043 65.5385C95.1043 59.2888 90.6186 54.2377 85.8568 55.0938C84.6837 55.265 79.4389 57.919 74.1941 60.9154C66.81 65.0248 64.3256 66.0521 63.4975 65.3672C62.8074 64.9392 56.5964 60.8298 49.5574 56.378C36.6524 48.0736 33.6159 46.7894 29.8894 47.9024Z" fill="black"/>
<path d="M82.1988 89.5954L76.4709 92.6775V101.581V110.485L131.886 110.314L187.233 110.057L187.44 98.6703L187.647 87.3695H138.649C111.735 87.3695 89.3069 87.1983 88.7548 86.9414C88.2717 86.7702 85.3043 87.9688 82.1988 89.5954Z" fill="black"/>
<path d="M193.099 113.909V140.449H196.549H200V113.909V87.3694H196.549H193.099V113.909Z" fill="black"/>
<path d="M76.4709 128.891V140.449L131.886 140.278L187.233 140.021V128.891V117.762L131.886 117.505L76.4709 117.334V128.891Z" fill="black"/>
<path d="M76.4709 158.856V170.413L131.886 170.242L187.233 169.985L187.44 158.599L187.647 147.298H132.024H76.4709V158.856Z" fill="black"/>
<path d="M193.099 173.581V199.949L196.549 199.692L200 199.35V173.324V147.298H196.549H193.099V173.581Z" fill="black"/>
<path d="M29.1991 164.506C26.9217 165.448 20.7108 168.016 15.397 170.156C10.0832 172.297 4.90741 174.779 3.87225 175.721C1.45688 177.776 -0.406398 183.94 0.0766751 188.306C0.76678 194.727 5.18345 199.607 10.3592 199.521C11.6014 199.436 17.6053 197.381 23.6783 194.984L34.7199 190.446L34.927 176.577C35.065 165.79 34.927 162.708 34.2369 162.794C33.7538 162.794 31.4764 163.65 29.1991 164.506Z" fill="black"/>
<path d="M76.4709 188.392V199.521H80.6116H84.7522V188.392V177.262H80.6116H76.4709V188.392Z" fill="black"/>
</svg>
