<?xml version="1.0" encoding="iso-8859-1"?>
<!-- Uploaded to: SVG Repo, www.svgrepo.com, Generator: SVG Repo Mixer Tools -->
<svg fill="#000000" height="800px" width="800px" version="1.1" id="Layer_1" xmlns="http://www.w3.org/2000/svg" xmlns:xlink="http://www.w3.org/1999/xlink" 
	 viewBox="0 0 512.001 512.001" xml:space="preserve">
<g>
	<g>
		<path d="M426.126,332.505l-27.116-6.523v-66.84h13.084v-28.086c0-21.106-17.17-38.276-38.276-38.276H213.283
			c-21.106,0-38.276,17.17-38.276,38.276v28.086h13.084v16.101l-48.162-11.586L88.228,0H3.087v30.559h59.992l54.379,277.314
			l10.497,53.532c9.511-3.286,19.714-5.075,30.327-5.075c51.344,0,93.115,41.771,93.115,93.116c0,0.833-0.012,1.663-0.034,2.491
			h130.56c5.556-38.27,38.571-67.764,78.356-67.764c4.969,0,9.825,0.482,14.543,1.361
			C470.966,359.859,452.028,338.736,426.126,332.505z"/>
	</g>
</g>
<g>
	<g>
		<path d="M158.281,386.888c-34.493,0-62.556,28.063-62.556,62.557c0,34.494,28.063,62.556,62.556,62.556
			c34.493,0,62.556-28.063,62.556-62.556C220.837,414.951,192.774,386.888,158.281,386.888z"/>
	</g>
</g>
<g>
	<g>
		<path d="M460.279,414.731c-26.817,0-48.635,21.817-48.635,48.635c0,26.818,21.817,48.635,48.635,48.635
			c26.818,0,48.635-21.817,48.635-48.635C508.914,436.548,487.096,414.731,460.279,414.731z"/>
	</g>
</g>
</svg>