<svg width="300" height="301" viewBox="0 0 300 301" fill="none" xmlns="http://www.w3.org/2000/svg">
<path d="M240.716 1.12498C239.601 1.24226 236.842 1.77012 234.553 2.29795C207.318 8.63212 189.767 34.5552 193.993 62.2378C194.522 65.6395 194.932 68.9239 194.932 69.569C194.932 71.1526 72.8429 193.437 70.0841 194.61C68.4406 195.314 67.6189 195.314 64.0384 194.551C59.1665 193.554 48.425 193.378 43.964 194.317C26.6484 197.777 12.7959 208.334 5.34142 223.759C1.40873 231.97 0 238.128 0 246.984C0 272.086 16.3177 293.024 40.8531 299.299C48.1315 301.176 58.5795 301.176 65.9753 299.358C84.6997 294.725 99.2565 280.883 105.009 262.174C106.828 256.427 107.591 247.746 106.887 242.057C106.535 239.477 106.124 235.665 105.889 233.671L105.537 229.917L166.523 168.98C200.039 135.433 228.39 107.457 229.446 106.753C231.383 105.58 231.501 105.58 237.136 106.518C244.59 107.75 250.929 107.691 257.445 106.342C273.293 103.058 286.676 92.9116 294.13 78.4251C297.77 71.2112 300 62.4724 300 54.9653V51.505L285.15 66.2846C272.471 78.8943 270.065 81.0643 268.597 81.0643C265.604 81.0643 233.438 70.0382 232.088 68.572C230.444 66.8125 219.35 33.3236 219.82 31.5641C219.996 30.8016 226.159 24.1743 233.496 16.7844C240.892 9.33592 247.408 2.70851 247.995 2.00471L249.11 0.714428L245.94 0.831738C244.179 0.831738 241.831 1.00767 240.716 1.12498ZM209.489 91.7972L213.129 95.4335L154.138 154.376L95.1477 213.319L91.215 209.39L87.2823 205.46L145.979 146.752C178.204 114.495 204.911 88.1023 205.204 88.1023C205.557 88.1023 207.494 89.7445 209.489 91.7972ZM73.5472 236.192C77.0691 241.94 79.7691 246.984 79.6517 247.336C79.4756 247.629 76.6582 252.38 73.3125 257.893L67.2667 267.863L53.9425 268.039L40.6183 268.156L34.4551 257.893C31.0507 252.204 28.2332 247.219 28.2332 246.808C28.2332 246.339 31.0507 241.354 34.4551 235.665L40.6183 225.342L53.8838 225.46L67.1493 225.636L73.5472 236.192Z" fill="black"/>
<path d="M9.21536 10.0397L1.70215 17.6641L2.87609 19.5996C3.52175 20.6553 7.51314 27.5759 11.798 35.0244C16.0242 42.4143 19.7221 48.7484 20.0156 48.983C20.2504 49.2763 23.5961 50.2733 27.4114 51.2117C42.2617 54.9066 35.8051 49.6868 79.4169 93.2048L117.981 131.679L119.918 129.978C120.974 129.04 124.027 126.049 126.727 123.292L131.598 118.365L92.8585 79.5981C71.4928 58.3083 54.0598 40.5961 54.0011 40.3029C54.0011 39.951 52.8859 35.3763 51.5358 30.0978L49.0706 20.4207L33.5159 11.4473C24.9461 6.52071 17.7264 2.53255 17.3742 2.47389C17.0807 2.47389 13.3828 5.87556 9.21536 10.0397Z" fill="black"/>
<path d="M175.387 175.959L152.671 198.657L156.721 202.704L160.771 206.692L164.175 205.05C166.993 203.701 168.343 203.407 171.747 203.407C178.38 203.466 183.311 206.34 186.48 211.97C188.006 214.727 188.183 215.665 188.183 220.064C188.183 224.521 188.006 225.342 186.48 227.923L184.837 230.797L215.711 261.646L246.586 292.496L269.184 269.916C281.628 257.482 291.783 247.101 291.783 246.749C291.783 246.456 278.048 232.439 261.202 215.606L230.679 185.109L227.099 186.868C222.638 189.097 217.296 189.273 213.011 187.396C209.431 185.754 205.205 181.355 204.089 177.953C202.387 172.968 203.268 165.402 205.909 162.47C206.848 161.414 206.672 161.18 202.857 157.309C200.626 155.021 198.631 153.203 198.455 153.203C198.278 153.203 187.948 163.408 175.387 175.959ZM262.728 262.878L258.912 266.69L232.088 239.887L205.205 213.026L209.02 209.214L212.835 205.401L239.66 232.204L266.543 259.066L262.728 262.878Z" fill="black"/>
<path d="M277.519 277.189C266.308 288.391 257.151 297.775 257.151 298.068C257.151 299.71 270.534 300.414 275.641 299.006C286.5 296.132 295.246 287.745 298.65 276.895C299.941 272.848 300 262.467 298.709 259.124L297.887 256.837L277.519 277.189Z" fill="black"/>
</svg>
