<svg width="200" height="200" viewBox="0 0 200 200" fill="none" xmlns="http://www.w3.org/2000/svg">
<path d="M131.503 41.6783C130.719 42.2378 129.477 43.986 128.758 45.4545C127.516 48.0419 127.451 49.6503 127.451 68.8811V89.5105H121.111C115.882 89.4405 114.967 89.3007 116.013 88.6713C116.732 88.1818 118.628 87.6224 120.262 87.4126L123.203 87.0629L123.399 83.4266L123.595 79.8601L120.784 79.3706C113.726 78.1119 109.543 73.6364 108.562 66.5035L108.17 63.2867L104.706 63.0769C101.373 62.8671 101.307 62.8671 101.307 64.8951C101.307 71.8881 96.0131 78.1818 89.085 79.3706L86.2746 79.8601V83.6364V87.4126H88.7582C90.0654 87.4825 92.0916 87.9021 93.1373 88.4615C94.8367 89.3007 91.9609 89.3706 70.7844 89.4405C56.9935 89.5105 45.7517 89.7902 44.8367 90.2098C41.2419 91.6783 40.5229 93.2168 40.5229 99.5804C40.5229 105.315 40.5883 105.524 42.4184 106.923C43.4641 107.762 44.5752 108.392 44.9674 108.392C45.2942 108.392 46.0785 110.489 46.6667 113.077C50.3922 129.371 62.5491 142.937 76.4053 146.294C81.3726 147.483 79.1504 148.112 70.0001 148.182C65.9478 148.252 61.3726 148.671 59.8694 149.091C54.6406 150.769 50.3269 157.343 50.3269 163.566V165.734H103.922H157.516V160.629C157.516 155.664 157.451 155.455 155.098 153.007C152.353 150.14 148.693 148.252 145.882 148.252C144.902 148.252 143.726 147.902 143.268 147.413C142.157 146.224 142.157 132.867 143.333 132.867C144.837 132.867 150.784 129.51 152.288 127.902C153.072 126.993 154.575 124.965 155.621 123.496L157.516 120.769V82.1678V43.5664L156.013 42.0979C154.575 40.6294 153.856 40.5594 143.726 40.5594C135.033 40.5594 132.68 40.7692 131.503 41.6783ZM151.634 48.1818C151.961 48.951 152.288 50.3496 152.288 51.3287V53.1468H143.464H134.641V51.3287C134.641 47.2028 135.294 46.8531 143.464 46.8531C150.196 46.8531 150.98 46.993 151.634 48.1818ZM152.288 86.014C152.288 101.049 152.026 112.517 151.569 114.545C150.262 121.259 144.51 125.874 137.451 125.874H135.294V136.364C135.294 148.322 135.948 151.119 139.477 153.706C140.654 154.615 142.811 155.524 144.183 155.734C147.124 156.224 149.739 157.483 150.915 159.021C151.699 160.07 147.386 160.14 104.837 160.14L57.8432 160.07L60.0001 158.042C62.0916 155.944 62.1569 155.944 70.2615 155.944C75.6863 155.944 79.2158 155.594 80.5883 154.965C82.6798 154.056 86.9282 149.51 86.9282 148.252C86.9282 147.832 87.9086 147.552 89.085 147.552C92.7452 147.552 100.065 145.524 104.183 143.496C115.49 137.762 124.706 125.664 126.994 113.357C127.516 110.769 128.301 108.671 128.824 108.462C130.458 107.762 132.353 106.014 133.529 104.196C134.51 102.657 134.641 100.14 134.641 81.6783V60.8391H143.464H152.288V86.014ZM101.046 98.951C101.307 99.9301 101.307 100.909 101.177 101.049C100.98 101.259 60.5883 101.538 47.9739 101.399C46.4053 101.399 45.5556 99.9301 46.1439 98.2517C46.4707 97.3426 50.1308 97.2028 73.5948 97.2028H100.654L101.046 98.951ZM127.32 99.4405L127.516 101.399H118.039H108.497V99.7902C108.497 98.8811 108.693 97.9021 108.954 97.6224C109.216 97.4126 113.399 97.2727 118.235 97.3426L127.124 97.5524L127.32 99.4405ZM120 112.028C119.15 117.692 116.013 123.636 110.915 128.951C103.529 136.783 96.7321 139.86 86.9282 139.86C70.5883 139.86 57.255 128.392 53.3334 110.979L52.9413 109.091H86.6667H120.458L120 112.028Z" fill="black"/>
<path d="M65.3596 43.007C65.3596 45.5245 63.0721 50.1399 61.1113 51.4685C60.2616 52.0979 58.3662 52.7273 56.8629 52.9371L54.2485 53.3566V56.993V60.6294L56.8629 61.0489C58.3662 61.2587 60.2616 61.8881 61.1113 62.5175C63.0721 63.8461 65.3596 68.4615 65.3596 70.979C65.3596 72.6573 65.5557 72.7273 68.9544 72.7273H72.5492V70.4196C72.5492 65.7343 77.1244 60.8392 81.5688 60.8392H83.6603V56.993C83.6603 53.3566 83.5949 53.1468 82.0263 53.1468C77.3858 53.1468 72.5492 48.1818 72.5492 43.5664V41.2587H68.9544C65.5557 41.2587 65.3596 41.3287 65.3596 43.007Z" fill="black"/>
</svg>
