<svg width="300" height="300" viewBox="0 0 300 300" fill="none" xmlns="http://www.w3.org/2000/svg">
<path d="M233.296 2.68155C231.285 4.02234 228.101 8.21228 226.257 11.7318C223.073 17.933 222.905 21.7877 222.905 67.8771V117.318H206.648C193.24 117.151 190.894 116.816 193.575 115.307C195.419 114.134 200.279 112.793 204.469 112.29L212.011 111.453L212.514 102.737L213.017 94.1899L205.81 93.0168C187.71 90 176.983 79.2737 174.469 62.1788L173.464 54.4693L164.581 53.9665C156.034 53.4637 155.866 53.4637 155.866 58.324C155.866 75.0838 142.291 90.1676 124.525 93.0168L117.318 94.1899V103.24V112.29H123.687C127.039 112.458 132.235 113.464 134.916 114.804C139.274 116.816 131.899 116.983 77.5978 117.151C42.2346 117.318 13.4078 117.989 11.0615 118.994C1.84358 122.514 0 126.201 0 141.453C0 155.196 0.167598 155.698 4.86034 159.05C7.5419 161.061 10.3911 162.57 11.3966 162.57C12.2346 162.57 14.2458 167.598 15.7542 173.799C25.3073 212.849 56.4804 245.363 92.0112 253.408C104.749 256.257 99.0503 257.765 75.5866 257.933C65.1955 258.101 53.4637 259.106 49.6089 260.112C36.2011 264.134 25.1397 279.888 25.1397 294.804V300H162.57H300V287.765C300 275.866 299.832 275.363 293.799 269.497C286.76 262.626 277.374 258.101 270.168 258.101C267.654 258.101 264.637 257.263 263.464 256.089C260.615 253.24 260.615 221.229 263.631 221.229C267.486 221.229 282.737 213.184 286.592 209.33C288.603 207.151 292.458 202.29 295.14 198.771L300 192.235V99.7207V7.2067L296.145 3.68713C292.458 0.167603 290.615 0 264.637 0C242.346 0 236.313 0.502777 233.296 2.68155ZM284.916 18.2682C285.754 20.1117 286.592 23.4637 286.592 25.8101V30.1676H263.966H241.341V25.8101C241.341 15.9218 243.017 15.0838 263.966 15.0838C281.229 15.0838 283.24 15.419 284.916 18.2682ZM286.592 108.939C286.592 144.972 285.922 172.458 284.749 177.318C281.397 193.408 266.648 204.469 248.548 204.469H243.017V229.609C243.017 258.268 244.693 264.972 253.743 271.173C256.76 273.352 262.29 275.531 265.81 276.034C273.352 277.207 280.056 280.223 283.073 283.911C285.084 286.425 274.022 286.592 164.916 286.592L44.4134 286.425L49.9441 281.564C55.3073 276.536 55.4749 276.536 76.257 276.536C90.1676 276.536 99.2179 275.698 102.737 274.19C108.101 272.011 118.994 261.117 118.994 258.101C118.994 257.095 121.508 256.425 124.525 256.425C133.911 256.425 152.682 251.564 163.24 246.704C192.235 232.961 215.866 203.966 221.732 174.469C223.073 168.268 225.084 163.24 226.425 162.737C230.615 161.061 235.475 156.872 238.492 152.514C241.006 148.827 241.341 142.793 241.341 98.5475V48.6033H263.966H286.592V108.939ZM155.196 139.944C155.866 142.29 155.866 144.637 155.531 144.972C155.028 145.475 51.4525 146.145 19.1061 145.81C15.0838 145.81 12.905 142.29 14.4134 138.268C15.2514 136.089 24.6369 135.754 84.8045 135.754H154.19L155.196 139.944ZM222.57 141.117L223.073 145.81H198.771H174.302V141.955C174.302 139.777 174.804 137.43 175.475 136.76C176.145 136.257 186.872 135.922 199.274 136.089L222.067 136.592L222.57 141.117ZM203.799 171.285C201.62 184.86 193.575 199.106 180.503 211.844C161.564 230.615 144.134 237.989 118.994 237.989C77.095 237.989 42.905 210.503 32.8492 168.771L31.8436 164.246H118.324H204.972L203.799 171.285Z" fill="black"/>
</svg>
