<svg width="200" height="200" viewBox="0 0 200 200" fill="none" xmlns="http://www.w3.org/2000/svg">
<g clip-path="url(#clip0_41_83)">
<path d="M160.547 0.273399C159.805 0.351524 157.969 0.703087 156.445 1.05465C138.32 5.2734 126.641 22.539 129.453 40.9765C129.805 43.2421 130.078 45.4296 130.078 45.8593C130.078 46.914 48.8281 128.359 46.9922 129.141C45.8984 129.609 45.3516 129.609 42.9688 129.102C39.7266 128.437 32.5781 128.32 29.6094 128.945C18.0859 131.25 8.86719 138.281 3.90625 148.555C1.28906 154.023 0.351562 158.125 0.351562 164.023C0.351562 180.742 11.2109 194.687 27.5391 198.867C32.3828 200.117 39.3359 200.117 44.2578 198.906C56.7188 195.82 66.4062 186.602 70.2344 174.141C71.4453 170.312 71.9531 164.531 71.4844 160.742C71.25 159.023 70.9766 156.484 70.8203 155.156L70.5859 152.656L111.172 112.07C133.477 89.7265 152.344 71.0937 153.047 70.625C154.336 69.8437 154.414 69.8437 158.164 70.4687C163.125 71.289 167.344 71.25 171.68 70.3515C182.227 68.164 191.133 61.4062 196.094 51.7578C198.516 46.9531 200 41.1328 200 36.1328V33.8281L190.117 43.6718C181.68 52.0703 180.078 53.5156 179.102 53.5156C177.109 53.5156 155.703 46.1718 154.805 45.1953C153.711 44.0234 146.328 21.7187 146.641 20.5468C146.758 20.039 150.859 15.625 155.742 10.7031C160.664 5.74215 165 1.32809 165.391 0.859337L166.133 -3.81651e-05L164.023 0.0780868C162.852 0.0780868 161.289 0.195274 160.547 0.273399ZM139.766 60.664L142.188 63.0859L102.93 102.344L63.6719 141.602L61.0547 138.984L58.4375 136.367L97.5 97.2656C118.945 75.7812 136.719 58.2031 136.914 58.2031C137.148 58.2031 138.438 59.2968 139.766 60.664ZM49.2969 156.836C51.6406 160.664 53.4375 164.023 53.3594 164.258C53.2422 164.453 51.3672 167.617 49.1406 171.289L45.1172 177.93L36.25 178.047L27.3828 178.125L23.2812 171.289C21.0156 167.5 19.1406 164.18 19.1406 163.906C19.1406 163.594 21.0156 160.273 23.2812 156.484L27.3828 149.609L36.2109 149.687L45.0391 149.805L49.2969 156.836Z" fill="black"/>
<path d="M6.48438 6.21088L1.48438 11.289L2.26562 12.5781C2.69531 13.2812 5.35156 17.8906 8.20312 22.8515C11.0156 27.7734 13.4766 31.9921 13.6719 32.1484C13.8281 32.3437 16.0547 33.0078 18.5938 33.6328C28.4766 36.0937 24.1797 32.6171 53.2031 61.6015L78.8672 87.2265L80.1562 86.0937C80.8594 85.4687 82.8906 83.4765 84.6875 81.6406L87.9297 78.3593L62.1484 52.539C47.9297 38.3593 36.3281 26.5624 36.2891 26.3671C36.2891 26.1328 35.5469 23.0859 34.6484 19.5703L33.0078 13.1249L22.6562 7.14838C16.9531 3.86713 12.1484 1.21088 11.9141 1.17182C11.7188 1.17182 9.25781 3.43745 6.48438 6.21088Z" fill="black"/>
<path d="M117.07 116.719L101.953 131.836L104.648 134.531L107.344 137.187L109.609 136.094C111.484 135.195 112.383 135 114.648 135C119.062 135.039 122.344 136.953 124.453 140.703C125.469 142.539 125.586 143.164 125.586 146.094C125.586 149.062 125.469 149.609 124.453 151.328L123.359 153.242L143.906 173.789L164.453 194.336L179.492 179.297C187.773 171.016 194.531 164.102 194.531 163.867C194.531 163.672 185.391 154.336 174.18 143.125L153.867 122.812L151.484 123.984C148.516 125.469 144.961 125.586 142.109 124.336C139.727 123.242 136.914 120.312 136.172 118.047C135.039 114.727 135.625 109.687 137.383 107.734C138.008 107.031 137.891 106.875 135.352 104.297C133.867 102.773 132.539 101.562 132.422 101.562C132.305 101.562 125.43 108.359 117.07 116.719ZM175.195 174.609L172.656 177.148L154.805 159.297L136.914 141.406L139.453 138.867L141.992 136.328L159.844 154.18L177.734 172.07L175.195 174.609Z" fill="black"/>
<path d="M185.039 184.141C177.578 191.602 171.484 197.852 171.484 198.047C171.484 199.141 180.391 199.609 183.789 198.672C191.016 196.758 196.836 191.172 199.102 183.945C199.961 181.25 200 174.336 199.141 172.109L198.594 170.586L185.039 184.141Z" fill="black"/>
</g>
<defs>
<clipPath id="clip0_41_83">
<rect width="200" height="200" fill="white"/>
</clipPath>
</defs>
</svg>
