<svg width="300" height="300" viewBox="0 0 300 300" fill="none" xmlns="http://www.w3.org/2000/svg">
<path d="M0.809457 1.23734C0.0749497 2.36221 -0.0474682 24.9719 0.0137408 150.562C0.0749497 248.425 0.258577 298.763 0.687039 299.156C1.05429 299.438 6.5631 299.775 13.2349 299.831L25.1706 300L25.3542 297.863C25.4767 296.682 25.1094 294.544 24.5585 293.138C24.0076 291.676 23.0283 288.02 22.4162 284.983C21.2532 279.584 21.192 276.265 21.192 162.092C21.192 68.5039 21.3144 44.7132 21.9265 44.3195C22.355 44.0945 25.2318 43.9258 28.2311 43.982L33.7399 44.1507L33.8623 151.069C33.9235 230.99 34.1071 258.324 34.658 259.224C36.127 261.755 40.6565 262.261 42.9212 260.124L44.4514 258.774V155.399C44.4514 98.5377 44.6351 50.3375 44.8187 48.2565L45.2471 44.5444L49.4706 44.3195C51.7353 44.207 53.9388 44.207 54.2449 44.3195C54.6733 44.4319 54.8569 73.2846 54.8569 125.647V206.749L56.5708 208.268C58.7743 210.236 61.7736 210.067 63.8547 207.874L65.2625 206.355V125.478V44.6007L68.9962 44.207C71.0773 44.0383 74.1378 43.8695 75.7292 43.8695C79.3405 43.8695 78.9121 41.1699 78.7284 65.5793C78.606 85.3206 78.7896 86.8391 82.1561 88.2452C83.1355 88.6389 87.8486 88.8639 95.01 88.8639H106.395L107.986 87.2891L109.639 85.7705V44.3195V2.86841L108.231 1.5748L106.823 0.281219L54.2449 0.112488L1.66638 0L0.809457 1.23734ZM98.3153 44.5444V78.1777H94.5203H90.6642V44.8257V11.5298L92.1332 11.2486C92.9901 11.0799 94.704 10.9674 95.9893 10.9111H98.3153V44.5444ZM79.3405 21.766C79.3405 22.9471 79.1569 25.9843 78.9121 28.5152L78.5448 33.1833H49.7154H20.886L21.0084 30.8211C21.0696 29.4713 21.1308 26.4342 21.1308 24.0157L21.192 19.685H50.2663H79.3405V21.766Z" fill="black"/>
<path d="M172.991 97.7503C171.828 98.2565 170.175 99.6626 169.379 100.787C168.278 102.362 167.482 102.925 166.319 102.925C165.462 102.925 164.115 103.093 163.381 103.262L161.973 103.6V117.492V131.327L164.85 131.159C167.604 130.99 167.849 131.046 168.584 132.677C170.359 136.333 176.418 138.695 182.968 138.245L185.539 138.077L185.722 117.379L185.845 96.738H180.519C176.602 96.738 174.521 97.0192 172.991 97.7503Z" fill="black"/>
<path d="M193.19 117.21V137.683L195.455 138.077C199.433 138.752 255.072 138.302 257.521 137.514C263.886 135.602 269.701 130.034 271.843 123.791C273.129 120.248 272.823 113.78 271.293 109.674C269.64 105.399 265.172 100.9 260.336 98.7065L256.052 96.738H224.651H193.19V117.21ZM240.933 117.942V125.422H223.978H206.962L207.146 117.829L207.329 110.236L224.1 110.349L240.933 110.518V117.942Z" fill="black"/>
<path d="M143.243 104.837C140.244 106.131 136.265 109.73 136.265 111.192C136.265 111.755 134.612 111.924 129.716 111.924C126.043 111.924 122.86 112.149 122.493 112.374C121.208 113.217 113.495 121.541 113.74 121.766C114.291 122.272 121.452 122.441 128.553 122.104C135.592 121.766 135.837 121.822 136.326 122.947C137.183 125.084 140.672 128.29 143.549 129.584C146.548 130.99 153.771 131.89 154.383 130.934C154.934 130.146 155.423 107.649 154.934 105.399L154.566 103.487H150.465C147.466 103.487 145.569 103.825 143.243 104.837Z" fill="black"/>
<path d="M108.844 112.486C107.926 113.104 100.152 121.372 100.152 121.71C100.152 121.878 101.621 122.047 103.458 122.047H106.824L111.109 117.379C113.496 114.848 115.455 112.654 115.455 112.486C115.455 112.092 109.334 112.092 108.844 112.486Z" fill="black"/>
<path d="M85.9515 114.623C83.9928 115.748 82.4014 116.873 82.4014 117.042C82.4014 117.548 87.7878 120.866 90.0525 121.71C92.0724 122.497 92.1948 122.497 93.8474 120.979C94.7656 120.135 97.0303 117.885 98.8054 115.973L102.049 112.486H95.7449C89.5016 112.486 89.3792 112.542 85.9515 114.623Z" fill="black"/>
<path d="M187.681 143.813C183.702 145.275 184.743 151.631 189.578 155.455C192.026 157.368 192.21 157.649 192.516 161.192L192.883 164.961L201.942 165.185C208.859 165.298 211.001 165.185 211.246 164.679C211.368 164.286 211.613 162.711 211.858 161.248C212.164 159.224 212.837 157.93 214.429 156.299C215.592 155.118 216.816 154.106 217.122 154.106C217.367 154.106 218.346 153.824 219.326 153.431C222.08 152.418 224.161 152.25 233.465 152.193L242.157 152.137V147.75V143.363L227.344 143.532L212.47 143.701L212.287 149.606L212.103 155.512L208.798 155.343L205.431 155.118V149.269V143.419L197.046 143.476C192.394 143.476 188.17 143.644 187.681 143.813Z" fill="black"/>
<path d="M219.143 159.955C216.021 162.823 216.205 165.129 219.877 168.335C222.387 170.472 222.754 171.091 223.06 173.678C223.428 177.334 222.999 178.909 220.979 181.102L219.327 182.846L221.102 184.533C222.448 185.827 222.877 186.783 223.06 189.482C223.305 192.295 223.06 193.251 221.775 195.388C220.49 197.525 220.367 198.031 221.102 198.594C222.509 199.662 223.366 203.262 222.938 206.074C222.203 210.461 218.959 213.104 213.267 214.004C211.186 214.286 210.941 214.51 210.941 215.917C210.941 217.491 211.002 217.491 215.838 217.885C218.531 218.11 229.181 218.279 239.525 218.223C249.931 218.223 258.806 218.279 259.296 218.391C262.479 219.122 280.535 224.634 281.086 225.028C281.454 225.309 281.882 225.422 282.066 225.253C282.188 225.084 284.269 225.59 286.595 226.265C288.921 226.996 292.288 227.953 294.063 228.29C295.776 228.684 297.429 229.246 297.613 229.527C297.796 229.809 298.408 230.034 298.959 230.034C299.939 230.034 300 228.346 300 208.717C300 196.963 299.816 187.233 299.633 187.064C299.449 186.839 295.838 185.827 291.675 184.758C279.128 181.608 269.518 178.909 269.028 178.459C268.845 178.178 267.62 175.872 266.335 173.228C263.703 167.829 259.418 161.586 257.337 160.236C254.277 158.268 251.89 158.043 236.526 158.043H221.224L219.143 159.955Z" fill="black"/>
<path d="M199.309 171.091C195.453 172.947 195.453 176.884 199.248 179.246C201.023 180.371 202.125 180.54 206.961 180.54C211.796 180.54 212.898 180.371 214.673 179.246C216.387 178.178 216.815 177.559 216.938 175.703C217.06 174.072 216.754 173.004 215.897 172.047C214.795 170.81 214.306 170.698 207.756 170.529C202.982 170.416 200.35 170.585 199.309 171.091Z" fill="black"/>
<path d="M199.005 187.008C198.025 187.851 197.475 189.032 197.475 190.101C197.475 191.17 198.025 192.351 199.005 193.194C200.413 194.544 200.841 194.6 207.452 194.6C213.94 194.6 214.491 194.488 215.715 193.307C217.674 191.395 217.551 188.301 215.47 186.783C214.062 185.77 212.96 185.602 207.146 185.602C200.902 185.602 200.413 185.658 199.005 187.008Z" fill="black"/>
<path d="M201.331 200.056C199.556 200.393 198.087 202.306 198.087 204.218C198.087 208.324 200.352 209.392 208.309 208.999C215.042 208.717 217.062 207.649 217.062 204.443C217.062 202.025 215.899 200.843 213.083 200.225C210.635 199.662 203.902 199.606 201.331 200.056Z" fill="black"/>
<path d="M185.354 225.084C183.885 225.703 181.987 227.165 181.069 228.234C179.478 230.146 179.417 230.54 179.233 238.526C179.049 245.276 179.172 247.188 179.967 248.706C181.987 252.643 180.824 252.531 216.815 252.587L249.195 252.643L251.521 250.731L253.785 248.763V239.933C253.785 230.259 253.479 229.078 250.113 226.49C249.072 225.647 247.236 224.747 245.951 224.41C244.543 224.072 233.219 223.847 215.836 223.903C188.904 223.903 187.925 223.96 185.354 225.084ZM237.871 239.314V241.845H217.366H196.922L196.983 239.314L197.045 236.783H217.427H237.871V239.314Z" fill="black"/>
</svg>
