<svg width="200" height="200" viewBox="0 0 200 200" fill="none" xmlns="http://www.w3.org/2000/svg">
<path d="M0.53964 0.824906C0.0499667 1.57481 -0.0316456 16.6479 0.00916056 100.375C0.0499667 165.617 0.172385 199.175 0.458028 199.438C0.702865 199.625 4.37542 199.85 8.82328 199.888L16.7805 200L16.9029 198.575C16.9845 197.788 16.7397 196.363 16.3724 195.426C16.0052 194.451 15.3523 192.013 14.9442 189.989C14.1689 186.389 14.1281 184.177 14.1281 108.061C14.1281 45.6693 14.2097 29.8088 14.6178 29.5463C14.9034 29.3963 16.8213 29.2838 18.8208 29.3213L22.4933 29.4338L22.5749 100.712C22.6158 153.993 22.7382 172.216 23.1054 172.816C24.0848 174.503 27.1044 174.841 28.6143 173.416L29.6344 172.516V103.6C29.6344 65.6918 29.7568 33.5583 29.8792 32.171L30.1649 29.6963L32.9805 29.5463C34.4903 29.4713 35.9594 29.4713 36.1634 29.5463C36.449 29.6213 36.5714 48.8564 36.5714 83.7645V137.833L37.714 138.845C39.183 140.157 41.1825 140.045 42.5699 138.583L43.5085 137.57V83.652V29.7338L45.9977 29.4713C47.3851 29.3588 49.4254 29.2464 50.4863 29.2464C52.8939 29.2464 52.6083 27.4466 52.4858 43.7195C52.4042 56.8804 52.5266 57.8928 54.771 58.8302C55.4239 59.0926 58.566 59.2426 63.3403 59.2426H70.9302L71.9912 58.1927L73.0929 57.1804V29.5463V1.91227L72.1544 1.04988L71.2159 0.187486L36.1634 0.0749999L1.11093 9.26107e-06L0.53964 0.824906ZM65.5438 29.6963V52.1185H63.0138H60.443V29.8838V7.68655L61.4224 7.49907C61.9937 7.38659 63.1362 7.31159 63.9932 7.2741H65.5438V29.6963ZM52.8939 14.5107C52.8939 15.2981 52.7715 17.3228 52.6083 19.0101L52.3634 22.1222H33.1437H13.924L14.0057 20.5474C14.0465 19.6476 14.0873 17.6228 14.0873 16.0105L14.1281 13.1234H33.511H52.8939V14.5107Z" fill="black"/>
<path d="M115.328 65.1669C114.552 65.5043 113.451 66.4417 112.92 67.1916C112.186 68.2415 111.655 68.6165 110.88 68.6165C110.309 68.6165 109.411 68.7289 108.921 68.8414L107.983 69.0664V78.3277V87.5516L109.901 87.4391C111.737 87.3266 111.9 87.3641 112.39 88.4515C113.573 90.8887 117.613 92.4635 121.979 92.1635L123.693 92.051L123.815 78.2528L123.897 64.492H120.347C117.735 64.492 116.348 64.6794 115.328 65.1669Z" fill="black"/>
<path d="M128.794 78.1403V91.7886L130.304 92.0511C132.956 92.501 170.049 92.2011 171.681 91.6761C175.925 90.4013 179.801 86.6892 181.23 82.5273C182.086 80.1651 181.882 75.8531 180.862 73.1159C179.761 70.2663 176.782 67.2667 173.558 65.8044L170.702 64.492H149.768H128.794V78.1403ZM160.622 78.6278V83.6146H149.319H137.975L138.097 78.5528L138.22 73.4909L149.401 73.5659L160.622 73.6784V78.6278Z" fill="black"/>
<path d="M95.4956 69.8913C93.4961 70.7537 90.8437 73.1534 90.8437 74.1283C90.8437 74.5033 89.7419 74.6158 86.4774 74.6158C84.0291 74.6158 81.9072 74.7657 81.6623 74.9157C80.8054 75.4782 75.6638 81.0275 75.827 81.1774C76.1943 81.5149 80.9686 81.6274 85.7021 81.4024C90.3948 81.1774 90.5581 81.2149 90.8845 81.9648C91.4558 83.3897 93.7817 85.5269 95.6996 86.3893C97.6991 87.3267 102.514 87.9266 102.922 87.2892C103.29 86.7642 103.616 71.7661 103.29 70.2663L103.045 68.9915H100.311C98.3112 68.9915 97.0462 69.2164 95.4956 69.8913Z" fill="black"/>
<path d="M72.563 74.9905C71.9509 75.4029 66.7686 80.9147 66.7686 81.1397C66.7686 81.2522 67.7479 81.3647 68.9721 81.3647H71.2164L74.0729 78.2526C75.6643 76.5653 76.9701 75.103 76.9701 74.9905C76.9701 74.728 72.8895 74.728 72.563 74.9905Z" fill="black"/>
<path d="M57.3016 76.4155C55.9958 77.1654 54.9348 77.9153 54.9348 78.0278C54.9348 78.3653 58.5258 80.5775 60.0356 81.1399C61.3822 81.6648 61.4638 81.6648 62.5656 80.6525C63.1777 80.09 64.6875 78.5902 65.8709 77.3154L68.0336 74.9907H63.8305C59.6683 74.9907 59.5867 75.0282 57.3016 76.4155Z" fill="black"/>
<path d="M125.121 95.8754C122.468 96.8503 123.162 101.087 126.386 103.637C128.018 104.912 128.14 105.099 128.344 107.461L128.589 109.974L134.629 110.124C139.24 110.199 140.668 110.124 140.831 109.786C140.913 109.524 141.076 108.474 141.239 107.499C141.443 106.149 141.892 105.287 142.953 104.199C143.728 103.412 144.545 102.737 144.749 102.737C144.912 102.737 145.565 102.55 146.218 102.287C148.054 101.612 149.441 101.5 155.644 101.462L161.438 101.425V98.5001V95.5755L151.563 95.688L141.647 95.8005L141.525 99.7375L141.402 103.674L139.199 103.562L136.955 103.412V99.5125V95.613L131.364 95.6505C128.263 95.6505 125.447 95.763 125.121 95.8754Z" fill="black"/>
<path d="M146.096 106.637C144.015 108.549 144.137 110.086 146.585 112.223C148.258 113.648 148.503 114.061 148.707 115.785C148.952 118.223 148.666 119.272 147.32 120.735L146.218 121.897L147.402 123.022C148.299 123.884 148.585 124.522 148.707 126.322C148.871 128.196 148.707 128.834 147.85 130.259C146.993 131.683 146.912 132.021 147.402 132.396C148.34 133.108 148.911 135.508 148.626 137.383C148.136 140.307 145.973 142.07 142.178 142.67C140.791 142.857 140.628 143.007 140.628 143.944C140.628 144.994 140.668 144.994 143.892 145.257C145.688 145.407 152.788 145.519 159.684 145.482C166.621 145.482 172.538 145.519 172.865 145.594C174.986 146.082 187.024 149.756 187.392 150.019C187.636 150.206 187.922 150.281 188.044 150.169C188.126 150.056 189.513 150.394 191.064 150.844C192.615 151.331 194.859 151.968 196.042 152.193C197.185 152.456 198.287 152.831 198.409 153.018C198.532 153.206 198.94 153.356 199.307 153.356C199.96 153.356 200.001 152.231 200.001 139.145C200.001 131.308 199.878 124.822 199.756 124.709C199.633 124.559 197.226 123.884 194.451 123.172C186.086 121.072 179.679 119.272 179.353 118.972C179.23 118.785 178.414 117.248 177.557 115.485C175.803 111.886 172.946 107.724 171.559 106.824C169.518 105.512 167.927 105.362 157.685 105.362H147.483L146.096 106.637Z" fill="black"/>
<path d="M132.874 114.061C130.303 115.298 130.303 117.923 132.833 119.498C134.016 120.248 134.751 120.36 137.974 120.36C141.198 120.36 141.933 120.248 143.116 119.498C144.259 118.785 144.544 118.373 144.626 117.135C144.707 116.048 144.503 115.336 143.932 114.698C143.198 113.873 142.871 113.798 138.505 113.686C135.322 113.611 133.567 113.723 132.874 114.061Z" fill="black"/>
<path d="M132.67 124.672C132.017 125.234 131.65 126.022 131.65 126.734C131.65 127.446 132.017 128.234 132.67 128.796C133.609 129.696 133.894 129.734 138.302 129.734C142.627 129.734 142.994 129.659 143.81 128.871C145.116 127.596 145.035 125.534 143.647 124.522C142.709 123.847 141.974 123.734 138.098 123.734C133.935 123.734 133.609 123.772 132.67 124.672Z" fill="black"/>
<path d="M134.221 133.371C133.038 133.596 132.058 134.87 132.058 136.145C132.058 138.882 133.568 139.595 138.873 139.332C143.362 139.145 144.708 138.433 144.708 136.295C144.708 134.683 143.933 133.896 142.056 133.483C140.424 133.108 135.935 133.071 134.221 133.371Z" fill="black"/>
<path d="M123.57 150.056C122.591 150.469 121.326 151.444 120.713 152.156C119.652 153.431 119.612 153.693 119.489 159.018C119.367 163.517 119.448 164.792 119.979 165.804C121.326 168.429 120.55 168.354 144.544 168.391L166.131 168.429L167.681 167.154L169.191 165.842V159.955C169.191 153.506 168.987 152.718 166.743 150.994C166.049 150.431 164.825 149.831 163.968 149.606C163.029 149.381 155.48 149.231 143.891 149.269C125.937 149.269 125.284 149.306 123.57 150.056ZM158.582 159.543V161.23H144.911H131.282L131.323 159.543L131.364 157.855H144.952H158.582V159.543Z" fill="black"/>
</svg>
