<svg width="300" height="300" viewBox="0 0 300 300" fill="none" xmlns="http://www.w3.org/2000/svg">
<path d="M187.912 2.51518C187.013 3.89607 185.214 10.0115 183.716 15.9296C182.217 21.8477 179.82 31.514 178.172 37.0376L175.324 47.493H89.4612C24.8764 47.493 3.29823 48.0848 1.94959 49.8602C-0.747683 53.4111 -0.597834 136.857 2.09944 139.816C3.89762 141.986 9.44202 143.761 43.6075 153.033C53.048 155.598 81.0697 163.094 105.645 169.998C136.813 178.481 151.199 181.637 152.697 180.256C154.046 179.27 164.086 142.972 175.474 97.5998L196.004 16.916L226.573 15.7323C243.356 15.1405 257.292 14.5487 257.591 14.3514C258.64 13.1678 257.591 4.48788 256.093 2.51518C253.545 -0.838425 189.86 -0.838425 187.912 2.51518ZM148.202 73.5328C150.899 77.0836 150.3 82.6072 147.153 84.9745C143.107 87.7363 31.0202 87.7363 26.9743 84.9745C23.8275 82.6072 23.2281 77.0836 25.9254 73.5328C28.4728 70.1792 145.654 70.1792 148.202 73.5328ZM142.508 114.368C144.456 119.3 144.456 119.694 141.608 123.245C139.66 126.007 133.816 126.401 101.449 126.401C62.6383 126.401 60.0908 126.007 60.0908 118.511C60.0908 111.014 62.6383 110.62 102.348 110.62C138.911 110.62 141.009 110.817 142.508 114.368Z" fill="black"/>
<path d="M199.75 57.7511C198.401 59.5266 197.952 71.9546 197.952 101.151V142.183H229.42H260.888L262.686 147.115C263.885 150.863 263.885 152.639 262.386 155.006C260.738 157.57 254.145 157.965 216.683 157.965H172.777L169.48 171.182C165.584 186.766 161.988 192.685 154.645 195.644C150 197.419 142.807 195.841 105.795 185.78C81.9687 179.073 61.889 173.747 61.2896 173.747C60.5404 173.747 60.0908 177.495 60.0908 182.229C60.0908 189.923 59.4914 191.106 53.0479 197.419C39.2619 210.833 33.2679 236.479 38.3628 259.559C43.1579 281.259 61.7391 300 78.8219 300C99.2013 300 116.434 282.443 122.428 255.022L124.676 244.764H155.245H185.664L186.713 252.063C188.361 263.505 194.355 277.314 201.098 284.81C210.988 296.055 216.683 298.816 230.169 299.014C244.554 299.014 250.848 295.66 261.188 282.048C266.732 274.749 268.83 270.015 271.377 258.77L274.674 244.764H285.463C291.907 244.764 297.001 243.778 298.05 242.397C300.748 238.846 300.598 108.055 297.901 105.096C296.702 103.715 287.561 102.532 275.873 102.334L255.943 101.743L250.548 81.0291C247.551 69.5874 244.554 59.132 243.955 57.7511C242.307 54.3975 202.297 54.3975 199.75 57.7511ZM239.46 85.7636C241.258 93.4572 242.906 100.362 242.906 101.151C242.906 101.94 235.564 102.729 226.423 102.729H209.939V86.9472V70.9683L222.976 71.5601L235.863 72.1519L239.46 85.7636ZM98.6019 208.466C107.143 217.541 111.039 227.799 111.039 241.213C111.039 255.022 109.241 261.532 103.097 270.212C92.9077 284.218 79.8708 287.572 66.834 279.484C57.9929 274.157 55.2957 270.409 51.2497 258.573C44.8063 240.03 49.7513 218.724 62.7881 207.283C69.3814 201.364 70.5802 201.167 81.3693 201.759C91.559 202.351 93.3572 202.943 98.6019 208.466ZM247.102 206.888C255.493 214.779 259.839 224.248 260.588 235.887C261.637 251.669 259.839 259.757 253.695 268.831C243.206 284.218 230.169 287.966 216.683 279.484C207.842 274.157 205.144 270.409 201.098 258.573C194.655 240.03 199.6 218.724 212.637 207.283C219.23 201.562 220.429 201.167 230.918 201.759C239.759 202.154 243.206 203.337 247.102 206.888Z" fill="black"/>
<path d="M75.8254 222.472C74.1771 223.064 71.0303 225.826 68.7825 228.588C63.9874 234.506 63.2381 243.58 66.8345 252.655C69.6816 259.954 73.278 262.518 80.7704 262.518C96.9541 262.518 101.15 232.139 86.3148 223.853C80.9203 220.894 80.7704 220.894 75.8254 222.472Z" fill="black"/>
<path d="M224.025 223.853C215.034 228.982 212.037 240.819 216.683 252.655C219.53 259.954 223.126 262.518 230.618 262.518C246.802 262.518 250.998 232.139 236.163 223.853C230.019 220.5 229.869 220.5 224.025 223.853Z" fill="black"/>
</svg>
