<svg width="300" height="300" viewBox="0 0 300 300" fill="none" xmlns="http://www.w3.org/2000/svg">
<path d="M51.009 0.3358C48.7499 0.80265 47.5609 1.64299 46.2529 3.69714C45.0243 5.65793 29.7256 41.2322 29.7256 42.1192C29.7256 42.7261 31.7073 42.8195 43.7956 42.8195H57.8657L57.945 57.1519L58.0639 71.531L60.8382 71.671C62.3443 71.7644 64.009 71.671 64.4846 71.531L65.3961 71.2976L65.4754 57.1519L65.5943 43.0529L79.5851 42.9128C91.9905 42.8195 93.5363 42.7261 93.5363 42.0725C93.5363 41.6523 92.1491 38.1509 90.4052 34.2761C88.7009 30.3545 85.015 21.9044 82.2406 15.5085C79.4662 9.06596 76.89 3.46371 76.5333 2.95018C76.1766 2.48332 75.1857 1.64299 74.3138 1.08276C72.8077 0.149055 72.1339 0.102371 62.8199 0.00900269C57.3901 -0.0376816 52.0395 0.102371 51.009 0.3358Z" fill="black"/>
<path d="M121.399 15.275C117.753 16.162 114.899 18.8698 113.274 22.9781C112.442 25.1256 112.362 26.0593 112.243 35.2096L112.125 45.1536H113.75C115.057 45.1536 115.652 45.4337 116.564 46.5075C117.99 48.1882 118.03 49.9155 116.722 51.4561C115.81 52.5766 115.573 52.6233 110.42 52.6233C104.277 52.6233 102.256 53.2302 99.6398 55.7045C97.46 57.852 96.0728 61.5402 95.7161 66.3488C95.5575 68.3562 95.5575 74.7055 95.7161 80.4478L96.0331 90.9053H112.6H129.207V81.8016V72.698H115.771H102.295L101.503 71.4842C101.027 70.7839 100.67 69.6634 100.67 68.9632C100.67 68.2629 101.027 67.1424 101.503 66.4421L102.295 65.2283H115.731H129.167L129.405 62.5206C129.92 56.3114 131.862 51.8763 135.35 48.7951C138.402 46.0873 140.146 45.5271 146.368 45.2937L151.798 45.0602V33.2955C151.798 22.8847 151.679 21.3441 151.045 19.7101C150.173 17.4692 148.905 16.0686 147.082 15.3217C145.496 14.7148 124.054 14.6681 121.399 15.275Z" fill="black"/>
<path d="M158.258 17.8427C158.417 19.0565 158.536 36.0033 158.536 55.4711V90.9053H161.508H164.521L164.402 57.3852L164.283 23.9118L163.133 21.4374C162.46 20.0369 161.31 18.3562 160.557 17.6559C158.021 15.3217 157.981 15.3217 158.258 17.8427Z" fill="black"/>
<path d="M143.672 52.95C139.868 53.9304 137.529 56.1713 136.538 59.6261C136.182 60.8866 135.944 62.6139 136.023 63.4543L136.142 64.9949H143.871H151.599L151.718 59.2059C151.797 54.8641 151.678 53.3235 151.322 52.9967C150.807 52.6233 145.099 52.5766 143.672 52.95Z" fill="black"/>
<path d="M135.945 81.8016V90.9053H143.872H151.798V81.8016V72.698H143.872H135.945V81.8016Z" fill="black"/>
<path d="M51.1677 79.3272C48.1555 80.3076 44.7866 84.0424 43.4391 87.8239C42.2501 91.1386 40.8232 90.9051 61.6311 90.9051C74.0365 90.9051 80.4572 90.7651 80.4572 90.4383C80.4572 89.0844 78.4755 85.2562 76.692 83.1554C73.3231 79.1871 71.8566 78.7669 61.314 78.8136C56.4787 78.8136 51.9207 79.0471 51.1677 79.3272Z" fill="black"/>
<path d="M24.3753 99.7288C22.4729 100.756 21.6406 101.783 20.8082 104.117C20.293 105.564 20.2137 110.046 20.2137 137.591C20.2137 172.044 20.1345 170.597 22.354 173.445C23.8204 175.406 24.6527 175.639 30.3204 175.873L35.8691 176.106L36.4637 182.269C36.8204 185.677 37.2563 188.664 37.4941 188.945C37.7716 189.271 39.7136 189.411 42.6466 189.318L47.363 189.178L48.7502 182.642L50.1374 176.106L72.808 175.966L95.4786 175.873L95.5183 137.357V98.8418H60.7593C27.8235 98.8418 25.8814 98.8885 24.3753 99.7288ZM70.6678 109.533C72.9269 109.626 73.7988 114.295 71.8964 116.069C70.8659 117.002 70.43 117.049 54.3386 117.049H37.8508V137.264V157.432L54.616 157.665L71.3812 157.899L72.1342 159.066C73.1251 160.56 73.1251 162.847 72.1739 164.248L71.4208 165.368H52.5154H33.61L32.4606 163.828L31.2716 162.287L31.3905 137.124L31.5094 111.96L32.421 110.887C33.0551 110.093 33.9271 109.766 35.5917 109.579C37.296 109.393 66.3873 109.393 70.6678 109.533ZM77.0488 130.074C78.436 131.615 78.436 133.949 77.0885 135.49L76.1372 136.657H64.0093H51.8813L50.93 135.49C49.2258 133.529 49.8996 129.981 52.0794 129.234C52.7532 128.954 58.4209 128.814 64.683 128.86L76.0183 128.954L77.0488 130.074Z" fill="black"/>
<path d="M102.256 137.357V175.873L123.539 175.966L144.862 176.106L145.814 180.308C146.329 182.595 147.003 185.63 147.28 186.937L147.875 189.411H152.987H158.1L158.298 187.871C158.417 187.077 158.655 184.043 158.814 181.241L159.131 176.106L164.878 175.873C170.783 175.639 171.536 175.406 173.082 173.445C175.222 170.784 175.182 171.391 175.182 137.731C175.182 117.703 175.024 105.938 174.786 104.817C174.231 102.577 172.606 100.289 170.942 99.4954C169.911 98.9351 163.53 98.8418 135.945 98.8418H102.256V137.357ZM162.381 110.653L163.49 111.914L163.609 136.657C163.728 164.762 163.768 164.248 160.954 165.135C159.884 165.462 153.582 165.602 141.929 165.508C124.728 165.368 124.451 165.368 123.619 164.388C122.35 162.847 122.43 160.186 123.817 158.786L124.887 157.665H140.939H156.951V137.357V117.049H140.701H124.411L123.46 115.882C122.311 114.575 122.152 112.194 123.103 110.747C123.658 109.86 124.292 109.813 135.469 109.533C141.929 109.393 150.411 109.299 154.256 109.299L161.31 109.346L162.381 110.653ZM144.149 130.308C144.942 131.428 145.1 131.988 144.902 133.342C144.466 136.564 144.268 136.657 131.545 136.657C120.646 136.657 120.17 136.61 119.14 135.677C118.347 134.93 118.109 134.323 118.109 132.969C118.109 130.821 118.744 129.747 120.289 129.187C120.963 128.954 126.353 128.814 132.298 128.86L143.158 128.954L144.149 130.308Z" fill="black"/>
<path d="M198.764 99.1219C196.347 99.4487 193.176 100.382 192.066 101.036C189.767 102.437 186.755 106.311 185.804 109.066L184.892 111.68L184.694 167.703L184.496 223.725L98.6886 223.959C19.817 224.192 12.7621 224.239 11.256 224.986C4.28047 228.254 0 235.77 0 244.687C0 250.989 1.82316 256.031 5.58839 260.093C10.1067 265.042 12.3262 265.555 27.4663 265.509C33.6096 265.462 39.0395 265.462 39.4754 265.462C40.1888 265.509 40.3474 265.882 40.5852 268.076C41.4968 277.413 46.7681 287.124 53.7833 292.446C58.6583 296.134 66.5851 298.608 71.5393 297.955C80.5362 296.834 88.1856 291.839 93.2191 283.809C95.5971 280.074 97.7373 274.239 98.53 269.57L99.2038 265.509H153.225H207.246L207.484 267.236C208.911 278.067 214.142 287.497 221.633 292.866C227.063 296.741 234.554 298.702 240.182 297.768C249.615 296.134 256.63 290.999 261.505 282.175C263.883 277.88 265.032 274.565 265.865 269.43L266.499 265.602L277.2 265.415C287.108 265.228 288.099 265.135 290.16 264.155C294.797 262.054 297.849 258.272 299.236 252.857C300.029 249.916 300.069 248.889 299.95 217.609L299.831 185.443L298.761 181.475C295.907 170.737 291.904 163.688 276.843 142.726C273.791 138.478 267.529 129.654 262.932 123.118C258.334 116.582 253.301 109.813 251.795 108.132C246.761 102.53 241.767 100.056 233.959 99.3086C229.679 98.8885 201.578 98.7484 198.764 99.1219ZM236.417 118.916C237.13 119.43 241.807 125.499 246.84 132.362C251.834 139.225 258.374 148.095 261.346 152.063C269.154 162.427 270.304 164.295 270.304 166.769C270.304 168.076 270.026 169.15 269.471 169.99C267.648 172.698 269.075 172.605 236.139 172.605C206.85 172.605 205.859 172.558 204.63 171.671C201.895 169.757 201.935 170.037 201.816 146.554C201.697 124.799 201.816 122.931 203.322 120.691C205.066 118.076 205.462 117.983 220.92 117.983C234.514 117.983 235.188 118.029 236.417 118.916ZM223.179 193.426C224.487 195.107 224.487 198.001 223.139 199.262C222.228 200.056 221.395 200.149 213.786 200.149C205.938 200.149 205.383 200.102 204.59 199.215C203.283 197.768 203.362 194.453 204.749 193.193C205.74 192.259 206.295 192.213 214.023 192.213H222.228L223.179 193.426ZM285.246 200.616C287.584 201.83 289.962 204.864 290.755 207.712C291.547 210.56 291.349 215.508 290.358 217.749C286.871 225.733 277.358 227.04 272.166 220.224C266.697 213.034 269.987 201.83 278.23 199.635C280.133 199.122 283.224 199.589 285.246 200.616ZM76.3746 231.195C86.3624 233.949 95.1215 243.94 97.341 255.051C98.4111 260.467 97.341 263.174 94.091 263.174C92.8624 263.174 92.1886 262.894 91.3959 261.96L90.3654 260.7V263.734C90.3654 277.413 79.8228 288.945 68.3686 287.731C57.4296 286.564 49.6217 277.273 48.8687 264.481C48.6309 261.073 48.5912 260.933 47.9967 261.867C47.5608 262.474 46.6888 262.894 45.4998 263.034C43.9144 263.268 43.5181 263.128 42.6461 262.1C40.0699 259.066 42.2894 249.589 47.1644 242.633C50.9693 237.264 56.3595 233.249 62.0668 231.428C65.5546 230.354 72.8868 230.214 76.3746 231.195ZM247.157 232.315C253.816 235.35 259.365 240.999 262.258 247.581C266.38 256.965 266.102 263.174 261.584 263.174C260.435 263.174 259.721 262.894 259.048 262.1L258.136 261.027L257.898 264.528C256.63 286.003 235.188 295.621 222.307 280.495C218.343 275.826 216.481 270.831 216.283 264.295L216.203 261.447L215.252 262.287C213.944 263.501 211.13 263.501 210.1 262.287C208.276 260.14 208.673 255.051 211.13 249.262C214.895 240.252 221.316 234.043 229.6 231.382C231.978 230.635 233.444 230.494 238.2 230.635C243.551 230.821 244.185 230.915 247.157 232.315Z" fill="black"/>
<path d="M212.121 126.48C211.843 126.806 211.645 127.413 211.645 127.833C211.645 128.534 220.682 140.625 225.953 147.021C227.578 148.982 228.608 149.215 229.678 147.861C230.352 147.021 230.352 146.928 229.639 145.574C229.203 144.827 225.636 140.112 221.633 135.07C214.3 125.873 213.389 124.986 212.121 126.48Z" fill="black"/>
<path d="M208.713 141.139C208.594 141.559 208.475 142.166 208.475 142.539C208.475 143.52 214.896 151.596 215.926 151.876C216.957 152.203 217.987 151.363 217.987 150.242C217.987 149.496 213.35 142.96 211.567 141.186C210.576 140.205 209.03 140.158 208.713 141.139Z" fill="black"/>
<path d="M66.823 243.193C60.3627 244.173 54.6157 250.196 52.9511 257.805C50.3749 269.29 57.0334 281.382 66.9023 283.202C73.2833 284.369 80.3382 280.775 83.8656 274.519C89.2558 264.995 87.076 252.25 78.9906 245.947C75.9785 243.566 71.3016 242.539 66.823 243.193ZM72.134 257.012C75.265 258.833 76.3748 263.921 74.2742 266.909C71.4998 270.784 67.0212 270.551 64.6828 266.442C62.8992 263.361 64.0486 258.786 67.0212 257.012C67.7742 256.545 68.9236 256.171 69.5578 256.171C70.2315 256.171 71.3809 256.545 72.134 257.012Z" fill="black"/>
<path d="M234.237 243.146C225.795 244.874 219.889 253.23 219.929 263.361C219.969 268.31 221.039 272.045 223.456 275.546C227.063 280.775 231.462 283.342 236.972 283.389C247.712 283.482 255.758 272.511 254.133 260.14C252.627 248.749 243.789 241.232 234.237 243.146ZM239.151 256.825C242.084 258.272 243.471 261.587 242.6 265.042C240.895 271.811 232.136 270.737 231.542 263.735C231.145 258.459 235.109 254.818 239.151 256.825Z" fill="black"/>
<path d="M87.4321 197.255C25.5635 197.301 2.49654 197.488 2.1002 197.862C1.70386 198.282 1.58496 200.009 1.58496 204.818C1.58496 210.42 1.66423 211.307 2.29837 211.96C2.97215 212.707 9.51175 212.754 88.3041 212.754C165.273 212.754 173.596 212.661 174.151 212.007C174.666 211.447 174.785 210.093 174.785 204.864C174.785 198.142 174.666 197.675 173.002 197.301C172.566 197.208 134.042 197.161 87.4321 197.255Z" fill="black"/>
<path d="M8.1243 292.819C6.73711 294.407 6.77675 297.161 8.16394 298.702L9.19442 299.822H23.9383C37.1364 299.822 38.801 299.729 39.7126 299.029C40.9809 298.048 41.4168 296.134 40.7827 294.36C39.8711 291.699 39.4748 291.652 23.5815 291.652H9.07552L8.1243 292.819Z" fill="black"/>
<path d="M100.512 293.1C99.283 294.78 99.2038 296.041 100.234 298.048C100.868 299.215 101.384 299.589 102.731 299.822C103.682 299.962 127.066 300.056 154.691 299.962L204.987 299.822L206.176 298.235C207.127 296.975 207.325 296.414 207.127 295.201C207.008 294.407 206.453 293.286 205.859 292.679L204.868 291.652H153.185H101.542L100.512 293.1Z" fill="black"/>
<path d="M266.935 292.819C265.627 294.313 265.627 296.741 266.896 298.515L267.847 299.822H280.926H294.005L294.996 298.749C295.551 298.142 296.106 297.115 296.225 296.508C296.542 295.154 295.591 292.819 294.52 292.119C294.005 291.839 288.932 291.652 280.807 291.652H267.886L266.935 292.819Z" fill="black"/>
</svg>
