<svg width="200" height="200" viewBox="0 0 200 200" fill="none" xmlns="http://www.w3.org/2000/svg">
<path d="M110.485 38.1818C110.121 38.7604 109.394 41.3223 108.788 43.8017C108.182 46.281 107.212 50.3306 106.546 52.6447L105.394 57.0248H70.6668C44.5456 57.0248 35.8183 57.2728 35.2729 58.0166C34.182 59.5042 34.2426 94.4628 35.3335 95.7025C36.0608 96.6116 38.3032 97.3554 52.1214 101.24C55.9396 102.314 67.2729 105.455 77.2123 108.347C89.8183 111.901 95.6365 113.223 96.2426 112.645C96.788 112.231 100.849 97.0248 105.455 78.0166L113.758 44.2149L126.121 43.719C132.909 43.4711 138.546 43.2232 138.667 43.1405C139.091 42.6447 138.667 39.0083 138.061 38.1818C137.03 36.7769 111.273 36.7769 110.485 38.1818ZM94.4244 67.9339C95.5153 69.4215 95.2729 71.7356 94.0002 72.7273C92.3638 73.8843 47.0305 73.8843 45.3941 72.7273C44.1214 71.7356 43.8789 69.4215 44.9699 67.9339C46.0002 66.529 93.3941 66.529 94.4244 67.9339ZM92.1214 85.0414C92.9093 87.1075 92.9093 87.2728 91.7577 88.7604C90.9699 89.9174 88.6062 90.0827 75.5153 90.0827C59.8183 90.0827 58.788 89.9174 58.788 86.7769C58.788 83.6364 59.8183 83.4711 75.8789 83.4711C90.6668 83.4711 91.5153 83.5537 92.1214 85.0414Z" fill="black"/>
<path d="M115.273 61.3223C114.727 62.0661 114.546 67.2727 114.546 79.5041V96.6942H127.273H140L140.727 98.7603C141.212 100.331 141.212 101.074 140.606 102.066C139.939 103.141 137.273 103.306 122.121 103.306H104.364L103.03 108.843C101.455 115.372 100 117.851 97.0304 119.091C95.1516 119.835 92.2425 119.174 77.2728 114.959C67.6364 112.149 59.5152 109.917 59.2728 109.917C58.9698 109.917 58.788 111.488 58.788 113.471C58.788 116.694 58.5455 117.19 55.9395 119.835C50.3637 125.455 47.9395 136.198 50.0001 145.868C51.9395 154.959 59.4546 162.81 66.3637 162.81C74.6061 162.81 81.5758 155.455 84.0001 143.967L84.9092 139.669H97.2728H109.576L110 142.727C110.667 147.521 113.091 153.306 115.818 156.446C119.818 161.157 122.121 162.314 127.576 162.397C133.394 162.397 135.939 160.992 140.121 155.289C142.364 152.231 143.212 150.248 144.243 145.537L145.576 139.669H149.939C152.546 139.669 154.606 139.256 155.03 138.678C156.121 137.19 156.061 82.3967 154.97 81.157C154.485 80.5785 150.788 80.0827 146.061 80L138 79.7521L135.818 71.0744C134.606 66.281 133.394 61.9008 133.152 61.3223C132.485 59.9174 116.303 59.9174 115.273 61.3223ZM131.333 73.0579C132.061 76.281 132.727 79.1736 132.727 79.5041C132.727 79.8347 129.758 80.1653 126.061 80.1653H119.394V73.5537V66.8595L124.667 67.1075L129.879 67.3554L131.333 73.0579ZM74.3637 124.463C77.8183 128.264 79.394 132.562 79.394 138.182C79.394 143.967 78.6667 146.694 76.1819 150.331C72.0607 156.198 66.788 157.603 61.5152 154.215C57.9395 151.983 56.8486 150.413 55.2122 145.455C52.6061 137.686 54.6061 128.76 59.8789 123.967C62.5455 121.488 63.0304 121.405 67.394 121.653C71.5152 121.901 72.2425 122.149 74.3637 124.463ZM134.424 123.802C137.818 127.107 139.576 131.074 139.879 135.95C140.303 142.562 139.576 145.95 137.091 149.752C132.849 156.198 127.576 157.769 122.121 154.215C118.546 151.983 117.455 150.413 115.818 145.455C113.212 137.686 115.212 128.76 120.485 123.967C123.152 121.57 123.636 121.405 127.879 121.653C131.455 121.818 132.849 122.314 134.424 123.802Z" fill="black"/>
<path d="M65.1515 130.331C64.4848 130.579 63.2121 131.736 62.303 132.893C60.3636 135.372 60.0606 139.174 61.5151 142.975C62.6666 146.033 64.1212 147.107 67.1515 147.107C73.6969 147.107 75.3939 134.38 69.3939 130.909C67.2121 129.669 67.1515 129.669 65.1515 130.331Z" fill="black"/>
<path d="M125.091 130.909C121.455 133.058 120.243 138.017 122.121 142.975C123.273 146.033 124.727 147.107 127.758 147.107C134.303 147.107 136 134.38 130 130.909C127.515 129.504 127.455 129.504 125.091 130.909Z" fill="black"/>
</svg>
