<svg width="200" height="200" viewBox="0 0 200 200" fill="none" xmlns="http://www.w3.org/2000/svg">
<path d="M1.40926 1.02117C-0.81881 2.93589 -0.310653 7.65885 2.26922 9.63739C3.63733 10.6586 13.605 16.4027 18.9993 19.211L21.8528 20.7427L22.7518 24.8913C23.26 27.1889 24.2763 31.146 25.0972 33.6352C26.5044 38.2943 26.5044 38.2943 25.6053 38.2943C23.8854 38.2943 20.5238 41.677 19.2729 44.549L18.1003 47.3573L17.983 59.2285L17.8657 71.0997L15.3249 75.2483C9.38341 85.0772 4.22367 101.863 4.22367 111.5C4.22367 114.5 5.20089 116.159 6.9599 116.159C8.67981 116.159 9.26615 114.819 10.4779 108.181C11.0642 104.671 11.9633 100.395 12.3933 98.7355C13.7223 93.6934 16.654 86.8004 19.5856 81.8221L22.3219 77.2268H31.6641H41.0064L43.3126 80.801C47.8861 87.8854 51.4822 98.161 53.124 108.82C54.2185 115.968 54.3357 128.158 53.3585 134.796C51.6777 146.22 48.3942 155.794 43.4299 163.836C40.5373 168.559 35.1821 174.367 32.6804 175.643C31.3514 176.281 31.0387 176.154 28.2634 173.665C19.0775 165.623 12.4714 151.518 10.2434 135.307C9.53977 130.264 8.83617 128.541 7.27261 127.903C6.41265 127.584 5.94358 127.903 4.96636 129.499C3.87187 131.286 3.79369 131.732 4.02822 134.222C4.4582 138.753 6.92081 150.05 8.40619 154.454C12.706 167.218 20.1329 178.515 27.8334 184.068C30.9605 186.302 32.7586 186.238 36.1594 183.557C44.9153 176.728 51.4822 166.133 55.6257 152.22C59.1828 140.349 60.5509 128.158 59.73 115.649C58.7137 100.14 55.1175 87.3748 48.5115 75.9503L45.5798 70.8444L45.658 60.3135C45.6971 51.2505 45.5798 49.3996 44.9544 47.0382C43.7035 42.5067 40.1855 38.2943 37.5666 38.2943C36.863 38.2943 36.9021 38.1666 38.4265 33.1884C39.951 28.2101 39.951 28.2101 43.7817 29.6781C54.1403 33.5713 71.5349 37.2093 86.506 38.6134L90.8448 39.0602L92.682 45.5064C94.5974 52.1441 94.5974 52.9099 92.7602 52.9738C91.353 53.0376 88.8513 55.8458 87.6396 58.8456C86.1151 62.5473 85.8415 65.4832 85.9587 76.6524L86.076 85.3963L84.3561 88.2045C78.4536 97.8419 74.7793 108.245 72.7857 121.265C72.1994 125.031 72.043 128.35 72.043 136.902C72.043 146.667 72.1603 148.39 73.0984 153.815C74.3884 161.347 76.6165 169.452 77.6328 170.346C79.7045 172.133 82.0107 170.154 82.0107 166.58C82.0107 165.495 81.5808 163.261 81.0726 161.602C77.281 149.22 76.6165 132.626 79.3527 118.712C81.0726 110.032 83.8088 102.756 87.9523 95.8634L90.3367 91.9063H99.9917H109.647L112.031 95.8634C118.911 107.288 122.272 120.627 122.272 136.647C122.272 154.517 117.504 170.856 109.217 181.643C105.816 186.046 101.36 190.195 99.9917 190.195C98.7017 190.195 94.2456 186.11 91.1967 182.153C88.1477 178.26 87.0532 177.558 85.7242 178.707C84.4343 179.856 83.887 182.089 84.3952 184.451C84.9424 187.004 90.2976 193.514 94.8319 197.216C99.3662 200.917 100.656 200.917 105.073 197.279C116.135 188.153 123.758 172.835 127.041 153.177C127.823 148.454 127.94 146.284 127.94 136.583C127.94 124.584 127.549 120.882 125.165 111.053C123.211 103.012 119.106 93.3104 115.275 87.6939L113.907 85.6516L114.025 75.8227C114.142 64.7812 113.829 62.1006 112.109 58.2073C110.976 55.5906 108.474 52.9738 107.145 52.9738C105.386 52.9099 105.386 52.0802 107.262 45.5702C108.279 42.1237 109.099 39.1878 109.138 39.124C109.178 39.124 112.422 38.7411 116.409 38.3581C128.878 37.0816 141.778 34.401 153.27 30.6354C156.436 29.5504 159.29 28.7207 159.602 28.7207C159.915 28.7207 160.775 30.6993 161.557 33.1884C163.081 38.1666 163.12 38.2943 162.456 38.2943C159.798 38.2943 156.28 42.5067 155.029 47.0382C154.404 49.3996 154.286 51.2505 154.325 60.3773L154.404 71.0359L152.097 74.9292C147.758 82.2051 147.25 84.2474 149.048 87.1195C150.729 89.9278 151.667 89.2895 155.42 82.971L158.821 77.2268H168.241H177.661L180.554 82.1413C185.245 90.2469 187.356 96.1187 189.388 107.16C190.248 111.947 190.404 113.862 190.444 121.904C190.444 128.669 190.287 132.307 189.779 135.562C187.16 152.667 180.671 166.197 171.368 173.984L168.515 176.409L166.756 175.324C164.019 173.601 159.055 167.984 156.28 163.389C151.628 155.858 148.306 145.901 146.625 134.796C145.687 128.541 145.804 115.521 146.859 108.883C147.954 102.118 147.915 100.586 146.664 98.9908C145.452 97.459 144.983 97.3313 143.615 98.3525C140.605 100.65 139.042 123.18 140.957 136.902C143.732 156.751 151.745 173.601 162.651 182.6C167.616 186.621 168.866 186.685 173.127 183.238C177.388 179.728 180.241 176.537 183.408 171.686C196.659 151.39 200.255 119.414 192.281 92.8637C190.092 85.5877 188.176 81.2477 184.619 75.3121L182.118 71.0997L182 59.2285L181.883 47.3573L180.71 44.549C179.46 41.677 176.098 38.2943 174.378 38.2943C173.479 38.2943 173.479 38.2943 174.886 33.6352C175.707 31.146 176.723 27.1889 177.231 24.8913L178.131 20.7427L182.157 18.5727C188.685 15.1262 196.229 10.7862 197.714 9.63739C200.45 7.5312 200.802 2.80824 198.379 0.893525C197.206 -0.0638326 196.971 -8.75732e-06 193.805 1.91471C188.88 4.91443 178.091 10.85 177.505 10.85C177.231 10.85 176.332 9.70121 175.551 8.23327C173.362 4.27619 171.446 2.93589 168.202 2.93589C166.169 2.93589 165.075 3.25501 163.863 4.27619C160.97 6.76532 158.625 12.318 158.625 16.5942C158.625 19.0833 158.234 19.3386 151.98 21.3172C140.84 24.8913 129.269 27.3166 116.8 28.7207C108.943 29.6143 109.568 29.7419 109.06 26.9336C108.513 23.9339 106.402 20.296 104.174 18.3813C101.907 16.4665 98.0763 16.4665 95.8091 18.3813C93.5811 20.296 91.4703 23.9339 90.923 26.9975L90.454 29.4866L86.5451 29.0398C70.6749 27.4442 55.7039 24.253 44.2117 20.0407L41.3582 19.0195V16.8495C41.3582 13.9136 40.5764 10.9777 39.0129 8.04179C37.0193 4.34001 34.9867 2.93589 31.7814 2.93589C28.537 2.93589 26.6217 4.27619 24.4327 8.23327C23.6509 9.70121 22.7909 10.85 22.5955 10.85C21.931 10.85 12.7451 5.87178 7.62441 2.80824C5.08363 1.27647 2.89464 -8.75732e-06 2.73829 -8.75732e-06C2.58193 0.0638151 1.9956 0.446758 1.40926 1.02117ZM38.8174 49.4635C39.7556 50.9314 39.7946 51.3144 39.7946 59.3562V67.6533H31.7814H23.7682V59.037C23.7682 47.4211 23.4554 47.8679 31.6641 47.8679C37.7229 47.8679 37.8793 47.9317 38.8174 49.4635ZM175.355 49.1443C176.176 50.357 176.215 51.0591 176.215 59.037V67.6533H168.202H160.189V59.3562C160.189 51.3144 160.228 50.9314 161.166 49.4635C162.104 47.9317 162.26 47.8679 168.319 47.8679C173.987 47.8679 174.573 47.9955 175.355 49.1443ZM106.402 62.6112C107.927 63.76 108.239 65.9938 108.122 74.3548L108.005 82.0136H99.9917H91.9784L91.8612 74.3548C91.7439 66.1853 92.0957 63.76 93.4638 62.675C94.6365 61.7176 105.151 61.7176 106.402 62.6112Z" fill="black"/>
</svg>
