<svg width="300" height="300" viewBox="0 0 300 300" fill="none" xmlns="http://www.w3.org/2000/svg">
<g clip-path="url(#clip0_76_23)">
<path d="M259.667 3.74263C258.632 4.97137 257.792 6.77885 257.771 7.86531C257.795 9.3681 259.302 22.436 259.627 23.4006C259.659 23.4971 260.145 23.2178 260.739 22.6847C262.206 21.3035 268.935 21.1963 272.187 22.5312L274.998 23.6986L275.867 19.3983C276.253 17.1035 276.952 13.7272 277.381 11.8488C277.918 8.85332 277.712 7.95468 275.775 5.07625C271.651 -1.13246 264.198 -1.74094 259.667 3.74263Z" fill="black"/>
<path d="M30.3683 41.2629C28.7236 53.711 25.7086 60.0371 19.7696 63.6083C17.12 65.2408 11.5465 67.1795 6.5213 68.1998C1.03923 69.3222 -1.1536 70.1384 0.582388 70.3425C7.61771 71.0568 16.6632 73.9137 20.4092 76.5666C25.8 80.3419 28.9978 87.4843 30.4596 98.9121L31.556 107.381L33.2007 98.0958C35.3022 85.7497 37.5863 80.6479 42.7029 76.7707C46.7231 73.8116 56.8649 70.5467 61.8901 70.5467C65.9103 70.5467 63.9917 69.6283 56.4995 68.0978C41.8806 64.9347 37.0381 60.1392 34.3884 46.2625C31.4647 31.2635 31.6474 31.4675 30.3683 41.2629Z" fill="black"/>
<path d="M54.0775 23.7332C53.0723 30.5695 50.9709 35.6711 48.5039 37.4057C47.3163 38.324 43.8443 39.7525 40.7377 40.4667C33.8851 42.3034 32.9715 43.1196 37.7226 43.1196C41.8341 43.1196 47.8645 45.9766 50.2399 49.0376C51.2451 50.16 52.7069 54.2413 53.5293 58.1186L55.1739 65.057L55.9048 60.4654C57.6407 49.0376 61.2041 44.8541 70.5236 43.4257C75.5488 42.7115 75.1834 41.5891 69.6099 40.7728C61.1127 39.4464 57.9149 35.6711 55.9048 24.7535L54.8083 19.1415L54.0775 23.7332Z" fill="black"/>
<path d="M72.2308 56.5928C70.5862 68.5308 68.7588 75.3671 66.1092 78.8362C63.4595 82.3054 57.3379 85.4685 49.6629 87.203C41.0745 89.1417 40.9831 89.4478 48.4752 90.8762C65.2868 94.2434 69.2156 99.5492 72.5962 123.426L73.3272 128.527L74.0582 121.384C75.246 109.549 77.987 101.182 81.6416 97.5085C84.931 94.2434 91.144 91.7945 98.6361 90.6722C103.387 89.9579 104.758 88.2233 100.646 88.2233C99.1843 88.2233 96.0778 87.6111 93.5195 86.7949C80.3626 82.9176 76.6164 76.6935 74.0582 54.0419L73.3272 47.9199L72.2308 56.5928Z" fill="black"/>
<path d="M185.054 24.7119C185.054 29.0993 185.327 29.8135 186.88 29.8135C188.617 29.8135 188.708 30.5278 188.708 44.7105C188.708 53.2815 188.343 59.4034 187.885 59.1994C187.429 58.9953 179.572 50.8326 170.343 41.0373C161.207 31.2421 153.257 23.0793 152.709 22.9772C151.795 22.6712 137.359 37.8742 63.1687 117.563L35.0273 147.663L46.9051 147.969L58.6917 148.276L59.2399 172.866C59.6053 186.436 59.8794 206.333 59.8794 217.149V236.739L68.0111 241.943C95.6042 259.594 128.588 273.573 158.282 280.308L170.343 283.062L178.383 277.247C188.799 269.696 202.139 257.656 210.18 248.677C215.844 242.35 219.59 239.698 225.529 237.555C226.442 237.249 227.905 234.902 228.91 232.351C231.103 226.739 237.955 218.373 242.249 216.026L245.356 214.393V181.334V148.173H257.234C263.812 148.173 269.112 147.765 269.112 147.357C269.112 146.846 258.239 134.807 244.9 120.624C231.65 106.339 220.595 94.4012 220.504 93.891C220.321 93.4828 220.321 78.892 220.504 61.4442C220.686 30.7318 220.778 29.8135 222.514 29.8135C224.067 29.8135 224.342 29.0993 224.342 24.7119V19.6101H204.698H185.054V24.7119ZM148.323 157.05L148.05 176.233L130.598 176.539L113.056 176.743L112.507 174.498C112.233 173.172 111.959 164.498 111.959 155.009V137.97H130.232H148.506L148.323 157.05ZM192.18 157.05L191.906 176.233H174.09H156.272L155.998 157.05L155.816 137.97H174.09H192.362L192.18 157.05ZM148.323 202.252C148.415 211.536 148.323 220.107 148.05 221.331C147.592 223.678 147.41 223.678 130.325 223.678C116.527 223.678 112.964 223.372 112.599 222.25C112.325 221.535 112.05 212.761 111.959 202.863L111.868 184.905L129.958 185.109L148.05 185.416L148.323 202.252ZM192.18 204.496L192.362 223.678H174.09H155.816V204.292V184.905L173.906 185.109L191.906 185.416L192.18 204.496Z" fill="black"/>
<path d="M53.7055 101.525C53.6141 102.954 52.7917 105.606 51.7867 107.443C50.1421 110.504 49.0457 111.321 44.0205 113.361C42.4672 113.973 42.6499 114.177 45.2083 114.789C49.1371 115.81 52.4263 119.279 53.2485 123.361L53.8881 126.523L55.1673 122.135C56.5379 117.85 59.8271 114.789 63.2077 114.789C65.5833 114.789 64.6695 112.953 61.9285 112.239C58.4565 111.422 56.6293 108.974 55.0759 103.464C54.0709 100.097 53.7967 99.5864 53.7055 101.525Z" fill="black"/>
<path d="M193.718 277.475C193.352 278.088 194.174 278.495 195.545 278.495C196.916 278.495 197.737 278.088 197.372 277.475C197.098 276.862 196.276 276.455 195.545 276.455C194.814 276.455 193.992 276.862 193.718 277.475Z" fill="black"/>
<mask id="path-8-inside-1_76_23" fill="white">
<path d="M261.061 16.8974C260.893 17.7406 260.618 29.2932 260.482 42.636C260.292 56.0006 260.087 72.8275 260.049 80.0528C259.789 98.3319 259.639 112.276 259.29 133.988C258.826 167.187 258.716 171.045 258.549 171.412C258.502 171.61 256.666 172.478 254.542 173.405C247.775 176.288 242.975 182.777 243.487 188.228C243.667 189.645 243.425 190.935 242.916 191.381C242.44 191.754 241.81 192.846 241.521 193.858C241.078 195.111 240.348 195.946 239.155 196.552C236.89 197.596 235.409 199.691 234.65 202.682C234.005 205.329 228.641 214.67 223.371 222.184C214.542 234.907 204.409 243.335 188.878 250.989L184.067 253.312L184.957 255.272C185.378 256.351 186.061 257.145 186.329 257.036C186.65 256.904 186.081 257.673 185.102 258.669L183.339 260.521L186.093 259.456C189.222 258.237 200.908 251.081 206.255 247.11C218.291 238.143 227.34 227.416 235.588 212.249C237.674 208.359 240.073 206.068 240.595 207.404C240.835 208.021 233.243 223.754 230.051 229.109C228.636 231.534 226.069 235.621 224.352 238.229C222.616 240.785 221.321 243.042 221.455 243.225C221.569 243.358 221.093 244.208 220.309 245.064C217.386 248.403 220.04 246.127 224.296 241.588C230.121 235.337 234.385 228.59 240.187 216.389L244.875 206.43L246.784 206.545C247.876 206.635 248.84 206.718 248.934 206.799C249.336 206.873 247.355 214.534 244.596 223.705C240.126 238.52 228.624 261.271 221.425 269.574C218.502 272.913 203.135 285.922 201.099 286.754C200.134 287.148 192.928 286.039 189.204 284.938L187.222 284.318L192.013 280.99C201.475 274.504 211.737 263.7 221.203 250.062C225.749 243.558 226.292 242.561 223.852 245.226C221.499 247.796 214.074 254.403 209.966 257.571C203.392 262.699 194.608 265.988 186.711 266.294C183.289 266.44 182.458 266.064 184.294 265.195C185.648 264.523 186.378 263.212 185.568 262.888C184.905 262.622 169.228 268.31 169.57 268.707C170.493 269.64 178.322 271.388 182.629 271.596C187.391 271.855 194.907 271.05 198.819 269.929C200.145 269.506 199.73 270.033 196.473 272.674C189.731 278.169 187.868 279.287 180.237 282.344C171.695 285.773 171.762 285.627 178.365 288.054C187.8 291.53 200.592 293.574 213.325 293.558C227.457 293.625 242.502 291.413 271.542 285.094C288.437 281.411 290.842 280.727 291.385 279.73C291.915 278.859 294.635 267.678 296.099 260.764C297.013 256.101 297.628 247.806 297.424 242.348C297.035 232.437 296.241 228.65 292.156 217.389L288.311 206.744L289.404 204.927C290.001 203.909 290.371 202.149 290.237 201.012C289.964 198.562 287.931 195.102 286.303 194.277C284.79 193.584 282.991 189.135 283.482 187.207C283.65 186.364 283.41 184.317 282.929 182.607C281.659 178.239 278.413 174.858 273.27 172.668L269.38 170.98L269.511 165.266C269.93 139.116 270.214 123.449 270.356 112.189C270.583 93.0297 271.073 59.5815 271.304 45.3661C271.703 19.165 271.624 16.0986 270.613 15.2602C269.341 14.2305 265.068 13.9499 263.032 14.7817C261.906 15.2414 261.296 15.9076 261.061 16.8974ZM261.908 175.879C269.819 174.972 276.394 178.125 278.661 183.932C278.982 184.755 279.102 186.017 278.927 186.684C278.605 187.769 278.418 187.607 277.441 185.265C276.345 182.614 274.256 180.607 275.239 183.125C275.6 184.051 275.646 186.237 275.283 187.219C275.216 187.365 274.566 187.452 273.836 187.333C272.745 187.243 272.517 186.978 272.645 186.032C272.712 185.409 272.519 184.117 272.158 183.192L271.516 181.548L270.751 184.363C269.871 187.522 269.657 187.61 264.185 187.283C260.93 187.063 260.682 186.747 260.611 182.903C260.605 182.25 260.243 182.756 259.873 184.039C259.451 185.343 259.155 186.656 259.168 187.008C259.181 187.36 258.176 187.651 256.274 187.713C253.213 187.831 253.006 187.618 252.934 184.251C252.961 183.525 252.512 184.125 251.815 185.84C250.936 188.046 250.554 188.5 250.025 187.942C249.683 187.545 249.121 187.536 248.752 187.866C247.593 188.875 247.253 186.571 248.319 184.527C250.747 179.603 255.478 176.598 261.908 175.879ZM257.538 191.428C266.761 190.699 279.38 191.504 280.176 192.907C280.544 193.531 280.691 194.067 280.584 194.111C280.476 194.155 277.081 194.052 273.048 193.911C264.455 193.548 263.558 193.795 264.809 195.727C265.538 196.8 265.518 197.225 264.881 197.664C264.439 197.964 266.589 198.218 269.636 198.224C281.445 198.228 285.075 198.771 285.737 200.467C286.118 201.443 284.684 202.387 283.452 201.936C282.401 201.472 271.972 201.024 265.843 201.084C258.918 201.172 244.865 202.264 241.917 202.991C239.526 203.551 238.642 202.72 239.963 201.168C240.626 200.48 242.495 200.014 247.968 199.388C251.886 198.919 256.08 198.518 257.386 198.521C258.618 198.494 259.737 198.335 259.804 198.188C259.924 198.02 259.831 196.985 259.665 195.921L259.411 193.999L253.068 194.624C249.598 194.968 246.309 195.298 245.84 195.371C245.117 195.428 245.11 195.252 245.727 194.285C246.74 192.739 249.185 192.158 257.538 191.428ZM254.976 205.88C256.926 205.62 257.314 205.819 257.387 206.802C257.499 208.842 255.687 224.418 254.625 230.93C253.374 238.233 253.011 241.122 253.332 240.991C253.815 240.794 257.016 230.847 258.017 226.565C258.528 224.212 259.315 218.587 259.726 214.069C260.212 209.581 260.723 205.797 260.938 205.71C261.849 205.337 266.591 205.546 266.751 205.957C266.852 206.214 266.997 209.61 267.162 213.535C267.659 231.684 265.183 247.948 260.253 258.721C257.517 264.605 250.67 276.518 247.117 281.425L244.496 285.057L240.959 285.549C239.01 285.809 237.275 285.981 237.074 285.944C236.927 285.885 237.255 284.976 237.832 283.906C238.509 282.617 238.583 282.169 238.02 282.638C237.035 283.457 230.274 287.946 229.738 288.165C228.72 288.581 229.069 287.247 230.524 285.401C233.205 281.923 237.162 274.706 240.556 267.004C243.648 259.961 243.816 259.118 241.094 263.924C238.968 267.712 224.769 287.216 223.858 287.588C223.375 287.785 221.748 287.913 220.314 287.903C218.807 287.863 216.396 287.894 214.909 287.906C211.935 287.929 211.834 288.149 216.593 283.941C218.087 282.675 219.133 281.533 218.986 281.474C218.838 281.415 217.223 282.373 215.347 283.616C213.545 284.888 210.663 286.422 208.962 286.998L205.9 288.07L208.762 285.054C210.351 283.392 212.81 280.779 214.278 279.285C217.804 275.581 225.593 265.607 230.186 258.905C240.182 244.396 246.823 229.409 250.564 213.045C251.37 209.379 252.216 206.292 252.377 206.227C252.538 206.161 253.71 205.98 254.976 205.88ZM274.447 205.614C274.997 205.747 275.544 207.788 276.432 212.609C279.669 230.294 280.827 242.334 280.064 250.57C279.646 254.912 280.492 251.825 281.615 244.991C283.27 234.424 282.72 225.533 279.493 212.491C278.678 209.129 278.077 206.157 278.232 205.916C278.332 205.696 279.277 205.727 280.301 205.964L282.15 206.401L285.988 216.393C290.18 227.133 291.389 232.777 291.751 242.46C292.087 250.963 290.425 262.784 287.666 271.954C286.988 274.197 286.424 276.096 286.391 276.169C286.411 276.221 284.669 276.694 282.619 277.174L278.787 278.024L280.022 274.659C281.418 270.752 281.049 270.605 278.937 274.268C275.283 280.349 273.883 280.265 275.521 274.114C276.763 269.495 278.533 257.631 277.997 257.373C277.796 257.336 277.38 258.34 277.064 259.601C276.695 260.884 274.837 265.992 272.938 270.998C270.019 278.804 269.288 280.116 268.082 280.37C267.345 280.552 266.656 280.535 266.615 280.433C266.555 280.278 267.173 278.358 267.944 276.196C270.206 270.207 269.985 270.119 266.692 275.694C263.641 280.932 262.71 281.73 259.387 282.133C258.121 282.233 258.235 281.889 260.254 277.191C261.509 274.355 262.998 270.529 263.582 268.682L264.67 265.259L262.912 268.717C260.585 273.422 255.838 280.365 252.97 283.205C251.676 284.508 250.55 285.445 250.49 285.29C250.43 285.136 251.772 282.205 253.422 278.79C255.125 275.354 257.258 270.312 258.225 267.534C259.157 264.829 261.009 259.544 262.305 255.857C265.754 246.226 267.875 238.924 268.789 233.784C269.603 229.341 270.14 216.072 269.763 209.851C269.697 208.09 269.557 206.3 269.578 205.875C269.538 205.295 269.987 205.172 271.588 205.292C272.733 205.361 274.026 205.488 274.447 205.614ZM211.887 259.467C211.082 260.273 209.709 261.37 208.804 261.918C207.899 262.466 208.315 261.939 209.79 260.622C212.812 258.017 214.058 257.389 211.887 259.467Z"/>
</mask>
<path d="M261.061 16.8974C260.893 17.7406 260.618 29.2932 260.482 42.636C260.292 56.0006 260.087 72.8275 260.049 80.0528C259.789 98.3319 259.639 112.276 259.29 133.988C258.826 167.187 258.716 171.045 258.549 171.412C258.502 171.61 256.666 172.478 254.542 173.405C247.775 176.288 242.975 182.777 243.487 188.228C243.667 189.645 243.425 190.935 242.916 191.381C242.44 191.754 241.81 192.846 241.521 193.858C241.078 195.111 240.348 195.946 239.155 196.552C236.89 197.596 235.409 199.691 234.65 202.682C234.005 205.329 228.641 214.67 223.371 222.184C214.542 234.907 204.409 243.335 188.878 250.989L184.067 253.312L184.957 255.272C185.378 256.351 186.061 257.145 186.329 257.036C186.65 256.904 186.081 257.673 185.102 258.669L183.339 260.521L186.093 259.456C189.222 258.237 200.908 251.081 206.255 247.11C218.291 238.143 227.34 227.416 235.588 212.249C237.674 208.359 240.073 206.068 240.595 207.404C240.835 208.021 233.243 223.754 230.051 229.109C228.636 231.534 226.069 235.621 224.352 238.229C222.616 240.785 221.321 243.042 221.455 243.225C221.569 243.358 221.093 244.208 220.309 245.064C217.386 248.403 220.04 246.127 224.296 241.588C230.121 235.337 234.385 228.59 240.187 216.389L244.875 206.43L246.784 206.545C247.876 206.635 248.84 206.718 248.934 206.799C249.336 206.873 247.355 214.534 244.596 223.705C240.126 238.52 228.624 261.271 221.425 269.574C218.502 272.913 203.135 285.922 201.099 286.754C200.134 287.148 192.928 286.039 189.204 284.938L187.222 284.318L192.013 280.99C201.475 274.504 211.737 263.7 221.203 250.062C225.749 243.558 226.292 242.561 223.852 245.226C221.499 247.796 214.074 254.403 209.966 257.571C203.392 262.699 194.608 265.988 186.711 266.294C183.289 266.44 182.458 266.064 184.294 265.195C185.648 264.523 186.378 263.212 185.568 262.888C184.905 262.622 169.228 268.31 169.57 268.707C170.493 269.64 178.322 271.388 182.629 271.596C187.391 271.855 194.907 271.05 198.819 269.929C200.145 269.506 199.73 270.033 196.473 272.674C189.731 278.169 187.868 279.287 180.237 282.344C171.695 285.773 171.762 285.627 178.365 288.054C187.8 291.53 200.592 293.574 213.325 293.558C227.457 293.625 242.502 291.413 271.542 285.094C288.437 281.411 290.842 280.727 291.385 279.73C291.915 278.859 294.635 267.678 296.099 260.764C297.013 256.101 297.628 247.806 297.424 242.348C297.035 232.437 296.241 228.65 292.156 217.389L288.311 206.744L289.404 204.927C290.001 203.909 290.371 202.149 290.237 201.012C289.964 198.562 287.931 195.102 286.303 194.277C284.79 193.584 282.991 189.135 283.482 187.207C283.65 186.364 283.41 184.317 282.929 182.607C281.659 178.239 278.413 174.858 273.27 172.668L269.38 170.98L269.511 165.266C269.93 139.116 270.214 123.449 270.356 112.189C270.583 93.0297 271.073 59.5815 271.304 45.3661C271.703 19.165 271.624 16.0986 270.613 15.2602C269.341 14.2305 265.068 13.9499 263.032 14.7817C261.906 15.2414 261.296 15.9076 261.061 16.8974ZM261.908 175.879C269.819 174.972 276.394 178.125 278.661 183.932C278.982 184.755 279.102 186.017 278.927 186.684C278.605 187.769 278.418 187.607 277.441 185.265C276.345 182.614 274.256 180.607 275.239 183.125C275.6 184.051 275.646 186.237 275.283 187.219C275.216 187.365 274.566 187.452 273.836 187.333C272.745 187.243 272.517 186.978 272.645 186.032C272.712 185.409 272.519 184.117 272.158 183.192L271.516 181.548L270.751 184.363C269.871 187.522 269.657 187.61 264.185 187.283C260.93 187.063 260.682 186.747 260.611 182.903C260.605 182.25 260.243 182.756 259.873 184.039C259.451 185.343 259.155 186.656 259.168 187.008C259.181 187.36 258.176 187.651 256.274 187.713C253.213 187.831 253.006 187.618 252.934 184.251C252.961 183.525 252.512 184.125 251.815 185.84C250.936 188.046 250.554 188.5 250.025 187.942C249.683 187.545 249.121 187.536 248.752 187.866C247.593 188.875 247.253 186.571 248.319 184.527C250.747 179.603 255.478 176.598 261.908 175.879ZM257.538 191.428C266.761 190.699 279.38 191.504 280.176 192.907C280.544 193.531 280.691 194.067 280.584 194.111C280.476 194.155 277.081 194.052 273.048 193.911C264.455 193.548 263.558 193.795 264.809 195.727C265.538 196.8 265.518 197.225 264.881 197.664C264.439 197.964 266.589 198.218 269.636 198.224C281.445 198.228 285.075 198.771 285.737 200.467C286.118 201.443 284.684 202.387 283.452 201.936C282.401 201.472 271.972 201.024 265.843 201.084C258.918 201.172 244.865 202.264 241.917 202.991C239.526 203.551 238.642 202.72 239.963 201.168C240.626 200.48 242.495 200.014 247.968 199.388C251.886 198.919 256.08 198.518 257.386 198.521C258.618 198.494 259.737 198.335 259.804 198.188C259.924 198.02 259.831 196.985 259.665 195.921L259.411 193.999L253.068 194.624C249.598 194.968 246.309 195.298 245.84 195.371C245.117 195.428 245.11 195.252 245.727 194.285C246.74 192.739 249.185 192.158 257.538 191.428ZM254.976 205.88C256.926 205.62 257.314 205.819 257.387 206.802C257.499 208.842 255.687 224.418 254.625 230.93C253.374 238.233 253.011 241.122 253.332 240.991C253.815 240.794 257.016 230.847 258.017 226.565C258.528 224.212 259.315 218.587 259.726 214.069C260.212 209.581 260.723 205.797 260.938 205.71C261.849 205.337 266.591 205.546 266.751 205.957C266.852 206.214 266.997 209.61 267.162 213.535C267.659 231.684 265.183 247.948 260.253 258.721C257.517 264.605 250.67 276.518 247.117 281.425L244.496 285.057L240.959 285.549C239.01 285.809 237.275 285.981 237.074 285.944C236.927 285.885 237.255 284.976 237.832 283.906C238.509 282.617 238.583 282.169 238.02 282.638C237.035 283.457 230.274 287.946 229.738 288.165C228.72 288.581 229.069 287.247 230.524 285.401C233.205 281.923 237.162 274.706 240.556 267.004C243.648 259.961 243.816 259.118 241.094 263.924C238.968 267.712 224.769 287.216 223.858 287.588C223.375 287.785 221.748 287.913 220.314 287.903C218.807 287.863 216.396 287.894 214.909 287.906C211.935 287.929 211.834 288.149 216.593 283.941C218.087 282.675 219.133 281.533 218.986 281.474C218.838 281.415 217.223 282.373 215.347 283.616C213.545 284.888 210.663 286.422 208.962 286.998L205.9 288.07L208.762 285.054C210.351 283.392 212.81 280.779 214.278 279.285C217.804 275.581 225.593 265.607 230.186 258.905C240.182 244.396 246.823 229.409 250.564 213.045C251.37 209.379 252.216 206.292 252.377 206.227C252.538 206.161 253.71 205.98 254.976 205.88ZM274.447 205.614C274.997 205.747 275.544 207.788 276.432 212.609C279.669 230.294 280.827 242.334 280.064 250.57C279.646 254.912 280.492 251.825 281.615 244.991C283.27 234.424 282.72 225.533 279.493 212.491C278.678 209.129 278.077 206.157 278.232 205.916C278.332 205.696 279.277 205.727 280.301 205.964L282.15 206.401L285.988 216.393C290.18 227.133 291.389 232.777 291.751 242.46C292.087 250.963 290.425 262.784 287.666 271.954C286.988 274.197 286.424 276.096 286.391 276.169C286.411 276.221 284.669 276.694 282.619 277.174L278.787 278.024L280.022 274.659C281.418 270.752 281.049 270.605 278.937 274.268C275.283 280.349 273.883 280.265 275.521 274.114C276.763 269.495 278.533 257.631 277.997 257.373C277.796 257.336 277.38 258.34 277.064 259.601C276.695 260.884 274.837 265.992 272.938 270.998C270.019 278.804 269.288 280.116 268.082 280.37C267.345 280.552 266.656 280.535 266.615 280.433C266.555 280.278 267.173 278.358 267.944 276.196C270.206 270.207 269.985 270.119 266.692 275.694C263.641 280.932 262.71 281.73 259.387 282.133C258.121 282.233 258.235 281.889 260.254 277.191C261.509 274.355 262.998 270.529 263.582 268.682L264.67 265.259L262.912 268.717C260.585 273.422 255.838 280.365 252.97 283.205C251.676 284.508 250.55 285.445 250.49 285.29C250.43 285.136 251.772 282.205 253.422 278.79C255.125 275.354 257.258 270.312 258.225 267.534C259.157 264.829 261.009 259.544 262.305 255.857C265.754 246.226 267.875 238.924 268.789 233.784C269.603 229.341 270.14 216.072 269.763 209.851C269.697 208.09 269.557 206.3 269.578 205.875C269.538 205.295 269.987 205.172 271.588 205.292C272.733 205.361 274.026 205.488 274.447 205.614ZM211.887 259.467C211.082 260.273 209.709 261.37 208.804 261.918C207.899 262.466 208.315 261.939 209.79 260.622C212.812 258.017 214.058 257.389 211.887 259.467Z" fill="black" stroke="black" stroke-width="2" mask="url(#path-8-inside-1_76_23)"/>
</g>
<defs>
<clipPath id="clip0_76_23">
<rect width="300" height="300" fill="white"/>
</clipPath>
</defs>
</svg>
