<svg width="200" height="200" viewBox="0 0 200 200" fill="none" xmlns="http://www.w3.org/2000/svg">
<path d="M193.799 0.613934C193.247 0.935394 192.695 1.49795 192.547 1.89977C192.363 2.46233 191.259 7.52533 191.259 7.92715C191.259 7.96733 191.48 7.92715 191.775 7.8066C192.511 7.48514 195.087 8.32898 196.154 9.25317L197.075 10.0568L197.958 8.57007C198.4 7.76642 199.099 6.60113 199.504 5.95821C200.093 4.91346 200.129 4.55182 199.761 3.2258C198.988 0.372839 196.228 -0.832636 193.799 0.613934Z" fill="black"/>
<path d="M28.9842 10.981C28.3217 15.8832 27.1071 18.3745 24.7147 19.7809C23.6474 20.4239 21.4022 21.1873 19.3779 21.5891C17.1696 22.0312 16.2863 22.3526 16.9856 22.433C19.8196 22.7143 23.4633 23.8394 24.9724 24.8841C27.1439 26.3709 28.4321 29.1836 29.021 33.6841L29.4626 37.0192L30.1251 33.3626C30.9717 28.5005 31.8918 26.4914 33.9529 24.9645C35.5723 23.7992 39.6578 22.5133 41.6821 22.5133C43.3015 22.5133 42.5286 22.1517 39.5105 21.549C33.6217 20.3033 31.671 18.4147 30.6036 12.9499C29.4258 7.04308 29.4994 7.12344 28.9842 10.981Z" fill="black"/>
<path d="M188.904 14.1554C188.609 14.6778 185.775 22.3928 182.61 31.3535C179.408 40.3142 175.396 51.6055 173.703 56.4676C169.323 68.7232 166.011 78.0858 160.784 92.6318C152.834 114.893 151.878 117.465 151.694 117.666C151.62 117.786 150.332 117.866 148.859 117.907C144.185 117.987 139.842 121.041 138.885 124.858C138.664 125.863 138.223 126.666 137.818 126.827C137.45 126.948 136.824 127.51 136.419 128.113C135.867 128.836 135.241 129.198 134.395 129.278C132.812 129.359 131.451 130.363 130.31 132.171C129.316 133.779 123.979 138.601 119.121 142.217C110.95 148.365 103 151.258 92.0319 152.142L88.6457 152.383L88.7194 153.95C88.7194 154.794 88.9402 155.517 89.1242 155.517C89.3451 155.517 88.8298 155.879 88.0201 156.281L86.5478 157.044L88.4249 157.085C90.5596 157.125 99.1353 155.517 103.221 154.312C112.422 151.58 120.262 146.838 128.653 138.882C130.788 136.833 132.739 135.949 132.739 136.993C132.739 137.476 124.605 145.994 121.476 148.727C120.078 149.972 117.612 152.022 115.992 153.307C114.373 154.553 113.085 155.718 113.121 155.879C113.158 156 112.68 156.442 112.017 156.803C109.514 158.25 111.612 157.446 115.182 155.558C120.078 152.946 124.163 149.57 130.42 142.94L135.499 137.516L136.603 138.118C137.229 138.48 137.781 138.802 137.818 138.882C138.039 139.043 135.094 143.664 131.34 149.088C125.267 157.848 113.195 170.023 107.012 173.64C104.509 175.086 92.3999 179.627 91.0013 179.627C90.3388 179.627 86.327 176.895 84.3763 175.127L83.3458 174.162L86.9527 173.238C94.0562 171.47 102.632 167.01 111.392 160.42C115.587 157.285 116.139 156.763 114.078 157.888C112.091 158.973 106.165 161.384 103 162.389C97.9207 164.036 91.9582 163.835 87.2103 161.866C85.1492 161.022 84.7444 160.54 86.0326 160.46C86.9895 160.38 87.7256 159.696 87.3207 159.254C86.9895 158.893 76.3895 158.411 76.4999 158.772C76.8312 159.656 81.0638 162.991 83.5666 164.317C86.327 165.804 90.9645 167.331 93.5409 167.653C94.4242 167.733 94.0562 167.974 91.5166 168.858C86.2534 170.706 84.8916 170.948 79.6652 170.907C73.8131 170.867 73.8868 170.787 77.2361 174.243C82.0208 179.185 89.1242 184.087 96.6693 187.583C105.024 191.521 114.446 194.173 133.107 197.91C143.964 200.08 145.547 200.281 146.099 199.758C146.614 199.316 150.81 192.526 153.276 188.266C154.896 185.373 157.178 179.948 158.319 176.211C160.38 169.421 160.784 166.648 160.968 157.928L161.153 149.691L162.22 148.767C162.809 148.244 163.434 147.16 163.618 146.356C164.023 144.628 163.618 141.735 162.846 140.73C162.109 139.846 162.073 136.35 162.809 135.185C163.103 134.663 163.434 133.216 163.545 131.93C163.803 128.635 162.662 125.461 160.122 122.568L158.208 120.358L159.607 116.54C165.9 99.0209 169.691 88.5332 172.378 80.9789C176.942 68.1205 184.966 45.6987 188.389 36.1754C194.682 18.6157 195.345 16.5262 194.94 15.6823C194.425 14.6376 191.959 13.2714 190.56 13.2714C189.787 13.2714 189.272 13.5527 188.904 14.1554ZM152.65 121.603C157.546 123.171 160.711 127.108 160.711 131.649C160.711 132.292 160.49 133.176 160.232 133.578C159.791 134.221 159.717 134.06 159.68 132.212C159.643 130.122 158.871 128.193 158.871 130.162C158.871 130.886 158.392 132.372 157.95 132.935C157.877 133.015 157.472 132.895 157.067 132.613C156.441 132.252 156.368 132.011 156.662 131.408C156.846 131.006 157.03 130.082 157.03 129.359V128.073L155.926 129.76C154.675 131.649 154.528 131.649 151.362 129.921C149.485 128.876 149.412 128.595 150.258 125.983C150.405 125.541 150.074 125.782 149.559 126.546C149.007 127.309 148.528 128.113 148.455 128.354C148.381 128.595 147.719 128.515 146.578 128.033C144.737 127.269 144.664 127.068 145.4 124.778C145.584 124.296 145.179 124.577 144.369 125.541C143.339 126.787 143.007 126.988 142.823 126.466C142.713 126.104 142.382 125.943 142.087 126.064C141.167 126.425 141.498 124.778 142.603 123.693C145.179 121.041 148.675 120.318 152.65 121.603ZM146.467 130.886C152.098 132.935 159.386 136.953 159.533 138.118C159.607 138.641 159.57 139.043 159.496 139.043C159.423 139.043 157.435 138.038 155.08 136.833C150.074 134.221 149.485 134.14 149.78 135.788C149.964 136.712 149.853 136.993 149.375 137.114C149.044 137.194 150.258 137.958 152.062 138.802C159.055 142.056 161.079 143.423 161.079 144.749C161.079 145.512 160.012 145.753 159.386 145.11C158.871 144.507 152.798 141.333 149.154 139.686C145.032 137.837 136.456 134.703 134.542 134.381C132.996 134.1 132.665 133.297 133.806 132.613C134.358 132.332 135.573 132.533 138.959 133.618C141.388 134.381 143.964 135.265 144.737 135.627C145.473 135.949 146.173 136.149 146.246 136.069C146.357 135.989 146.541 135.265 146.688 134.502L146.982 133.136L143.081 131.81C140.946 131.086 138.922 130.403 138.628 130.323C138.186 130.162 138.223 130.042 138.812 129.56C139.769 128.796 141.351 129.077 146.467 130.886ZM141.609 139.927C142.823 140.288 143.007 140.529 142.823 141.212C142.419 142.619 137.744 152.624 135.61 156.723C133.18 161.304 132.297 163.152 132.518 163.152C132.849 163.152 137.045 157.326 138.628 154.714C139.474 153.267 141.241 149.691 142.529 146.758C143.854 143.865 145.032 141.454 145.179 141.454C145.805 141.454 148.565 142.9 148.565 143.222C148.565 143.423 147.866 145.753 147.056 148.445C143.155 160.822 137.928 171.108 132.518 177.015C129.537 180.23 122.728 186.378 119.489 188.708L117.096 190.436L114.888 189.793C113.673 189.431 112.606 189.07 112.496 188.989C112.422 188.909 112.827 188.387 113.416 187.824C114.115 187.141 114.262 186.86 113.821 187.021C113.048 187.302 108.005 188.467 107.637 188.467C106.938 188.467 107.453 187.663 108.742 186.82C111.134 185.212 115.146 181.435 118.937 177.176C122.396 173.278 122.691 172.756 119.967 175.247C117.832 177.216 104.914 186.458 104.288 186.458C103.957 186.458 102.963 186.096 102.117 185.695C101.233 185.253 99.7978 184.61 98.9145 184.208C97.1478 183.404 97.0374 183.525 100.828 181.998C102.006 181.556 102.889 181.074 102.816 180.993C102.742 180.913 101.564 181.114 100.166 181.435C98.8041 181.797 96.743 182.038 95.602 181.958L93.5409 181.837L95.9332 180.591C97.2582 179.908 99.3193 178.823 100.534 178.221C103.478 176.694 110.398 172.113 114.667 168.858C123.942 161.826 131.34 153.549 137.339 143.543C138.664 141.293 139.879 139.444 139.989 139.444C140.1 139.444 140.836 139.645 141.609 139.927ZM153.203 145.11C153.497 145.351 153.35 146.878 152.761 150.374C150.589 163.192 148.491 171.631 146.136 176.975C144.885 179.788 146.099 177.939 148.344 173.64C151.767 166.969 153.497 160.822 154.601 151.138C154.896 148.646 155.227 146.476 155.374 146.356C155.484 146.235 156.037 146.517 156.589 146.959L157.582 147.762L157.546 155.558C157.546 163.956 156.957 168.095 154.932 174.725C153.166 180.551 149.448 188.065 145.694 193.49C144.774 194.816 144.001 195.941 143.964 195.981C143.964 196.021 142.823 195.861 141.498 195.62L139.032 195.137L140.541 193.209C142.271 190.958 142.087 190.758 139.989 192.646C136.419 195.74 135.61 195.298 138.002 191.601C139.805 188.829 143.596 181.315 143.339 180.993C143.228 180.913 142.75 181.475 142.271 182.239C141.756 183.002 139.474 185.936 137.192 188.789C133.659 193.249 132.923 193.932 132.15 193.771C131.671 193.691 131.266 193.49 131.266 193.41C131.266 193.289 132.076 192.164 133.033 190.918C135.757 187.503 135.646 187.382 132.407 190.235C129.389 192.927 128.653 193.209 126.592 192.566C125.819 192.284 125.966 192.084 128.248 189.472C129.647 187.905 131.414 185.735 132.187 184.65L133.622 182.641L131.782 184.489C129.316 187.021 124.899 190.396 122.544 191.521C121.476 192.043 120.593 192.365 120.593 192.244C120.593 192.124 122.065 190.516 123.832 188.668C125.635 186.82 128.064 184.007 129.279 182.4C130.457 180.832 132.776 177.779 134.395 175.649C138.664 170.104 141.609 165.764 143.339 162.549C144.848 159.777 148.234 150.977 149.448 146.677C149.816 145.472 150.148 144.226 150.258 143.945C150.369 143.543 150.663 143.583 151.583 144.106C152.246 144.467 152.982 144.909 153.203 145.11ZM103.699 164.197C103.037 164.518 101.969 164.88 101.307 165.001C100.644 165.121 101.012 164.88 102.19 164.398C104.583 163.474 105.466 163.393 103.699 164.197Z" fill="black"/>
<path d="M168.477 17.0084C168.403 18.4147 167.188 20.1024 165.9 20.5444C164.649 21.0266 164.649 21.0266 165.458 21.3882C166.084 21.6293 166.452 21.549 166.747 21.1472C166.968 20.8659 167.63 20.4641 168.182 20.3435C169.507 19.9819 169.802 19.138 169.065 17.5709C168.661 16.6869 168.477 16.5262 168.477 17.0084Z" fill="black"/>
<path d="M7.78405 33.3627C7.37919 36.0549 6.53267 38.064 5.53892 38.7471C5.06045 39.1088 3.66184 39.6713 2.41045 39.9526C-0.349956 40.6759 -0.718011 40.9974 1.19587 40.9974C2.85212 40.9974 5.28128 42.1225 6.23822 43.3279C6.64308 43.77 7.23197 45.3773 7.56322 46.9042L8.22572 49.6366L8.52016 47.8284C9.21947 43.3279 10.6549 41.6805 14.409 41.1179C16.4333 40.8366 16.2861 40.3946 14.041 40.0732C10.6181 39.5508 9.32988 38.064 8.52016 33.7645L8.0785 31.5545L7.78405 33.3627Z" fill="black"/>
<path d="M43.0068 41.3992C42.3443 46.1005 41.6082 48.7928 40.5409 50.159C39.4735 51.5252 37.0076 52.7708 33.9159 53.4539C30.4562 54.2174 30.4194 54.3379 33.4374 54.9005C40.2096 56.2265 41.7923 58.316 43.1541 67.7187L43.4485 69.7278L43.743 66.9151C44.2214 62.2539 45.3256 58.9589 46.7978 57.5124C48.1228 56.2265 50.6256 55.2621 53.6436 54.8201C55.5575 54.5389 56.1096 53.8558 54.4533 53.8558C53.8645 53.8558 52.6131 53.6147 51.5825 53.2932C46.2825 51.7663 44.7735 49.3151 43.743 40.3946L43.4485 37.9837L43.0068 41.3992Z" fill="black"/>
<path d="M116.544 40.1937C116.544 41.9215 116.655 42.2028 117.281 42.2028C117.98 42.2028 118.017 42.4841 118.017 48.0695C118.017 51.4448 117.869 53.8557 117.685 53.7754C117.501 53.695 114.336 50.4804 110.619 46.6229C106.938 42.7654 103.736 39.5508 103.515 39.5106C103.147 39.39 97.332 45.3772 67.4459 76.7598L56.1099 88.6136L60.8946 88.7341L65.6425 88.8547L65.8633 98.5387C66.0105 103.883 66.121 111.719 66.121 115.978V123.693L69.3966 125.742C80.5119 132.694 93.7987 138.199 105.76 140.851L110.619 141.936L113.858 139.645C118.053 136.672 123.427 131.93 126.666 128.394C128.948 125.903 130.457 124.858 132.849 124.014C133.217 123.894 133.806 122.97 134.211 121.965C135.094 119.755 137.855 116.46 139.585 115.536L140.836 114.893V101.874V88.8145H145.621C148.271 88.8145 150.405 88.6538 150.405 88.4931C150.405 88.2921 146.026 83.5506 140.652 77.9652C135.315 72.3397 130.862 67.6383 130.825 67.4374C130.751 67.2767 130.751 61.5306 130.825 54.6594C130.899 42.5644 130.935 42.2028 131.635 42.2028C132.26 42.2028 132.371 41.9215 132.371 40.1937V38.1846H124.458H116.544V40.1937ZM101.749 92.3104L101.638 99.8647L94.6084 99.9853L87.5417 100.066L87.3209 99.1816C87.2105 98.6592 87.1001 95.2437 87.1001 91.5067V84.7963H94.4612H101.822L101.749 92.3104ZM119.415 92.3104L119.305 99.8647H112.128H104.951L104.84 92.3104L104.767 84.7963H112.128H119.489L119.415 92.3104ZM101.749 110.111C101.785 113.768 101.749 117.143 101.638 117.625C101.454 118.55 101.381 118.55 94.498 118.55C88.9403 118.55 87.5049 118.429 87.3577 117.987C87.2473 117.706 87.1369 114.25 87.1001 110.352L87.0633 103.28L94.3508 103.361L101.638 103.481L101.749 110.111ZM119.415 110.995L119.489 118.55H112.128H104.767V110.915V103.28L112.054 103.361L119.305 103.481L119.415 110.995Z" fill="black"/>
<path d="M148.05 46.422C147.902 46.9845 147.314 47.7078 146.614 48.0695C145.804 48.5517 145.62 48.8329 145.989 48.9535C146.798 49.2348 147.866 50.3197 148.197 51.2439C148.418 51.927 148.491 51.8868 148.97 50.8421C149.264 50.159 149.853 49.4759 150.332 49.2348C151.325 48.7526 151.362 48.3508 150.442 48.0293C150.037 47.9087 149.485 47.2658 149.227 46.6229C148.639 45.1362 148.344 45.096 148.05 46.422Z" fill="black"/>
<path d="M142.529 59.2804C142.418 59.6018 141.793 60.2448 141.13 60.6868C140.063 61.3699 140.026 61.4904 140.725 61.4904C141.204 61.4904 141.903 61.9726 142.345 62.6959L143.155 63.9014L143.559 62.9772C143.78 62.495 144.332 61.9324 144.737 61.7315C145.51 61.3699 145.473 61.2895 144.222 60.0037C142.75 58.4767 142.823 58.5169 142.529 59.2804Z" fill="black"/>
<path d="M55.4842 64.705C55.4474 65.2676 55.1162 66.3123 54.7113 67.0356C54.0488 68.2411 53.6072 68.5626 51.5829 69.3662C50.9572 69.6073 51.0308 69.6877 52.0613 69.9288C53.644 70.3306 54.969 71.6968 55.3002 73.3041L55.5578 74.5497L56.0731 72.8219C56.6252 71.1342 57.9502 69.9288 59.312 69.9288C60.2689 69.9288 59.9009 69.2055 58.7967 68.9242C57.3981 68.6027 56.662 67.6384 56.0363 65.4685C55.6315 64.1425 55.521 63.9416 55.4842 64.705Z" fill="black"/>
<path d="M152.429 66.8347C151.84 68.2009 151.399 68.6429 150.147 69.0849L148.602 69.6876L150.331 70.2904C151.767 70.8128 152.135 71.1744 152.429 72.2191C152.613 72.9424 152.871 73.5452 153.018 73.5452C153.239 73.5452 153.828 71.7771 153.865 70.9333C153.902 70.3707 155.263 69.5671 155.815 69.8082C156.662 70.1698 156.331 69.326 155.484 68.9242C155.006 68.6831 154.306 67.7589 153.902 66.8347L153.129 65.1068L152.429 66.8347Z" fill="black"/>
<path d="M104.951 147.079C104.803 147.32 105.135 147.481 105.687 147.481C106.239 147.481 106.57 147.32 106.423 147.079C106.312 146.838 105.981 146.677 105.687 146.677C105.392 146.677 105.061 146.838 104.951 147.079Z" fill="black"/>
</svg>
