<svg width="300" height="300" viewBox="0 0 300 300" fill="none" xmlns="http://www.w3.org/2000/svg">
<g clip-path="url(#clip0_76_17)">
<path d="M0 0C17.2991 0 34.5981 0 52.4214 0C55.2452 8.38582 57.5289 15.3179 59.0676 23.7792C59.2494 24.7573 59.4311 25.7354 59.6183 26.7431C60.0141 28.8755 60.406 31.0087 60.7942 33.1424C61.8833 39.1163 63.0093 45.0833 64.1343 51.0505C64.381 52.3617 64.6278 53.6729 64.8821 55.0238C68.1422 72.2555 71.6055 89.4477 75.0742 106.639C75.8239 110.357 76.5718 114.075 77.3179 117.794C78.3716 123.044 79.4311 128.293 80.4925 133.542C80.8119 135.137 81.1313 136.731 81.4604 138.374C81.7567 139.831 82.0529 141.288 82.3581 142.789C82.6159 144.066 82.8736 145.342 83.1392 146.657C83.7639 149.806 83.7639 149.806 85.3719 152.706C88.8654 153.638 92.4008 154.419 95.9498 155.115C97.8824 155.501 99.8151 155.887 101.806 156.285C103.303 156.571 104.799 156.858 106.34 157.153C106.835 156.175 107.329 155.196 107.838 154.188C105.367 153.699 102.896 153.21 100.349 152.706C99.1264 129.064 99.1264 129.064 106.34 118.606C113.386 111.802 118.843 111.007 128.452 110.955C129.475 110.947 130.499 110.94 131.553 110.932C134.938 110.911 138.322 110.901 141.707 110.892C144.064 110.884 146.42 110.875 148.776 110.867C153.718 110.851 158.66 110.842 163.601 110.837C169.922 110.829 176.242 110.794 182.562 110.751C187.431 110.724 192.3 110.716 197.168 110.714C199.498 110.709 201.827 110.697 204.156 110.678C207.422 110.652 210.687 110.655 213.952 110.665C215.808 110.66 217.664 110.654 219.575 110.649C227.046 111.449 231.935 113.803 237.019 119.255C242.209 126.778 243.035 132.1 242.823 141.216C242.81 142.32 242.796 143.425 242.782 144.563C242.747 147.277 242.693 149.992 242.636 152.706C238.929 153.44 238.929 153.44 235.147 154.188C235.147 165.441 235.147 176.694 235.147 188.288C237.866 188.899 240.584 189.511 243.385 190.141C257.643 193.74 267.079 198.238 275.587 210.526C277.692 214.545 278.868 217.964 280.08 222.387C279.586 223.855 279.091 225.322 278.582 226.835C277.709 226.766 276.837 226.697 275.938 226.626C263.409 226.08 251.162 228.339 241.232 236.286C240.212 237.57 239.193 238.855 238.143 240.178C236.876 241.493 235.61 242.808 234.305 244.162C230.128 249.145 228.079 254.791 225.857 260.824C224.663 263.899 224.663 263.899 223.165 265.382C220.783 265.528 218.394 265.572 216.007 265.574C214.483 265.578 212.958 265.583 211.388 265.588C208.9 265.583 208.9 265.583 206.362 265.579C204.673 265.58 202.983 265.581 201.242 265.583C197.661 265.584 194.08 265.581 190.499 265.575C184.996 265.567 179.494 265.575 173.991 265.584C170.522 265.583 167.052 265.582 163.583 265.579C161.924 265.582 160.266 265.585 158.557 265.588C156.271 265.581 156.271 265.581 153.938 265.574C152.589 265.572 151.24 265.571 149.85 265.57C146.78 265.382 146.78 265.382 145.282 263.899C144.909 261.525 144.572 259.146 144.252 256.764C141.591 242.064 135.327 229.687 123.377 220.348C107.815 209.809 91.5946 211.362 73.3899 212.009C67.1631 184.752 61.4265 157.45 56.2568 129.978C55.8228 127.672 55.3888 125.366 54.9547 123.06C54.7424 121.932 54.5301 120.803 54.3113 119.641C52.2182 108.559 49.9935 97.5046 47.7409 86.4529C44.8345 72.159 41.9443 57.8626 39.1288 43.5508C38.6448 41.1236 38.6448 41.1236 38.151 38.6473C37.8597 37.158 37.5684 35.6686 37.2683 34.1341C37.0118 32.8333 36.7552 31.5325 36.4909 30.1924C35.9461 26.6864 35.9461 26.6864 35.9461 20.7561C24.0839 20.7561 12.2217 20.7561 0 20.7561C0 13.9066 0 7.05708 0 0Z" fill="#101111"/>
<path d="M109.471 226.684C119.419 232.363 126.612 239.715 130.305 250.556C132.662 260.889 132.279 271.217 126.864 280.613C120.46 289.404 112.745 296.779 101.847 299.481C86.8962 300.971 75.923 298.016 64.0992 288.785C56.3796 281.193 54.3863 270.935 53.7671 260.5C54.1373 250.733 57.9607 241.606 64.4035 234.248C78.2426 224.649 93.1046 219.565 109.471 226.684Z" fill="#171818"/>
<path d="M286.439 244.226C292.815 248.794 297.625 254.793 299.55 262.417C300.692 272.446 299.931 280.944 293.559 289.103C284.543 297.345 277.133 300.119 264.886 299.991C256.019 298.934 249.975 293.919 244.227 287.435C238.266 279.21 238.945 270.715 239.64 260.934C242.609 251.601 249.796 245.981 258.081 241.105C268.179 238.78 277.34 239.076 286.439 244.226Z" fill="#1C1E1E"/>
<path d="M101.847 127.502C103.589 132.764 103.231 137.225 102.69 142.698C102.537 144.296 102.385 145.894 102.228 147.54C102.102 148.755 101.977 149.971 101.847 151.223C104.813 151.223 107.778 151.223 110.834 151.223C110.834 154.648 110.834 158.073 110.834 161.601C98.2303 158.666 98.2303 158.666 85.3721 155.671C91.28 154.209 93.5077 154.312 99.2263 155.578C100.562 155.867 101.898 156.155 103.275 156.453C104.287 156.684 105.298 156.915 106.341 157.153C106.835 156.175 107.329 155.196 107.838 154.188C105.367 153.699 102.896 153.21 100.35 152.706C100.309 149.339 100.28 145.972 100.256 142.606C100.239 140.731 100.221 138.856 100.203 136.924C100.35 131.95 100.35 131.95 101.847 127.502Z" fill="#C3CFCE"/>
<path d="M272.591 209.044C278.231 214.626 278.452 217.794 280.08 225.352C273.855 226.79 267.631 227.349 261.282 227.941C257.026 228.378 252.834 229.033 248.627 229.8C255.292 224.567 259.933 223.687 268.379 223.777C270.82 223.797 270.82 223.797 273.311 223.817C274.556 223.835 275.801 223.852 277.084 223.87C274.86 216.531 274.86 216.531 272.591 209.044Z" fill="#D3DCD9"/>
</g>
<defs>
<clipPath id="clip0_76_17">
<rect width="300" height="300" fill="white"/>
</clipPath>
</defs>
</svg>
