<svg width="300" height="300" viewBox="0 0 300 300" fill="none" xmlns="http://www.w3.org/2000/svg">
<path d="M138.712 0.271645C113.98 1.36585 89.8494 6.88064 77.6587 14.1899C71.6888 17.7789 67.7256 22.9873 67.7256 27.1891C67.7256 35.7676 80.7691 44.1274 102.441 49.5109C107.007 50.6488 108.712 50.9114 109.214 50.5613C109.665 50.1674 109.866 48.5917 109.866 44.5213C109.866 39.4879 109.766 38.8314 108.612 36.9494C106.956 34.2358 107.007 32.4413 108.813 29.9465C114.682 21.8931 139.515 16.9036 162.04 19.3108C174.03 20.5801 181.505 22.7685 187.625 26.7952C192.191 29.8152 193.344 33.0103 191.187 36.5992C189.833 38.919 189.431 41.8514 189.883 46.8848L190.234 51.0865L191.789 50.8239C195.451 50.1674 205.334 47.5851 209.197 46.2282C217.224 43.4709 223.144 40.1882 227.659 36.0303C230.97 32.9227 232.224 30.5592 232.274 27.3642C232.324 15.678 209.298 5.08615 175.585 1.36585C163.796 0.00903702 152.207 -0.29734 138.712 0.271645Z" fill="black"/>
<path d="M140.217 26.8389C133.545 27.583 124.214 29.6839 120.803 31.172L118.395 32.2224L118.294 36.9494C118.094 47.2787 118.144 54.1941 118.395 54.3254C118.545 54.4129 120.05 53.9315 121.655 53.2312C130.635 49.4671 139.013 47.8477 149.749 47.8039C160.134 47.8039 168.863 49.3358 176.89 52.6622C178.846 53.45 180.702 54.1065 181.003 54.1065C181.455 54.1065 181.605 51.2178 181.605 43.1645V32.2224L179.247 31.2158C172.174 28.1082 161.89 26.4888 150.05 26.5763C145.485 26.6201 141.07 26.7514 140.217 26.8389Z" fill="black"/>
<path d="M139.716 56.2511C133.947 57.0827 127.676 58.921 126.823 59.9714C126.271 60.6717 126.322 68.9876 126.924 68.9876C127.175 68.9876 128.579 68.55 130.034 68.0685C136.857 65.6613 140.519 64.961 147.994 64.7421C156.623 64.4795 161.037 65.0485 167.81 67.3682C170.318 68.2436 172.526 68.7688 172.726 68.5937C173.278 68.1123 173.78 62.3349 173.379 60.9343C172.977 59.5337 170.619 58.4395 165.251 57.1702C162.041 56.3824 159.532 56.2073 151.756 56.076C146.539 55.9885 141.121 56.076 139.716 56.2511Z" fill="black"/>
<path d="M43.1439 60.0591C42.1907 60.453 37.3245 62.0724 32.3579 63.7356C27.3913 65.355 21.1706 67.4121 18.5619 68.2875C15.9532 69.1629 12.2408 70.4322 10.2843 71.0449C0.953179 74.1087 0 74.7214 0 77.9165C0 79.8423 1.95652 81.418 4.16389 81.3742C5.0669 81.3742 8.97995 80.2362 12.7927 78.9232C16.6555 77.6101 22.6255 75.5968 26.087 74.5026C38.378 70.6072 49.0134 67.0182 50.1171 66.3617C50.8696 65.924 51.3211 65.0924 51.5218 63.8669C51.7726 62.2475 51.6221 61.8974 50.2676 60.6718C48.5118 59.14 46.0536 58.9211 43.1439 60.0591Z" fill="black"/>
<path d="M249.532 60.5406C247.826 62.16 247.977 65.2238 249.833 66.4493C250.535 66.887 257.207 69.2067 264.632 71.6577C272.107 74.0649 280.535 76.8223 283.445 77.829C295.084 81.7681 294.983 81.7681 296.84 81.1992C298.495 80.7177 300 78.967 300 77.4789C300 77.0849 299.549 76.122 298.997 75.3342C297.793 73.6273 295.786 72.8832 273.01 65.4864C267.843 63.8232 261.522 61.7661 258.913 60.8907C253.144 59.0087 251.238 58.9211 249.532 60.5406Z" fill="black"/>
<path d="M144.231 72.0515C134.749 73.3645 128.077 77.3474 125.368 83.3437C123.813 86.67 123.713 92.7101 125.117 95.9051C126.572 99.2753 127.024 99.4941 129.03 98.1811C131.94 96.2553 135.552 94.9422 140.619 93.9356C144.933 93.0602 146.438 92.9727 152.158 93.1915C160.636 93.4979 166.054 94.9422 170.87 98.1373C171.723 98.7063 172.576 99.1877 172.776 99.1877C172.977 99.1877 173.729 98.0498 174.482 96.6492C176.338 93.104 176.388 87.5454 174.582 83.475C172.325 78.3979 166.556 74.3712 159.281 72.708C155.469 71.8326 148.144 71.5262 144.231 72.0515Z" fill="black"/>
<path d="M227.459 73.7146C224.549 74.1085 222.894 78.5291 225.001 80.3236C225.854 81.0677 230.218 83.2123 247.827 91.4407C249.884 92.4036 251.84 93.3228 252.091 93.4979C252.392 93.6729 255.101 94.9422 258.111 96.3428C261.171 97.7434 263.881 99.0126 264.131 99.1877C264.583 99.4941 271.054 102.602 279.683 106.628C281.339 107.416 285.101 109.211 288.011 110.611C291.623 112.362 293.881 113.194 295.085 113.194C297.944 113.194 300.051 110.743 299.299 108.204C298.897 106.76 296.59 105.184 290.469 102.295C287.559 100.895 283.847 99.144 282.192 98.3561C280.536 97.5245 275.218 95.0297 270.402 92.7538C265.586 90.4341 259.265 87.4141 256.355 86.0573C253.446 84.6567 249.533 82.7746 247.576 81.8993C245.67 80.9801 241.155 78.8793 237.643 77.2161C230.921 74.021 229.215 73.452 227.459 73.7146Z" fill="black"/>
<path d="M67.9767 74.4151C67.1239 74.9403 62.7091 77.0412 43.6456 85.9699C41.8396 86.8015 39.4817 87.9395 38.378 88.4647C37.2743 89.0337 35.067 90.0841 33.5118 90.7844C30.1506 92.4038 17.9599 98.225 8.77931 102.646C5.21743 104.396 1.95656 106.059 1.60539 106.366C1.20405 106.672 0.802713 107.766 0.652211 108.729C0.30104 110.918 1.25422 112.362 3.41141 113.15C5.01676 113.763 6.57195 113.194 15.0502 109.036C17.1071 108.029 20.8696 106.235 23.3278 105.097C27.9934 102.952 29.2977 102.295 36.6222 98.7502C41.2877 96.518 43.0436 95.6427 58.1941 88.4647C63.863 85.7948 69.8831 82.9499 71.5386 82.1621C75.9533 80.1487 77.057 77.4351 74.3981 75.0278C73.3446 74.0649 72.5921 73.8023 70.9867 73.8023C69.8831 73.8023 68.5285 74.0649 67.9767 74.4151Z" fill="black"/>
<path d="M141.221 101.289C136.505 102.164 133.897 103.389 133.244 105.009C132.492 106.76 134.649 108.467 139.114 109.78C142.224 110.655 143.729 110.786 149.749 110.786C155.82 110.786 157.275 110.655 160.485 109.736C162.542 109.123 164.95 108.116 165.753 107.46C167.107 106.409 167.208 106.147 166.806 105.053C165.301 101.376 151.756 99.3628 141.221 101.289Z" fill="black"/>
<path d="M53.127 106.76C52.1739 107.329 49.515 108.948 47.1571 110.349C40.1839 114.507 36.622 116.651 31.6053 119.759C28.9966 121.378 24.933 123.873 22.525 125.274C16.8561 128.688 15.8026 129.432 15.1002 130.657C14.2474 132.058 14.7992 134.29 16.3043 135.515C18.5618 137.354 20.3678 136.916 26.4381 133.108C34.8662 127.856 42.5417 123.173 48.4113 119.671C57.8929 114.025 58.4448 113.675 59.6488 112.581C61.4046 110.961 61.2541 108.51 59.2475 106.978C57.2909 105.49 55.3846 105.403 53.127 106.76Z" fill="black"/>
<path d="M240.352 106.672C238.245 108.423 237.994 110.699 239.699 112.449C240.151 112.887 246.572 116.914 253.997 121.422C261.422 125.93 269.449 130.832 271.806 132.364C274.214 133.852 277.124 135.515 278.328 135.997C280.435 136.916 280.485 136.916 282.291 136.084C284.398 135.121 285.201 133.546 284.75 131.401C284.398 129.825 284.8 130.088 265.536 118.314C259.967 114.901 253.796 111.093 251.84 109.911C244.465 105.403 242.559 104.878 240.352 106.672Z" fill="black"/>
<path d="M74.7992 118.84C73.9464 119.321 66.2206 126.018 50.5684 139.805C38.5283 150.397 38.127 150.79 38.127 152.497C38.127 154.992 39.8828 156.524 42.7925 156.524C44.5985 156.524 45.351 156.261 46.4547 155.299C62.9598 141.118 81.2708 124.573 81.5217 123.567C82.4247 120.415 77.8093 117.176 74.7992 118.84Z" fill="black"/>
<path d="M220.485 118.971C218.83 119.759 218.228 120.722 218.228 122.56C218.228 124.311 218.529 124.617 236.438 140.461L254.599 156.568L256.756 156.524C260.318 156.524 262.927 153.329 261.321 151.053C260.92 150.484 252.542 142.912 242.709 134.246C226.304 119.803 224.649 118.446 223.144 118.446C222.241 118.446 221.037 118.708 220.485 118.971Z" fill="black"/>
<path d="M102.592 125.974C101.438 126.455 99.0801 128.994 86.4881 143.35C81.5718 148.952 76.6554 154.555 75.5517 155.736C72.4915 159.194 73.1436 162.695 77.0065 163.352C79.9664 163.833 81.5216 162.914 85.3845 158.319C88.9965 154.029 94.8159 147.464 104.298 136.828C108.913 131.664 109.565 130.701 109.565 129.213C109.615 126.28 105.803 124.53 102.592 125.974Z" fill="black"/>
<path d="M190.886 126.849C188.779 129.038 189.281 130.263 195 136.566C201.221 143.437 208.244 151.316 213.813 157.793C216.221 160.594 218.629 163.002 219.08 163.177C222.291 164.271 225.552 162.739 226.054 159.982C226.304 158.581 226.054 158.1 223.294 154.948C221.589 153.066 218.98 150.09 217.525 148.427C196.756 124.792 197.458 125.449 193.896 125.449C192.642 125.449 191.89 125.799 190.886 126.849Z" fill="black"/>
<path d="M163.345 127.944C163.194 128.075 163.044 133.064 163.044 139.017V149.784L156.321 152.06L149.599 154.379L145.184 152.673C142.726 151.71 139.866 150.703 138.863 150.44L136.957 149.871V139.673C136.957 134.071 136.806 129.169 136.656 128.775C136.054 127.462 135 128.119 131.589 131.839C126.622 137.266 125.518 138.842 124.415 141.993C121.505 150.178 125.468 158.231 134.799 163.046C136.706 164.052 138.562 164.84 138.863 164.84C139.314 164.84 139.465 167.466 139.465 175.082V185.367L140.87 186.199C143.227 187.687 151.505 191.145 152.007 190.882C152.308 190.707 152.508 189.569 152.508 188.256C152.508 184.054 154.967 179.896 158.679 177.752L160.034 177.008V171.011V165.059L162.943 164.008C166.806 162.52 172.525 157.618 174.381 154.073C175.585 151.841 175.786 150.922 175.786 147.114C175.836 142.868 175.786 142.562 173.98 139.367C172.174 136.259 165.803 128.688 164.348 127.987C163.997 127.812 163.545 127.768 163.345 127.944Z" fill="black"/>
<path d="M111.622 160.551C108.361 161.557 105.853 164.534 105.853 167.379C105.853 170.749 107.006 171.58 119.398 176.964C125.618 179.677 130.936 181.91 131.287 181.91C131.94 181.91 132.341 175.301 131.94 170.749C131.739 168.341 131.488 167.772 130.585 167.335C129.983 167.028 127.475 165.803 125.016 164.534C119.498 161.689 115.434 160.026 114.13 160.069C113.578 160.069 112.475 160.288 111.622 160.551Z" fill="black"/>
<path d="M101.037 179.24C94.7665 181.779 94.014 189.438 99.733 192.589C100.736 193.114 108.011 196.397 115.887 199.855C123.763 203.269 131.991 206.901 134.198 207.952C139.767 210.534 141.422 210.972 143.93 210.359C148.094 209.396 150.703 206.245 150.603 202.218C150.603 199.986 149.549 198.148 147.442 196.616C144.934 194.734 107.409 178.802 105.101 178.583C103.797 178.452 102.392 178.671 101.037 179.24Z" fill="black"/>
<path d="M164.298 181.691C161.137 183.354 159.783 185.455 159.783 188.738C159.783 191.057 159.983 191.758 161.288 193.377C162.642 195.084 163.846 195.697 172.776 199.548C183.863 204.319 183.361 203.75 179.097 206.858L176.689 208.608L172.525 206.901C170.218 205.938 168.161 205.282 167.96 205.369C167.759 205.501 167.559 213.729 167.559 223.665C167.559 240.296 167.509 241.828 166.706 242.66C165.251 244.148 163.395 244.279 161.739 243.054L160.284 241.96L160.134 221.257C160.034 207.208 159.833 200.38 159.432 199.986C159.131 199.68 158.529 199.417 158.077 199.417C157.375 199.417 157.274 199.898 157.425 202.918C157.676 207.645 156.07 210.884 152.107 213.685C150.652 214.736 149.197 215.611 148.947 215.611C148.094 215.611 148.495 216.53 150 218.15C151.856 220.207 153.512 224.321 153.512 227.035C153.512 231.018 151.204 234.738 147.04 237.583L145.335 238.721L147.391 242.397C149.197 245.505 149.498 246.468 149.498 248.744C149.498 255.747 143.177 261.874 135.151 262.706C131.438 263.1 127.927 262.049 117.943 257.585C113.127 255.44 108.963 253.865 108.763 254.04C108.512 254.259 109.264 255.484 110.418 256.753C118.445 265.638 131.739 272.072 146.539 274.217C151.806 275.005 152.308 275.136 153.713 276.493C160.435 283.233 171.672 293.431 173.779 294.788C175.184 295.707 176.789 297.195 177.341 298.07C177.943 298.99 178.846 299.777 179.549 299.952C181.656 300.434 200.117 297.151 208.445 294.832C210.101 294.394 213.361 293.475 215.719 292.818C226.355 289.842 249.833 280.607 254.047 277.718L255.402 276.755L254.198 275.617C253.495 275.005 252.592 273.867 252.141 273.166C251.739 272.422 250.586 271.109 249.582 270.146C248.428 269.052 247.826 268.045 247.826 267.214C247.826 266.514 247.626 265.945 247.325 265.945C246.572 265.945 241.305 268.133 239.097 269.359L237.091 270.453L233.328 266.995C231.271 265.069 227.559 261.655 225.05 259.379C220.535 255.265 209.499 244.848 207.341 242.747L206.238 241.653L207.291 238.152C208.295 234.869 208.395 233.469 208.395 217.362C208.445 198.235 208.596 199.154 205.084 195.653C203.428 194.033 195.402 190.401 178.244 183.617C169.515 180.159 167.609 179.896 164.298 181.691Z" fill="black"/>
<path d="M93.3113 201.255C88.0939 203.575 87.1909 211.016 91.7561 213.817C92.4585 214.254 102.843 218.894 114.833 224.146C135.954 233.381 136.656 233.644 139.064 233.469C143.228 233.118 145.987 230.667 146.388 227.035C146.689 224.19 145.485 221.301 143.328 219.725C142.475 219.113 132.291 214.473 120.753 209.44C97.726 199.373 97.6257 199.373 93.3113 201.255Z" fill="black"/>
<path d="M88.2944 222.483C82.174 224.671 80.7693 232.55 85.8362 235.832C86.7894 236.445 93.9633 239.771 101.84 243.229C109.716 246.687 119.9 251.151 124.465 253.208L132.793 256.885L135.351 256.316C138.763 255.615 141.723 252.902 142.224 250.101C142.676 247.606 141.773 244.805 140.067 243.185C139.214 242.354 130.836 238.458 116.388 232.199C97.7258 224.059 93.6623 222.439 91.5552 222.352C90.2007 222.264 88.6957 222.308 88.2944 222.483Z" fill="black"/>
</svg>
