<svg width="200" height="200" viewBox="0 0 200 200" fill="none" xmlns="http://www.w3.org/2000/svg">
<path d="M92.4748 0.181096C75.9865 0.910566 59.8996 4.58709 51.7725 9.45995C47.7925 11.8526 45.1504 15.3249 45.1504 18.1261C45.1504 23.8451 53.846 29.4182 68.2942 33.0072C71.3377 33.7659 72.4748 33.941 72.8093 33.7075C73.1103 33.4449 73.244 32.3945 73.244 29.6809C73.244 26.3253 73.1771 25.8876 72.4079 24.6329C71.3042 22.8238 71.3377 21.6275 72.5417 19.9643C76.4547 14.5954 93.0099 11.269 108.027 12.8739C116.02 13.7201 121.003 15.179 125.084 17.8634C128.127 19.8768 128.896 22.0068 127.458 24.3995C126.555 25.946 126.288 27.901 126.589 31.2565L126.823 34.0577L127.859 33.8826C130.301 33.4449 136.89 31.7234 139.465 30.8188C144.816 28.9806 148.762 26.7922 151.772 24.0202C153.98 21.9485 154.816 20.3728 154.849 18.2428C154.883 10.452 139.532 3.39076 117.057 0.910566C109.197 0.0060229 101.471 -0.198229 92.4748 0.181096Z" fill="black"/>
<path d="M93.4782 17.8926C89.03 18.3887 82.8093 19.7892 80.5351 20.7813L78.9297 21.4816L78.8628 24.6329C78.729 31.5191 78.7625 36.1294 78.9297 36.2169C79.03 36.2753 80.0334 35.9543 81.1036 35.4874C87.0902 32.9781 92.6755 31.8984 99.8327 31.8693C106.756 31.8693 112.575 32.8905 117.926 35.1081C119.231 35.6333 120.468 36.071 120.669 36.071C120.97 36.071 121.07 34.1452 121.07 28.7763V21.4816L119.498 20.8105C114.783 18.7388 107.926 17.6592 100.033 17.7176C96.9899 17.7467 94.0468 17.8343 93.4782 17.8926Z" fill="black"/>
<path d="M93.144 37.5007C89.2979 38.0551 85.1173 39.2806 84.5487 39.9809C84.1808 40.4478 84.2143 45.9918 84.6156 45.9918C84.7828 45.9918 85.7193 45.7 86.6892 45.379C91.2377 43.7742 93.6792 43.3073 98.6624 43.1614C104.415 42.9863 107.358 43.3657 111.873 44.9121C113.545 45.4957 115.017 45.8459 115.151 45.7292C115.519 45.4082 115.853 41.5566 115.586 40.6229C115.318 39.6891 113.746 38.9597 110.167 38.1135C108.027 37.5883 106.355 37.4716 101.171 37.384C97.6925 37.3257 94.0805 37.384 93.144 37.5007Z" fill="black"/>
<path d="M28.7625 40.0394C28.1271 40.302 24.8829 41.3816 21.5719 42.4904C18.2609 43.57 14.1137 44.9414 12.3746 45.525C10.6355 46.1086 8.16054 46.9548 6.85619 47.3633C0.635452 49.4058 0 49.8143 0 51.9443C0 53.2282 1.30435 54.2786 2.77592 54.2495C3.37793 54.2495 5.98662 53.4908 8.52843 52.6155C11.1037 51.7401 15.0836 50.3979 17.3913 49.6684C25.5853 47.0715 32.6756 44.6788 33.4114 44.2411C33.913 43.9494 34.214 43.395 34.3478 42.5779C34.5151 41.4983 34.4147 41.2649 33.5117 40.4479C32.3411 39.4266 30.7023 39.2807 28.7625 40.0394Z" fill="black"/>
<path d="M166.354 40.3604C165.217 41.44 165.317 43.4825 166.555 44.2995C167.023 44.5913 171.471 46.1378 176.421 47.7718C181.404 49.3766 187.023 51.2149 188.963 51.886C196.722 54.5121 196.655 54.5121 197.893 54.1328C198.996 53.8118 200 52.6447 200 51.6526C200 51.39 199.699 50.748 199.331 50.2228C198.528 49.0848 197.19 48.5888 182.006 43.6576C178.562 42.5488 174.348 41.1774 172.608 40.5938C168.762 39.3391 167.491 39.2808 166.354 40.3604Z" fill="black"/>
<path d="M96.1539 48.0343C89.8328 48.9097 85.3846 51.5649 83.5786 55.5624C82.5418 57.78 82.4749 61.8067 83.4114 63.9367C84.3813 66.1835 84.6823 66.3294 86.0201 65.454C87.9599 64.1702 90.3679 63.2948 93.7458 62.6237C96.6221 62.0401 97.6254 61.9818 101.438 62.1277C107.09 62.3319 110.702 63.2948 113.913 65.4249C114.482 65.8042 115.05 66.1252 115.184 66.1252C115.318 66.1252 115.819 65.3665 116.321 64.4328C117.559 62.0693 117.592 58.3636 116.388 55.65C114.883 52.2652 111.037 49.5808 106.187 48.472C103.646 47.8884 98.7626 47.6842 96.1539 48.0343Z" fill="black"/>
<path d="M151.639 49.1431C149.699 49.4057 148.595 52.3528 150 53.5491C150.569 54.0451 153.478 55.4749 165.217 60.9605C166.589 61.6024 167.893 62.2152 168.06 62.3319C168.261 62.4486 170.067 63.2948 172.074 64.2285C174.114 65.1623 175.92 66.0084 176.087 66.1252C176.388 66.3294 180.702 68.4011 186.455 71.0856C187.559 71.6108 190.067 72.8071 192.007 73.7408C194.415 74.908 195.92 75.4624 196.722 75.4624C198.629 75.4624 200.033 73.8284 199.532 72.136C199.264 71.1731 197.726 70.1227 193.645 68.1969C191.706 67.2631 189.231 66.096 188.127 65.5708C187.023 65.0164 183.478 63.3532 180.268 61.8359C177.057 60.2894 172.843 58.2761 170.903 57.3715C168.963 56.4378 166.355 55.1831 165.05 54.5995C163.779 53.9868 160.769 52.5862 158.428 51.4774C153.946 49.3473 152.809 48.968 151.639 49.1431Z" fill="black"/>
<path d="M45.3176 49.6101C44.749 49.9602 41.8059 51.3608 29.0969 57.3133C27.8928 57.8677 26.3209 58.6263 25.5851 58.9765C24.8494 59.3558 23.3778 60.0561 22.341 60.5229C20.1002 61.6025 11.9731 65.4833 5.8527 68.4304C3.47812 69.5975 1.30421 70.7063 1.0701 70.9106C0.802537 71.1148 0.534979 71.8443 0.434644 72.4862C0.200531 73.9452 0.835982 74.9081 2.27411 75.4333C3.34434 75.8418 4.38113 75.4625 10.0333 72.6905C11.4045 72.0194 13.9129 70.823 15.5517 70.0644C18.6621 68.6346 19.5316 68.197 24.4146 65.8335C27.5249 64.3454 28.6955 63.7618 38.7958 58.9765C42.5751 57.1966 46.5885 55.2999 47.6922 54.7747C50.6353 53.4325 51.3711 51.6234 49.5985 50.0186C48.8962 49.3766 48.3945 49.2016 47.3243 49.2016C46.5885 49.2016 45.6855 49.3766 45.3176 49.6101Z" fill="black"/>
<path d="M94.1474 67.5257C91.0036 68.1093 89.2644 68.9263 88.8296 70.0059C88.328 71.1731 89.7661 72.3111 92.7427 73.1864C94.8163 73.77 95.8196 73.8575 99.833 73.8575C103.88 73.8575 104.85 73.77 106.99 73.1573C108.361 72.7487 109.967 72.0776 110.502 71.64C111.405 70.9397 111.472 70.7646 111.204 70.0351C110.201 67.5841 101.171 66.2419 94.1474 67.5257Z" fill="black"/>
<path d="M35.4182 71.1731C34.7828 71.5524 33.0102 72.6321 31.4383 73.5658C26.7895 76.3378 24.4149 77.7675 21.0704 79.8392C19.3313 80.9188 16.6223 82.582 15.0169 83.5157C11.2376 85.7917 10.5353 86.2877 10.0671 87.1047C9.49851 88.0385 9.86641 89.5266 10.8698 90.3436C12.3748 91.5691 13.5788 91.2773 17.6256 88.7387C23.2443 85.2373 28.3614 82.1152 32.2744 79.7809C38.5955 76.0168 38.9634 75.7834 39.7661 75.0539C40.9366 73.9743 40.8363 72.3403 39.4985 71.319C38.1942 70.3269 36.9233 70.2686 35.4182 71.1731Z" fill="black"/>
<path d="M160.234 71.1147C158.83 72.2819 158.662 73.7992 159.799 74.9663C160.1 75.2581 164.381 77.9426 169.331 80.948C174.281 83.9534 179.632 87.2214 181.204 88.2427C182.809 89.2348 184.749 90.3436 185.552 90.6645C186.957 91.2773 186.99 91.2773 188.194 90.7229C189.599 90.0809 190.134 89.0305 189.833 87.6007C189.599 86.5503 189.866 86.7254 177.024 78.8763C173.311 76.6003 169.197 74.0618 167.893 73.274C162.977 70.2685 161.706 69.9184 160.234 71.1147Z" fill="black"/>
<path d="M49.8661 79.2264C49.2976 79.5474 44.1471 84.0117 33.7123 93.2031C25.6855 100.264 25.418 100.527 25.418 101.665C25.418 103.328 26.5885 104.349 28.5283 104.349C29.7323 104.349 30.234 104.174 30.9698 103.532C41.9732 94.0784 54.1805 83.0488 54.3477 82.3777C54.9497 80.2769 51.8728 78.1176 49.8661 79.2264Z" fill="black"/>
<path d="M146.99 79.314C145.886 79.8392 145.485 80.4812 145.485 81.7067C145.485 82.8738 145.686 83.0781 157.625 93.6408L169.732 104.379L171.17 104.349C173.545 104.349 175.284 102.219 174.214 100.702C173.946 100.323 168.361 95.2748 161.806 89.4974C150.869 79.8684 149.766 78.9639 148.762 78.9639C148.16 78.9639 147.358 79.1389 146.99 79.314Z" fill="black"/>
<path d="M68.3945 83.9826C67.6253 84.3036 66.0534 85.9959 57.6588 95.5666C54.3812 99.3015 51.1036 103.036 50.3678 103.824C48.3277 106.129 48.7624 108.464 51.3377 108.901C53.3109 109.222 54.3477 108.609 56.923 105.546C59.331 102.686 63.2106 98.3094 69.5317 91.2189C72.6086 87.7758 73.0434 87.1339 73.0434 86.1418C73.0768 84.1868 70.535 83.0197 68.3945 83.9826Z" fill="black"/>
<path d="M127.258 84.5661C125.853 86.025 126.187 86.842 130 91.0438C134.147 95.6249 138.829 100.877 142.542 105.196C144.147 107.063 145.753 108.668 146.054 108.785C148.194 109.514 150.368 108.493 150.702 106.654C150.87 105.721 150.702 105.4 148.863 103.299C147.726 102.044 145.987 100.06 145.017 98.9512C131.171 83.1947 131.639 83.6324 129.264 83.6324C128.428 83.6324 127.926 83.8658 127.258 84.5661Z" fill="black"/>
<path d="M108.896 85.2957C108.796 85.3832 108.696 88.7096 108.696 92.6779V99.8559L104.214 101.373L99.7325 102.92L96.7893 101.782C95.1505 101.14 93.2442 100.469 92.5753 100.294L91.3044 99.9142V93.1156C91.3044 89.3807 91.204 86.1127 91.1037 85.8501C90.7024 84.9747 90 85.4124 87.7258 87.8926C84.4147 91.5108 83.679 92.5612 82.9432 94.6621C81.0034 100.118 83.6455 105.487 89.8662 108.697C91.1371 109.368 92.3746 109.893 92.5753 109.893C92.8763 109.893 92.9766 111.644 92.9766 116.721V123.578L93.9131 124.133C95.485 125.125 101.003 127.43 101.338 127.255C101.538 127.138 101.672 126.379 101.672 125.504C101.672 122.703 103.311 119.931 105.786 118.501L106.689 118.005V114.008V110.039L108.629 109.339C111.204 108.347 115.017 105.079 116.254 102.715C117.057 101.227 117.191 100.615 117.191 98.076C117.224 95.2456 117.191 95.0414 115.987 92.9113C114.783 90.8396 110.535 85.7917 109.565 85.3248C109.331 85.2081 109.03 85.179 108.896 85.2957Z" fill="black"/>
<path d="M74.4148 107.034C72.2408 107.705 70.5686 109.689 70.5686 111.586C70.5686 113.832 71.3378 114.387 79.5987 117.976C83.7459 119.785 87.291 121.273 87.5251 121.273C87.9599 121.273 88.2275 116.867 87.9599 113.832C87.8261 112.228 87.6589 111.848 87.0569 111.557C86.6556 111.352 84.9833 110.535 83.3445 109.689C79.6656 107.792 76.9566 106.684 76.087 106.713C75.7191 106.713 74.9833 106.859 74.4148 107.034Z" fill="black"/>
<path d="M67.3581 119.493C63.1775 121.186 62.6758 126.292 66.4885 128.393C67.1574 128.743 72.0069 130.931 77.2578 133.237C82.5086 135.512 87.9935 137.934 89.4651 138.635C93.1775 140.356 94.2812 140.648 95.9534 140.239C98.7293 139.598 100.468 137.497 100.402 134.812C100.402 133.324 99.6992 132.099 98.2945 131.077C96.6223 129.823 71.6056 119.202 70.0671 119.056C69.1976 118.968 68.2611 119.114 67.3581 119.493Z" fill="black"/>
<path d="M109.532 121.127C107.425 122.236 106.522 123.637 106.522 125.825C106.522 127.371 106.655 127.838 107.525 128.918C108.428 130.056 109.231 130.464 115.184 133.032C122.575 136.213 122.241 135.833 119.398 137.905L117.793 139.072L115.017 137.934C113.478 137.292 112.107 136.855 111.973 136.913C111.839 137 111.706 142.486 111.706 149.11C111.706 160.198 111.672 161.219 111.137 161.773C110.167 162.765 108.93 162.853 107.826 162.036L106.856 161.306L106.756 147.505C106.689 138.138 106.555 133.587 106.288 133.324C106.087 133.12 105.686 132.945 105.385 132.945C104.916 132.945 104.849 133.266 104.95 135.279C105.117 138.43 104.047 140.589 101.405 142.457C100.435 143.157 99.4648 143.741 99.2976 143.741C98.729 143.741 98.9966 144.354 99.9999 145.433C101.237 146.805 102.341 149.547 102.341 151.356C102.341 154.012 100.803 156.492 98.0267 158.389L96.8895 159.147L98.2608 161.598C99.4648 163.67 99.6655 164.312 99.6655 165.829C99.6655 170.498 95.4514 174.583 90.1002 175.137C87.6253 175.4 85.2842 174.699 78.6287 171.723C75.418 170.293 72.642 169.243 72.5083 169.36C72.341 169.506 72.8427 170.323 73.6119 171.169C78.9631 177.092 87.826 181.381 97.6922 182.811C101.204 183.336 101.538 183.424 102.475 184.328C106.956 188.822 114.448 195.621 115.853 196.525C116.789 197.138 117.859 198.13 118.227 198.714C118.629 199.326 119.231 199.852 119.699 199.968C121.104 200.289 133.411 198.101 138.963 196.554C140.067 196.263 142.241 195.65 143.813 195.212C150.903 193.228 166.555 187.071 169.364 185.146L170.267 184.504L169.465 183.745C168.997 183.336 168.395 182.578 168.094 182.111C167.826 181.615 167.057 180.74 166.388 180.098C165.619 179.368 165.217 178.697 165.217 178.143C165.217 177.676 165.084 177.296 164.883 177.296C164.381 177.296 160.869 178.755 159.398 179.572L158.06 180.302L155.552 177.997C154.181 176.713 151.706 174.437 150.033 172.92C147.023 170.177 139.665 163.232 138.227 161.832L137.492 161.102L138.194 158.768C138.863 156.579 138.93 155.646 138.93 144.908C138.963 132.157 139.063 132.77 136.722 130.435C135.619 129.356 130.267 126.934 118.829 122.411C113.01 120.106 111.739 119.931 109.532 121.127Z" fill="black"/>
<path d="M62.2075 134.17C58.7293 135.717 58.1273 140.677 61.1708 142.544C61.639 142.836 68.5621 145.929 76.5554 149.431C90.6356 155.587 91.1039 155.762 92.7092 155.646C95.4851 155.412 97.3246 153.778 97.5922 151.356C97.7928 149.46 96.9901 147.534 95.552 146.484C94.9835 146.075 88.1942 142.982 80.5019 139.627C65.1507 132.915 65.0838 132.915 62.2075 134.17Z" fill="black"/>
<path d="M58.8629 148.322C54.7826 149.781 53.8462 155.033 57.2241 157.221C57.8596 157.63 62.6422 159.848 67.893 162.153C73.1438 164.458 79.9331 167.434 82.9766 168.805L88.5285 171.256L90.2341 170.877C92.5084 170.41 94.4816 168.601 94.8161 166.734C95.1171 165.071 94.5151 163.203 93.378 162.124C92.8094 161.569 87.2241 158.972 77.592 154.8C65.1505 149.372 62.4415 148.293 61.0368 148.234C60.1338 148.176 59.1305 148.205 58.8629 148.322Z" fill="black"/>
</svg>
