<svg width="300" height="300" viewBox="0 0 300 300" fill="none" xmlns="http://www.w3.org/2000/svg">
<path d="M2.11389 1.53177C-1.22822 4.40387 -0.46598 11.4883 3.40383 14.4561C5.456 15.9879 20.4075 24.6041 28.499 28.8165L32.7792 31.1141L34.1278 37.3369C34.89 40.7834 36.4145 46.7191 37.6458 50.4527C39.7566 57.4415 39.7566 57.4415 38.408 57.4415C35.8281 57.4415 30.7857 62.5155 28.9094 66.8236L27.1504 71.0359L26.9745 88.8428L26.7986 106.65L22.9874 112.872C14.0751 127.616 6.3355 152.794 6.3355 167.25C6.3355 171.75 7.80134 174.239 10.4398 174.239C13.0197 174.239 13.8992 172.229 15.7169 162.272C16.5964 157.007 17.9449 150.592 18.5899 148.103C20.5834 140.54 24.9809 130.201 29.3785 122.733L33.4828 115.84H47.4962H61.5096L64.969 121.201C71.8291 131.828 77.2234 147.242 79.686 163.229C81.3277 173.952 81.5036 192.237 80.0378 202.194C77.5165 219.331 72.5913 233.691 65.1449 245.754C60.806 252.838 52.7732 261.55 49.0207 263.465C47.0271 264.422 46.5581 264.231 42.3951 260.497C28.6162 248.434 18.7072 227.277 15.3651 202.96C14.3097 195.397 13.2543 192.812 10.9089 191.854C9.61898 191.376 8.91537 191.854 7.44954 194.248C5.8078 196.928 5.69053 197.599 6.04234 201.332C6.6873 208.13 10.3812 225.075 12.6093 231.681C19.059 250.828 30.1993 267.773 41.7501 276.102C46.4408 279.453 49.1379 279.357 54.239 275.336C67.3729 265.092 77.2234 249.2 83.4385 228.33C88.7742 210.523 90.8263 192.237 89.595 173.473C88.0706 150.209 82.6763 131.062 72.7672 113.926L68.3697 106.267L68.487 90.4703C68.5456 76.8758 68.3697 74.0995 67.4316 70.5573C65.5553 63.76 60.2783 57.4415 56.3499 57.4415C55.2944 57.4415 55.3531 57.25 57.6398 49.7826C59.9265 42.3152 59.9265 42.3152 65.6726 44.5171C81.2104 50.357 107.302 55.8139 129.759 57.9201L136.267 58.5903L139.023 68.2596C141.896 78.2161 141.896 79.3649 139.14 79.4607C137.03 79.5564 133.277 83.7688 131.459 88.2684C129.173 93.821 128.762 98.2249 128.938 114.979L129.114 128.094L126.534 132.307C117.68 146.763 112.169 162.368 109.179 181.898C108.299 187.546 108.065 192.525 108.065 205.353C108.065 220.001 108.24 222.586 109.648 230.723C111.583 242.02 114.925 254.178 116.449 255.519C119.557 258.199 123.016 255.231 123.016 249.87C123.016 248.243 122.371 244.892 121.609 242.403C115.921 223.83 114.925 198.939 119.029 178.068C121.609 165.048 125.713 154.135 131.928 143.795L135.505 137.859H149.988H164.47L168.047 143.795C178.366 160.932 183.409 180.941 183.409 204.97C183.409 231.776 176.255 256.285 163.825 272.464C158.724 279.07 152.04 285.293 149.988 285.293C148.053 285.293 141.368 279.165 136.795 273.23C132.222 267.39 130.58 266.337 128.586 268.06C126.651 269.783 125.831 273.134 126.593 276.676C127.414 280.506 135.446 290.271 142.248 295.823C149.049 301.376 150.984 301.376 157.61 295.919C174.203 282.229 185.637 259.252 190.562 229.766C191.735 222.681 191.91 219.426 191.91 204.874C191.91 186.876 191.324 181.323 187.747 166.58C184.816 154.517 178.659 139.966 172.913 131.541L170.861 128.477L171.037 113.734C171.213 97.1718 170.744 93.1509 168.164 87.311C166.464 83.3858 162.711 79.4607 160.717 79.4607C158.079 79.3649 158.079 78.1204 160.893 68.3553C162.418 63.1856 163.649 58.7818 163.708 58.686C163.766 58.686 168.633 58.1116 174.614 57.5372C193.318 55.6225 212.667 51.6016 229.905 45.9532C234.654 44.3257 238.934 43.0811 239.404 43.0811C239.873 43.0811 241.163 46.0489 242.335 49.7826C244.622 57.25 244.681 57.4415 243.684 57.4415C239.697 57.4415 234.42 63.76 232.543 70.5573C231.605 74.0995 231.429 76.8758 231.488 90.566L231.605 106.554L228.146 112.394C221.638 123.308 220.875 126.371 223.573 130.679C226.094 134.892 227.501 133.934 233.13 124.456L238.231 115.84H252.362H266.492L270.831 123.212C277.867 135.37 281.033 144.178 284.082 160.74C285.372 167.92 285.607 170.793 285.665 182.855C285.665 193.003 285.431 198.46 284.669 203.343C280.74 229 271.007 249.296 257.052 260.976L252.772 264.614L250.133 262.986C246.029 260.401 238.583 251.976 234.42 245.084C227.442 233.787 222.458 218.852 219.937 202.194C218.53 192.812 218.706 173.282 220.289 163.325C221.931 153.177 221.872 150.88 219.996 148.486C218.178 146.188 217.475 145.997 215.422 147.529C210.908 150.975 208.562 184.77 211.435 205.353C215.598 235.127 227.618 260.401 243.977 273.9C251.423 279.931 253.3 280.027 259.691 274.857C266.082 269.592 270.362 264.805 275.111 257.529C294.988 227.085 300.382 179.122 288.421 139.296C285.138 128.382 282.265 121.872 276.929 112.968L273.176 106.65L273.001 88.8428L272.825 71.0359L271.066 66.8236C269.189 62.5155 264.147 57.4415 261.567 57.4415C260.218 57.4415 260.218 57.4415 262.329 50.4527C263.561 46.7191 265.085 40.7834 265.847 37.3369L267.196 31.1141L273.235 27.8591C283.027 22.6894 294.343 16.1794 296.571 14.4561C300.676 11.2968 301.203 4.21237 297.568 1.3403C295.809 -0.0957336 295.457 0 290.708 2.87207C283.32 7.37167 267.137 16.2751 266.258 16.2751C265.847 16.2751 264.499 14.5518 263.326 12.3499C260.043 6.41431 257.169 4.40387 252.303 4.40387C249.254 4.40387 247.612 4.88254 245.795 6.41431C241.456 10.148 237.938 18.477 237.938 24.8913C237.938 28.625 237.351 29.0079 227.97 31.9757C211.259 37.3369 193.904 40.9749 175.2 43.0811C163.415 44.4214 164.353 44.6129 163.59 40.4005C162.77 35.9009 159.603 30.444 156.261 27.5719C152.861 24.6998 147.114 24.6998 143.714 27.5719C140.372 30.444 137.205 35.9009 136.385 40.4962L135.681 44.2299L129.818 43.5598C106.012 41.1664 83.5558 36.3796 66.3175 30.061L62.0373 28.5293V25.2743C62.0373 20.8704 60.8646 16.4666 58.5193 12.0627C55.529 6.51004 52.48 4.40387 47.6721 4.40387C42.8055 4.40387 39.9325 6.41431 36.649 12.3499C35.4763 14.5518 34.1864 16.2751 33.8932 16.2751C32.8965 16.2751 19.1176 8.80771 11.4366 4.21237C7.62544 1.91473 4.34196 0 4.10743 0C3.8729 0.0957336 2.99339 0.670166 2.11389 1.53177ZM58.2261 74.1952C59.6333 76.3971 59.692 76.9715 59.692 89.0343V101.48H47.6721H35.6522V88.5556C35.6522 71.1317 35.1832 71.8018 47.4962 71.8018C56.5844 71.8018 56.8189 71.8976 58.2261 74.1952ZM263.033 73.7165C264.264 75.5355 264.323 76.5886 264.323 88.5556V101.48H252.303H240.283V89.0343C240.283 76.9715 240.342 76.3971 241.749 74.1952C243.156 71.8976 243.391 71.8018 252.479 71.8018C260.981 71.8018 261.86 71.9933 263.033 73.7165ZM159.603 93.9168C161.89 95.64 162.359 98.9908 162.183 111.532L162.007 123.02H149.988H137.968L137.792 111.532C137.616 99.278 138.144 95.64 140.196 94.0125C141.955 92.5765 157.727 92.5765 159.603 93.9168Z" fill="black"/>
</svg>
