<?xml version="1.0" encoding="iso-8859-1"?>
<!-- Uploaded to: SVG Repo, www.svgrepo.com, Generator: SVG Repo Mixer Tools -->
<svg height="800px" width="800px" version="1.1" id="Layer_1" xmlns="http://www.w3.org/2000/svg" xmlns:xlink="http://www.w3.org/1999/xlink" 
	 viewBox="0 0 503.607 503.607" xml:space="preserve">
<g transform="translate(1 1)">
	<path style="fill:#FFE100;" d="M460.639,108.115H343.131c0,51.2-41.128,92.328-92.328,92.328s-92.328-41.128-92.328-92.328H40.967
		c0,95.685,63.79,176.262,151.082,201.443v83.934h117.508v-83.934C396.849,284.377,460.639,203.8,460.639,108.115"/>
	<path style="fill:#FFA800;" d="M40.967,57.754h117.508V16.626c0-5.036-4.197-9.233-9.233-9.233H51.039
		c-5.875,0-10.072,4.197-10.072,9.233V57.754z"/>
	<path style="fill:#FFE100;" d="M40.967,57.754h92.328V16.626c0-5.036-4.197-9.233-9.233-9.233H51.039
		c-5.875,0-10.072,4.197-10.072,9.233V57.754z"/>
	<path style="fill:#FFA800;" d="M182.816,108.115H17.466c-5.875,0-10.072-4.197-10.072-9.233V66.987
		c0-5.036,4.197-9.233,10.072-9.233h165.351c5.036,0,9.233,4.197,9.233,9.233v31.056
		C192.049,103.918,187.852,108.115,182.816,108.115"/>
	<path style="fill:#FFE100;" d="M157.636,108.115H17.466c-5.875,0-10.072-4.197-10.072-9.233V66.987
		c0-5.036,4.197-9.233,10.072-9.233h140.17c5.036,0,9.233,4.197,9.233,9.233v31.056
		C166.869,103.918,162.672,108.115,157.636,108.115"/>
	<path style="fill:#FFA800;" d="M343.131,57.754h117.508V16.626c0-5.036-4.197-9.233-9.233-9.233h-98.203
		c-5.875,0-10.072,4.197-10.072,9.233V57.754z"/>
	<path style="fill:#FFE100;" d="M343.131,57.754h92.328V16.626c0-5.036-4.197-9.233-9.233-9.233h-73.023
		c-5.875,0-10.072,4.197-10.072,9.233V57.754z"/>
	<path style="fill:#FFA800;" d="M484.98,108.115H319.629c-5.036,0-9.233-4.197-9.233-9.233V66.987
		c-0.839-5.036,3.357-9.233,9.233-9.233H484.98c5.036,0,9.233,4.197,9.233,9.233v31.056
		C494.213,103.918,490.016,108.115,484.98,108.115"/>
	<path style="fill:#FFE100;" d="M459.8,108.115H319.629c-5.036,0-9.233-4.197-9.233-9.233V66.987
		c-0.839-5.036,3.357-9.233,9.233-9.233H459.8c5.036,0,9.233,4.197,9.233,9.233v31.056
		C469.033,103.918,464.836,108.115,459.8,108.115"/>
	<path style="fill:#FFA800;" d="M192.049,443.852h117.508v41.128c0,5.036-4.197,9.233-9.233,9.233h-98.203
		c-5.036,0-9.233-4.197-9.233-9.233v-41.128H192.049z"/>
	<path style="fill:#FFE100;" d="M192.049,443.852h92.328v41.128c0,5.036-4.197,9.233-9.233,9.233h-73.023
		c-5.036,0-9.233-4.197-9.233-9.233v-41.128H192.049z"/>
	<path style="fill:#FFA800;" d="M333.898,393.492H168.548c-5.036,0-9.233,4.197-9.233,9.233v31.056c0,5.036,4.197,9.233,9.233,9.233
		h165.351c5.036,0,9.233-4.197,9.233-9.233v-31.056C343.131,397.689,338.934,393.492,333.898,393.492"/>
	<path style="fill:#FFE100;" d="M308.718,393.492h-140.17c-5.036,0-9.233,4.197-9.233,9.233v31.056c0,5.036,4.197,9.233,9.233,9.233
		h140.17c5.036,0,9.233-4.197,9.233-9.233v-31.056C317.951,397.689,313.754,393.492,308.718,393.492"/>
	<path d="M300.325,502.607h-98.203c-10.072,0-18.466-8.393-18.466-17.626v-41.128c0-5.036,3.357-8.393,8.393-8.393h117.508
		c5.036,0,8.393,3.357,8.393,8.393v41.128C317.951,494.213,310.397,502.607,300.325,502.607z M200.443,452.246v32.734
		c0,0.839,0.839,0.839,0.839,0.839h98.203c0.839,0,0.839-0.839,0.839-0.839v-32.734H200.443z"/>
	<path d="M333.898,452.246H168.548c-10.072,0-18.466-8.393-18.466-17.626v-31.056c0-10.072,8.393-17.626,17.626-17.626h165.351
		c10.072,0,17.626,8.393,17.626,17.626v31.056C351.525,443.852,343.97,452.246,333.898,452.246z M168.548,401.885
		c-0.839,0-0.839,0.839-0.839,0.839v31.056c0,0.839,0.839,0.839,0.839,0.839h165.351c0.839,0,0.839-0.839,0.839-0.839v-31.056
		c0-0.839-0.839-0.839-0.839-0.839H168.548z"/>
	<path d="M158.475,66.148H40.967c-4.197,0-8.393-3.357-8.393-8.393V16.626C32.574,7.393,40.967-1,51.039-1h98.203
		c10.072,0,17.626,8.393,17.626,17.626v41.128C166.869,62.79,163.511,66.148,158.475,66.148z M49.361,49.361h100.721V16.626
		c0,0,0-0.839-0.839-0.839H51.039c-0.839,0-1.679,0.839-1.679,0.839V49.361z"/>
	<path d="M182.816,116.508H17.466C7.393,116.508-1,108.115-1,98.882V66.987c0-9.233,8.393-17.626,18.466-17.626h165.351
		c10.072,0,17.626,8.393,17.626,17.626v31.056C200.443,108.115,192.889,116.508,182.816,116.508z M17.466,66.148
		c-0.839,0-1.679,0.839-1.679,0.839v31.056c0,0.839,0.839,1.679,1.679,1.679h165.351c0.839,0,0.839-0.839,0.839-0.839V66.987
		c0,0,0-0.839-0.839-0.839H17.466z"/>
	<path d="M460.639,66.148H343.131c-5.036,0-8.393-3.357-8.393-8.393V16.626C334.738,7.393,343.131-1,353.203-1h98.203
		c10.072,0,17.626,8.393,17.626,17.626v41.128C469.033,62.79,465.675,66.148,460.639,66.148z M351.525,49.361h100.721V16.626
		c0,0,0-0.839-0.839-0.839h-98.203c-0.839,0-1.679,0.839-1.679,0.839V49.361z"/>
	<path d="M484.98,116.508H319.629c-10.072,0-18.466-8.393-18.466-17.626V66.987c0-9.233,8.393-17.626,18.466-17.626H484.98
		c10.072,0,17.626,8.393,17.626,17.626v31.056C502.607,108.115,495.052,116.508,484.98,116.508z M319.629,66.148
		c-0.839,0-1.679,0.839-1.679,0.839v31.056c0,0.839,0.839,0.839,0.839,0.839h165.351c0.839,0,0.839-0.839,0.839-0.839V66.987
		c0.839,0,0.839-0.839,0-0.839H319.629z"/>
	<path d="M309.557,401.885H192.049c-5.036,0-8.393-3.357-8.393-8.393v-78.059C94.685,286.895,32.574,202.121,32.574,108.115
		c0-5.036,3.357-8.393,8.393-8.393h117.508c5.036,0,8.393,3.357,8.393,8.393c0,46.164,37.77,83.934,83.934,83.934
		s83.934-37.77,83.934-83.934c0-5.036,3.357-8.393,8.393-8.393h117.508c5.036,0,8.393,3.357,8.393,8.393
		c0,94.007-62.112,178.78-151.082,207.318v78.059C317.951,398.528,314.593,401.885,309.557,401.885z M200.443,385.098h100.721
		v-75.541c0-3.357,2.518-6.715,5.875-8.393c83.095-24.341,141.01-99.882,145.207-184.656H351.525
		c-4.197,52.039-47.843,92.328-100.721,92.328s-95.685-40.289-100.721-92.328H49.361c3.357,85.613,62.111,161.154,145.207,184.656
		c3.357,0.839,5.875,4.197,5.875,8.393V385.098z"/>
</g>
</svg>