<svg width="200" height="200" viewBox="0 0 200 200" fill="none" xmlns="http://www.w3.org/2000/svg">
<path d="M16.2109 13.0469C14.6093 13.75 12.9687 15.7422 12.6953 17.3047C12.5781 18.0078 12.5 26.3672 12.5781 35.9375L12.6953 53.3203L14.0234 55.7812C15.5078 58.5156 16.7578 59.7266 19.6875 61.25C21.4843 62.1484 22.1875 62.2656 27.0703 62.4219C30 62.5 32.4218 62.6172 32.4218 62.6562C32.4218 62.6953 33.6718 68.8672 35.1562 76.3672C37.9687 90.4297 38.2031 91.0938 40.3906 92.7344C41.4453 93.5547 41.4843 93.5547 100 93.5547C158.516 93.5547 158.555 93.5547 159.609 92.7344C161.797 91.0938 162.031 90.4297 164.844 76.3672C166.328 68.8672 167.578 62.6953 167.578 62.6562C167.578 62.6172 170 62.5 172.969 62.4219C177.812 62.2656 178.516 62.1484 180.312 61.25C183.242 59.7266 184.492 58.5156 185.977 55.7812L187.305 53.3203V34.8828C187.305 16.875 187.305 16.4453 186.484 15.3906C186.055 14.8047 185.195 13.9453 184.609 13.5156L183.555 12.6953L100.469 12.6172C31.9921 12.5391 17.1875 12.6172 16.2109 13.0469ZM175 37.5V50H100H25V37.5V25H100H175V37.5ZM62.5781 66.7578C62.6562 70.3516 62.8125 71.2109 63.5156 72.1094C65.039 74.1797 66.289 74.8047 68.75 74.8047C71.2109 74.8047 72.4609 74.1797 73.9843 72.1094C74.6875 71.2109 74.8437 70.3516 74.9218 66.7578L75.0781 62.5H84.375H93.6718L93.8281 66.7578C93.9453 71.3672 94.2968 72.2656 96.6406 73.9844C98.164 75.1172 101.836 75.1172 103.359 73.9844C105.703 72.2656 106.055 71.3672 106.172 66.7578L106.328 62.5H115.625H124.922L125.078 66.7578C125.156 70.3516 125.312 71.2109 126.016 72.1094C127.539 74.1797 128.789 74.8047 131.25 74.8047C133.711 74.8047 134.961 74.1797 136.484 72.1094C137.187 71.2109 137.344 70.3516 137.422 66.7578L137.578 62.5H146.133C152.93 62.5 154.687 62.6172 154.687 63.0078C154.687 63.2812 153.906 67.4609 152.93 72.2656C151.953 77.0703 151.172 81.0547 151.172 81.1328C151.172 81.2109 128.164 81.25 100 81.25C71.875 81.25 48.8281 81.2109 48.8281 81.1328C48.8281 81.0547 48.0468 77.0703 47.0703 72.2656C46.0937 67.4609 45.3125 63.2812 45.3125 63.0078C45.3125 62.6172 47.0703 62.5 53.8671 62.5H62.4218L62.5781 66.7578Z" fill="black"/>
<path d="M97.4608 31.7969C93.5155 33.5156 92.578 38.75 95.664 41.8359C100.039 46.25 107.226 42.3047 106.094 36.1328C105.391 32.4609 100.976 30.2344 97.4608 31.7969Z" fill="black"/>
<path d="M41.2109 106.797C39.6093 107.5 37.9687 109.492 37.6562 111.133C37.2265 113.398 37.8124 115 39.9218 117.617C42.2265 120.508 43.7499 123.516 43.7499 125.195C43.7109 126.992 42.4999 129.297 39.9609 132.266C32.2656 141.25 30.2734 146.289 31.6796 153.203C32.6562 158.008 38.0077 166.523 41.0156 168.086C42.7343 168.984 45.7421 168.789 47.1874 167.695C49.1406 166.211 49.8046 164.961 49.8046 162.539C49.8046 160.43 49.6874 160.156 47.5781 157.383C42.5781 150.82 42.5781 148.555 47.5781 142.695C54.8827 134.18 57.0312 129.023 55.9374 122.539C55.0781 117.266 49.8437 108.633 46.4843 106.953C44.8827 106.133 42.8515 106.094 41.2109 106.797Z" fill="black"/>
<path d="M99.2188 107.031C93.6328 108.203 89.375 110.117 84.5313 113.516C70.3125 123.516 60.5859 144.258 62.8516 159.727C64.1406 168.477 69.1797 178.203 75.7813 184.531C78.5547 187.227 80 187.812 82.6172 187.344C85.5078 186.797 86.1328 185.82 90.0391 175.781C91.2891 172.656 93.125 168.437 94.1797 166.406C96.3672 162.109 99.4531 157.656 100.039 158.008C100.781 158.516 102.383 162.227 103.32 165.742C103.828 167.734 104.805 172.578 105.43 176.523C106.641 184.023 106.953 184.883 109.063 186.445C109.648 186.875 110.938 187.305 111.992 187.383C113.555 187.539 114.258 187.344 116.211 186.289C124.023 182.109 130.586 175.625 134.102 168.555C138.281 160.156 138.516 152.031 134.766 144.219C132.852 140.195 130.742 137.227 126.094 132.07C116.836 121.758 114.609 118.711 113.32 114.57C112.852 113.125 112.305 111.289 112.07 110.547C110.781 106.445 106.875 105.391 99.2188 107.031ZM103.203 122.773C105.508 127.227 108.203 130.859 114.258 137.5C122.266 146.328 124.531 149.961 124.922 154.531C125.273 158.906 123.047 164.062 118.828 168.75C117.266 170.469 117.266 170.508 117.031 169.531C114.844 159.805 113.828 156.758 111.406 152.539C108.711 147.969 103.242 143.75 100 143.75C96.6406 143.75 90.4688 148.711 86.6016 154.531C84.9219 157.109 81.4453 163.711 79.8828 167.383L79.2188 168.945L77.6953 165.82C75 160.273 74.4141 155.352 75.7422 148.984C78.4766 135.82 88.0859 123.789 99.0234 119.883C100.078 119.492 101.055 119.18 101.172 119.18C101.289 119.141 102.188 120.781 103.203 122.773Z" fill="black"/>
<path d="M153.516 106.914C150.156 108.672 144.922 117.266 144.062 122.539C142.969 129.023 145.117 134.18 152.461 142.734C157.383 148.477 157.383 150.898 152.461 157.305C150.977 159.258 150.273 160.625 150.117 161.68C149.336 167.344 156.055 170.937 160.352 167.148C163.789 164.102 167.617 157.148 168.437 152.383C169.531 146.016 167.383 140.82 160.078 132.305C155.078 126.445 155.078 124.18 160.078 117.617C162.187 114.844 162.305 114.57 162.305 112.461C162.305 110.039 161.641 108.789 159.687 107.305C158.242 106.211 155.234 106.016 153.516 106.914Z" fill="black"/>
</svg>
