<svg width="263" height="264" viewBox="0 0 263 264" fill="none" xmlns="http://www.w3.org/2000/svg">
<path d="M6.31621 1.57032C3.91387 2.62501 1.45293 5.61329 1.04278 7.95704C0.866996 9.01173 0.749808 21.5508 0.866996 35.9063L1.04278 61.9805L3.03496 65.6719C5.26153 69.7734 7.13653 71.5898 11.5311 73.875C14.2264 75.2227 15.2811 75.3984 22.6053 75.6328C26.9998 75.75 30.6326 75.9258 30.6326 75.9844C30.6326 76.043 32.5076 85.3008 34.7342 96.5508C38.9529 117.645 39.3045 118.641 42.5857 121.102C44.1678 122.332 44.2264 122.332 132 122.332C219.773 122.332 219.832 122.332 221.414 121.102C224.695 118.641 225.047 117.645 229.265 96.5508C231.492 85.3008 233.367 76.043 233.367 75.9844C233.367 75.9258 237 75.75 241.453 75.6328C248.719 75.3984 249.773 75.2227 252.469 73.875C256.863 71.5898 258.738 69.7734 260.965 65.6719L262.957 61.9805V34.3242C262.957 7.31251 262.957 6.66798 261.726 5.08594C261.082 4.20704 259.793 2.91798 258.914 2.27345L257.332 1.04298L132.703 0.925789C29.9881 0.808601 7.78106 0.925789 6.31621 1.57032ZM244.5 38.25V57H132H19.4998V38.25V19.5H132H244.5V38.25ZM75.867 82.1367C75.9842 87.5273 76.2186 88.8164 77.2732 90.1641C79.5584 93.2695 81.4334 94.207 85.1248 94.207C88.8162 94.207 90.6912 93.2695 92.9764 90.1641C94.0311 88.8164 94.2654 87.5273 94.3826 82.1367L94.617 75.75H108.562H122.508L122.742 82.1367C122.918 89.0508 123.445 90.3984 126.961 92.9766C129.246 94.6758 134.754 94.6758 137.039 92.9766C140.555 90.3984 141.082 89.0508 141.258 82.1367L141.492 75.75H155.437H169.383L169.617 82.1367C169.734 87.5273 169.969 88.8164 171.023 90.1641C173.308 93.2695 175.183 94.207 178.875 94.207C182.566 94.207 184.441 93.2695 186.726 90.1641C187.781 88.8164 188.015 87.5273 188.133 82.1367L188.367 75.75H201.199C211.394 75.75 214.031 75.9258 214.031 76.5117C214.031 76.9219 212.859 83.1914 211.394 90.3984C209.93 97.6055 208.758 103.582 208.758 103.699C208.758 103.816 174.246 103.875 132 103.875C89.8123 103.875 55.242 103.816 55.242 103.699C55.242 103.582 54.0701 97.6055 52.6053 90.3984C51.1404 83.1914 49.9686 76.9219 49.9686 76.5117C49.9686 75.9258 52.6053 75.75 62.8006 75.75H75.6326L75.867 82.1367Z" fill="black"/>
<path d="M128.191 29.6953C122.273 32.2735 120.867 40.125 125.496 44.7539C132.058 51.375 142.84 45.4571 141.14 36.1992C140.086 30.6914 133.465 27.3516 128.191 29.6953Z" fill="black"/>
<path d="M43.8163 142.195C41.414 143.25 38.953 146.238 38.4843 148.699C37.8397 152.098 38.7186 154.5 41.8827 158.426C45.3397 162.762 47.6249 167.273 47.6249 169.793C47.5663 172.488 45.7499 175.945 41.9413 180.398C30.3983 193.875 27.4101 201.434 29.5194 211.805C30.9843 219.012 39.0116 231.785 43.5233 234.129C46.1015 235.476 50.6132 235.184 52.7811 233.543C55.7108 231.316 56.7069 229.441 56.7069 225.809C56.7069 222.644 56.5311 222.234 53.3671 218.074C45.8671 208.23 45.8671 204.832 53.3671 196.043C64.3241 183.269 67.5468 175.535 65.9061 165.809C64.6171 157.898 56.7655 144.949 51.7265 142.43C49.3241 141.199 46.2772 141.141 43.8163 142.195Z" fill="black"/>
<path d="M130.828 142.547C122.449 144.305 116.062 147.176 108.797 152.273C87.4685 167.273 72.8787 198.387 76.2771 221.59C78.2107 234.715 85.7693 249.305 95.6716 258.797C99.8318 262.84 102 263.719 105.926 263.016C110.261 262.195 111.199 260.73 117.058 245.672C118.933 240.984 121.687 234.656 123.269 231.609C126.551 225.164 131.179 218.484 132.058 219.012C133.172 219.773 135.574 225.34 136.98 230.613C137.742 233.602 139.207 240.867 140.144 246.785C141.961 258.035 142.429 259.324 145.594 261.668C146.472 262.312 148.406 262.957 149.988 263.074C152.332 263.309 153.386 263.016 156.316 261.434C168.035 255.164 177.879 245.437 183.152 234.832C189.422 222.234 189.773 210.047 184.148 198.328C181.277 192.293 178.113 187.84 171.14 180.105C157.254 164.637 153.914 160.066 151.98 153.855C151.277 151.687 150.457 148.934 150.105 147.82C148.172 141.668 142.312 140.086 130.828 142.547ZM136.804 166.16C140.261 172.84 144.304 178.289 153.386 188.25C165.398 201.492 168.797 206.941 169.383 213.797C169.91 220.359 166.57 228.094 160.242 235.125C157.898 237.703 157.898 237.762 157.547 236.297C154.265 221.707 152.742 217.137 149.109 210.809C145.066 203.953 136.863 197.625 132 197.625C126.961 197.625 117.703 205.066 111.902 213.797C109.383 217.664 104.168 227.566 101.824 233.074L100.828 235.418L98.5427 230.73C94.4998 222.41 93.6209 215.027 95.613 205.477C99.7146 185.73 114.129 167.684 130.535 161.824C132.117 161.238 133.582 160.77 133.758 160.77C133.933 160.711 135.281 163.172 136.804 166.16Z" fill="black"/>
<path d="M212.273 142.371C207.234 145.008 199.382 157.898 198.093 165.809C196.453 175.535 199.675 183.27 210.691 196.102C218.074 204.715 218.074 208.348 210.691 217.957C208.465 220.887 207.41 222.937 207.175 224.52C206.004 233.016 216.082 238.406 222.527 232.723C227.683 228.152 233.425 217.723 234.656 210.574C236.297 201.023 233.074 193.23 222.117 180.457C214.617 171.668 214.617 168.27 222.117 158.426C225.281 154.266 225.457 153.855 225.457 150.691C225.457 147.059 224.461 145.184 221.531 142.957C219.363 141.316 214.851 141.023 212.273 142.371Z" fill="black"/>
</svg>
