<svg width="300" height="300" viewBox="0 0 300 300" fill="none" xmlns="http://www.w3.org/2000/svg">
<path d="M13.5886 0.496002C6.49547 1.61713 1.04374 8.90454 0.223055 18.4342C0.0471932 20.6765 -0.0700481 72.2488 0.0471932 133.031C0.223055 243.302 0.223055 243.543 1.45409 247.146C2.80236 251.07 5.67478 255.315 8.42995 257.397C10.0127 258.598 14.7024 258.758 55.5023 259.159L100.757 259.559L94.192 273.333L87.5678 287.107L73.3816 287.187C64.0023 287.187 58.6678 287.507 57.7299 288.068C55.6196 289.429 54.6816 293.593 55.8541 296.637C56.323 297.918 57.2023 299.199 57.6713 299.52C58.9609 300.16 241.037 300.16 242.326 299.52C242.795 299.199 243.675 297.918 244.144 296.637C245.316 293.593 244.378 289.429 242.268 288.068C241.33 287.507 235.995 287.187 226.616 287.187L212.43 287.107L205.806 273.333L199.182 259.559L244.554 259.159L289.868 258.758L292.33 256.596C295.847 253.393 297.606 250.51 298.895 245.705C300.068 241.461 300.068 239.699 299.95 128.386L299.775 15.311L298.016 10.9866C296.14 6.42203 294.088 3.77933 290.337 1.53705C288.168 0.175659 281.133 0.0955811 152.637 0.0155029C78.1885 -0.0645752 15.5817 0.175659 13.5886 0.496002ZM287.347 14.1899C288.168 14.6704 289.106 15.9517 289.457 17.0728C289.926 18.4342 290.102 50.3866 290.102 130.228V241.461L288.695 243.703L287.288 245.945H149.999H12.7093L11.3024 243.703L9.89546 241.461V130.228C9.89546 50.1464 10.0713 18.4342 10.5403 16.9927C10.892 15.9517 11.7713 14.6704 12.4748 14.27C14.292 13.0688 285.413 12.9887 287.347 14.1899ZM193.906 272.612C197.482 279.98 200.413 286.306 200.413 286.626C200.413 286.947 177.726 287.187 149.999 287.187C122.271 287.187 99.5851 286.947 99.5851 286.626C99.5851 286.306 102.516 279.98 106.092 272.612L112.657 259.159H149.999H187.34L193.906 272.612Z" fill="black"/>
<path d="M15.1709 129.827V239.138H149.998H284.826V129.827V20.5163H149.998H15.1709V129.827ZM275.447 129.827V225.524H149.998H24.5502V129.827V34.1301H149.998H275.447V129.827Z" fill="black"/>
</svg>
