<svg width="200" height="200" viewBox="0 0 200 200" fill="none" xmlns="http://www.w3.org/2000/svg">
<path d="M9.10152 26.9531C4.37495 27.5 0.742141 31.0547 0.195266 35.7031C0.0780786 36.7969 -4.64229e-05 61.9531 0.0780786 91.6016C0.195266 145.391 0.195266 145.508 1.01558 147.266C1.91402 149.18 3.82808 151.25 5.66402 152.266C6.7187 152.852 9.8437 152.93 37.0312 153.125L67.1874 153.32L62.8124 160.039L58.3984 166.758L48.9453 166.797C42.6953 166.797 39.1406 166.953 38.5156 167.227C37.1093 167.891 36.4843 169.922 37.2656 171.406C37.5781 172.031 38.164 172.656 38.4765 172.812C39.3359 173.125 160.664 173.125 161.523 172.812C161.836 172.656 162.422 172.031 162.734 171.406C163.516 169.922 162.891 167.891 161.484 167.227C160.859 166.953 157.305 166.797 151.055 166.797L141.602 166.758L137.187 160.039L132.773 153.32L163.008 153.125L193.203 152.93L194.844 151.875C197.187 150.312 198.359 148.906 199.219 146.562C200 144.492 200 143.633 199.922 89.3359L199.805 34.1797L198.633 32.0703C197.383 29.8438 196.016 28.5547 193.516 27.4609C192.07 26.7969 187.383 26.7578 101.758 26.7188C52.1484 26.6797 10.4296 26.7969 9.10152 26.9531ZM191.523 33.6328C192.07 33.8672 192.695 34.4922 192.93 35.0391C193.242 35.7031 193.359 51.2891 193.359 90.2344V144.492L192.422 145.586L191.484 146.68H99.9999H8.51558L7.57808 145.586L6.64058 144.492V90.2344C6.64058 51.1719 6.75777 35.7031 7.07027 35C7.30464 34.4922 7.89058 33.8672 8.35933 33.6719C9.57027 33.0859 190.234 33.0469 191.523 33.6328ZM129.258 159.688C131.641 163.281 133.594 166.367 133.594 166.523C133.594 166.68 118.477 166.797 99.9999 166.797C81.5234 166.797 66.4062 166.68 66.4062 166.523C66.4062 166.367 68.3593 163.281 70.7421 159.688L75.1171 153.125H99.9999H124.883L129.258 159.688Z" fill="black"/>
<path d="M10.1562 90.0391V143.359H100H189.844V90.0391V36.7188H100H10.1562V90.0391ZM183.594 90.0391V136.719H100H16.4062V90.0391V43.3594H100H183.594V90.0391Z" fill="black"/>
</svg>
